999
dxfrw 0.6.3
  0
SECTION
  2
HEADER
  9
$ACADVER
  1
AC1021
  9
$DWGCODEPAGE
  3
ANSI_1252
  9
$INSBASE
 10
0
 20
0
 30
0
  9
$EXTMIN
 10
10.0004
 20
10.0004
 30
0
  9
$EXTMAX
 10
767.242
 20
136.9
 30
0
  9
$LIMMIN
 10
0
 20
0
  9
$LIMMAX
 10
420
 20
297
  9
$ORTHOMODE
 70
    0
  9
$REGENMODE
 70
    1
  9
$FILLMODE
 70
    0
  9
$QTEXTMODE
 70
    0
  9
$MIRRTEXT
 70
    0
  9
$LTSCALE
 40
1
  9
$ATTMODE
 70
    0
  9
$TEXTSIZE
 40
2.5
  9
$TRACEWID
 40
15.68
  9
$TEXTSTYLE
  7
STANDARD
  9
$CLAYER
  8
0
  9
$CELTYPE
  6
BYLAYER
  9
$CECOLOR
 62
  256
  9
$CELTSCALE
 40
1
  9
$DISPSILH
 70
    0
  9
$DIMSCALE
 40
2.5
  9
$DIMASZ
 40
2.5
  9
$DIMEXO
 40
0.625
  9
$DIMDLI
 40
3.75
  9
$DIMRND
 40
0
  9
$DIMDLE
 40
0
  9
$DIMEXE
 40
1.25
  9
$DIMTP
 40
0
  9
$DIMTM
 40
0
  9
$DIMTXT
 40
2.5
  9
$DIMCEN
 40
2.5
  9
$DIMTSZ
 40
0
  9
$DIMTOL
 70
    0
  9
$DIMLIM
 70
    0
  9
$DIMTIH
 70
    0
  9
$DIMTOH
 70
    0
  9
$DIMSE1
 70
    0
  9
$DIMSE2
 70
    0
  9
$DIMTAD
 70
    1
  9
$DIMZIN
 70
    8
  9
$DIMBLK
  1

  9
$DIMASO
 70
    1
  9
$DIMSHO
 70
    1
  9
$DIMPOST
  1

  9
$DIMAPOST
  1

  9
$DIMALT
 70
    0
  9
$DIMALTD
 70
    3
  9
$DIMALTF
 40
0.03937
  9
$DIMLFAC
 40
1
  9
$DIMTOFL
 70
    1
  9
$DIMTVP
 40
0
  9
$DIMTIX
 70
    0
  9
$DIMSOXD
 70
    0
  9
$DIMSAH
 70
    0
  9
$DIMBLK1
  1

  9
$DIMBLK2
  1

  9
$DIMSTYLE
  2
Standard
  9
$DIMCLRD
 70
    0
  9
$DIMCLRE
 70
    0
  9
$DIMCLRT
 70
    0
  9
$DIMTFAC
 40
1
  9
$DIMGAP
 40
0.625
  9
$DIMJUST
 70
    0
  9
$DIMSD1
 70
    0
  9
$DIMSD2
 70
    0
  9
$DIMTOLJ
 70
    0
  9
$DIMTZIN
 70
    8
  9
$DIMALTZ
 70
    0
  9
$DIMALTTZ
 70
    0
  9
$DIMUPT
 70
    0
  9
$DIMDEC
 70
    2
  9
$DIMTDEC
 70
    2
  9
$DIMALTU
 70
    2
  9
$DIMALTTD
 70
    3
  9
$DIMTXSTY
  7
STANDARD
  9
$DIMAUNIT
 70
    0
  9
$DIMADEC
 70
    0
  9
$DIMALTRND
 40
0
  9
$DIMAZIN
 70
    0
  9
$DIMDSEP
 70
   44
  9
$DIMATFIT
 70
    3
  9
$DIMFRAC
 70
    0
  9
$DIMLDRBLK
  1
STANDARD
  9
$DIMLUNIT
 70
    2
  9
$DIMLWD
 70
   -2
  9
$DIMLWE
 70
   -2
  9
$DIMTMOVE
 70
    0
  9
$DIMFXL
 40
1
  9
$DIMFXLON
 70
    0
  9
$DIMJOGANG
 40
0.7854
  9
$DIMTFILL
 70
    0
  9
$DIMTFILLCLR
 70
    0
  9
$DIMARCSYM
 70
    0
  9
$DIMLTYPE
  6

  9
$DIMLTEX1
  6

  9
$DIMLTEX2
  6

  9
$LUNITS
 70
    2
  9
$LUPREC
 70
    4
  9
$SKETCHINC
 40
1
  9
$FILLETRAD
 40
0
  9
$AUNITS
 70
    0
  9
$AUPREC
 70
    2
  9
$MENU
  1
.
  9
$ELEVATION
 40
0
  9
$PELEVATION
 40
0
  9
$THICKNESS
 40
0
  9
$LIMCHECK
 70
    0
  9
$CHAMFERA
 40
0
  9
$CHAMFERB
 40
0
  9
$CHAMFERC
 40
0
  9
$CHAMFERD
 40
0
  9
$SKPOLY
 70
    0
  9
$USRTIMER
 70
    1
  9
$ANGBASE
 50
0
  9
$ANGDIR
 70
    0
  9
$PDMODE
 70
   34
  9
$PDSIZE
 40
0
  9
$PLINEWID
 40
0
  9
$SPLFRAME
 70
    1
  9
$SPLINETYPE
 70
    2
  9
$SPLINESEGS
 70
    8
  9
$HANDSEED
  5
20000
  9
$SURFTAB1
 70
    6
  9
$SURFTAB2
 70
    6
  9
$SURFTYPE
 70
    6
  9
$SURFU
 70
    6
  9
$SURFV
 70
    6
  9
$UCSBASE
  2

  9
$UCSNAME
  2

  9
$UCSORG
 10
0
 20
0
 30
0
  9
$UCSXDIR
 10
1
 20
0
 30
0
  9
$UCSYDIR
 10
0
 20
1
 30
0
  9
$UCSORTHOREF
  2

  9
$UCSORTHOVIEW
 70
    0
  9
$UCSORGTOP
 10
0
 20
0
 30
0
  9
$UCSORGBOTTOM
 10
0
 20
0
 30
0
  9
$UCSORGLEFT
 10
0
 20
0
 30
0
  9
$UCSORGRIGHT
 10
0
 20
0
 30
0
  9
$UCSORGFRONT
 10
0
 20
0
 30
0
  9
$UCSORGBACK
 10
0
 20
0
 30
0
  9
$PUCSBASE
  2

  9
$PUCSNAME
  2

  9
$PUCSORG
 10
0
 20
0
 30
0
  9
$PUCSXDIR
 10
1
 20
0
 30
0
  9
$PUCSYDIR
 10
0
 20
1
 30
0
  9
$PUCSORTHOREF
  2

  9
$PUCSORTHOVIEW
 70
    0
  9
$PUCSORGTOP
 10
0
 20
0
 30
0
  9
$PUCSORGBOTTOM
 10
0
 20
0
 30
0
  9
$PUCSORGLEFT
 10
0
 20
0
 30
0
  9
$PUCSORGRIGHT
 10
0
 20
0
 30
0
  9
$PUCSORGFRONT
 10
0
 20
0
 30
0
  9
$PUCSORGBACK
 10
0
 20
0
 30
0
  9
$USERI1
 70
    0
  9
$USERI2
 70
    0
  9
$USERI3
 70
    0
  9
$USERI4
 70
    0
  9
$USERI5
 70
    0
  9
$USERR1
 40
0
  9
$USERR2
 40
0
  9
$USERR3
 40
0
  9
$USERR4
 40
0
  9
$USERR5
 40
0
  9
$WORLDVIEW
 70
    1
  9
$SHADEDGE
 70
    3
  9
$SHADEDIF
 70
   70
  9
$TILEMODE
 70
    1
  9
$MAXACTVP
 70
   64
  9
$PINSBASE
 10
0
 20
0
 30
0
  9
$PLIMCHECK
 70
    0
  9
$PEXTMIN
 10
0
 20
0
 30
0
  9
$PEXTMAX
 10
0
 20
0
 30
0
  9
$GRIDMODE
 70
    1
  9
$SNAPSTYLE
 70
    0
  9
$PLIMMIN
 10
0
 20
0
  9
$PLIMMAX
 10
210
 20
297
  9
$UNITMODE
 70
    0
  9
$VISRETAIN
 70
    1
  9
$PLINEGEN
 70
    0
  9
$PSLTSCALE
 70
    1
  9
$TREEDEPTH
 70
 3020
  9
$CMLSTYLE
  2
Standard
  9
$CMLJUST
 70
    0
  9
$CMLSCALE
 40
20
  9
$PROXYGRAPHICS
 70
    1
  9
$MEASUREMENT
 70
    1
  9
$CELWEIGHT
370
   -1
  9
$ENDCAPS
280
    0
  9
$JOINSTYLE
280
    0
  9
$LWDISPLAY
290
    0
  9
$INSUNITS
 70
    4
  9
$HYPERLINKBASE
  1

  9
$STYLESHEET
  1

  9
$XEDIT
290
    1
  9
$CEPSNTYPE
380
    0
  9
$PSTYLEMODE
290
    1
  9
$EXTNAMES
290
    1
  9
$PSVPSCALE
 40
1
  9
$OLESTARTUP
290
    0
  9
$SORTENTS
280
  127
  9
$INDEXCTL
280
    0
  9
$HIDETEXT
280
    1
  9
$XCLIPFRAME
290
    0
  9
$HALOGAP
280
    0
  9
$OBSCOLOR
 70
  257
  9
$OBSLTYPE
280
    0
  9
$INTERSECTIONDISPLAY
280
    0
  9
$INTERSECTIONCOLOR
 70
  257
  9
$DIMASSOC
280
    1
  9
$PROJECTNAME
  1

  9
$CAMERADISPLAY
290
    0
  9
$LENSLENGTH
 40
50
  9
$CAMERAHEIGHT
 40
0
  9
$STEPSPERSEC
 40
2
  9
$STEPSIZE
 40
50
  9
$3DDWFPREC
 40
2
  9
$PSOLWIDTH
 40
5
  9
$PSOLHEIGHT
 40
80
  9
$LOFTANG1
 40
1.570796326794897
  9
$LOFTANG2
 40
1.570796326794897
  9
$LOFTMAG1
 40
0
  9
$LOFTMAG2
 40
0
  9
$LOFTPARAM
 70
    7
  9
$LOFTNORMALS
280
    1
  9
$LATITUDE
 40
1
  9
$LONGITUDE
 40
1
  9
$NORTHDIRECTION
 40
0
  9
$TIMEZONE
 70
-8000
  9
$LIGHTGLYPHDISPLAY
280
    1
  9
$TILEMODELIGHTSYNCH
280
    1
  9
$SOLIDHIST
280
    1
  9
$SHOWHIST
280
    1
  9
$DWFFRAME
280
    2
  9
$DGNFRAME
280
    0
  9
$REALWORLDSCALE
290
    1
  9
$INTERFERECOLOR
 62
    1
  9
$CSHADOW
280
    0
  9
$SHADOWPLANELOCATION
 40
0
  0
ENDSEC
  0
SECTION
  2
CLASSES
  0
ENDSEC
  0
SECTION
  2
TABLES
  0
TABLE
  2
VPORT
  5
8
330
0
100
AcDbSymbolTable
 70
    1
  0
VPORT
  5
31
330
2
100
AcDbSymbolTableRecord
100
AcDbViewportTableRecord
  2
*ACTIVE
 70
    0
 10
0
 20
0
 11
1
 21
1
 12
248.282587824412
 22
47.28078664352618
 13
0
 23
0
 14
10
 24
10
 15
10
 25
10
 16
0
 26
0
 36
1
 17
0
 27
0
 37
0
 40
75.20030160513363
 41
1.746268656716418
 42
50
 43
0
 44
0
 50
0
 51
0
 71
    0
 72
  100
 73
    1
 74
    3
 75
    0
 76
    1
 77
    0
 78
    0
281
    0
 65
    1
110
0
120
0
130
0
111
1
121
0
131
0
112
0
122
1
132
0
 79
    0
146
0
348
10020
 60
    7
 61
    5
292
1
282
    1
141
0
142
0
 63
  250
421
3358443
  0
ENDTAB
  0
TABLE
  2
LTYPE
  5
5
330
0
100
AcDbSymbolTable
 70
    4
  0
LTYPE
  5
14
330
5
100
AcDbSymbolTableRecord
100
AcDbLinetypeTableRecord
  2
ByBlock
 70
    0
  3

 72
   65
 73
    0
 40
0
  0
LTYPE
  5
15
330
5
100
AcDbSymbolTableRecord
100
AcDbLinetypeTableRecord
  2
ByLayer
 70
    0
  3

 72
   65
 73
    0
 40
0
  0
LTYPE
  5
16
330
5
100
AcDbSymbolTableRecord
100
AcDbLinetypeTableRecord
  2
Continuous
 70
    0
  3
Solid line
 72
   65
 73
    0
 40
0
  0
LTYPE
  5
32
330
5
100
AcDbSymbolTableRecord
100
AcDbLinetypeTableRecord
  2
DOT
 70
    0
  3
Dot . . . . . . . . . . . . . . . . . . . . . .
 72
   65
 73
    2
 40
6.35
 49
0
 74
    0
 49
-6.35
 74
    0
  0
LTYPE
  5
33
330
5
100
AcDbSymbolTableRecord
100
AcDbLinetypeTableRecord
  2
DOTTINY
 70
    0
  3
Dot (.15x) .....................................
 72
   65
 73
    2
 40
0.9525
 49
0
 74
    0
 49
-0.9525
 74
    0
  0
LTYPE
  5
34
330
5
100
AcDbSymbolTableRecord
100
AcDbLinetypeTableRecord
  2
DOT2
 70
    0
  3
Dot (.5x) .....................................
 72
   65
 73
    2
 40
3.175
 49
0
 74
    0
 49
-3.175
 74
    0
  0
LTYPE
  5
35
330
5
100
AcDbSymbolTableRecord
100
AcDbLinetypeTableRecord
  2
DOTX2
 70
    0
  3
Dot (2x) .  .  .  .  .  .  .  .  .  .  .  .  .
 72
   65
 73
    2
 40
12.7
 49
0
 74
    0
 49
-12.7
 74
    0
  0
LTYPE
  5
36
330
5
100
AcDbSymbolTableRecord
100
AcDbLinetypeTableRecord
  2
DASHED
 70
    0
  3
Dashed _ _ _ _ _ _ _ _ _ _ _ _ _ _ _ _ _
 72
   65
 73
    2
 40
19.05
 49
12.7
 74
    0
 49
-6.35
 74
    0
  0
LTYPE
  5
37
330
5
100
AcDbSymbolTableRecord
100
AcDbLinetypeTableRecord
  2
DASHEDTINY
 70
    0
  3
Dashed (.15x) _ _ _ _ _ _ _ _ _ _ _ _ _ _ _ _ _
 72
   65
 73
    2
 40
2.8575
 49
1.905
 74
    0
 49
-0.9525
 74
    0
  0
LTYPE
  5
38
330
5
100
AcDbSymbolTableRecord
100
AcDbLinetypeTableRecord
  2
DASHED2
 70
    0
  3
Dashed (.5x) _ _ _ _ _ _ _ _ _ _ _ _ _ _ _ _ _
 72
   65
 73
    2
 40
9.524999999999999
 49
6.35
 74
    0
 49
-3.175
 74
    0
  0
LTYPE
  5
39
330
5
100
AcDbSymbolTableRecord
100
AcDbLinetypeTableRecord
  2
DASHEDX2
 70
    0
  3
Dashed (2x) ____  ____  ____  ____  ____  ___
 72
   65
 73
    2
 40
38.09999999999999
 49
25.4
 74
    0
 49
-12.7
 74
    0
  0
LTYPE
  5
3A
330
5
100
AcDbSymbolTableRecord
100
AcDbLinetypeTableRecord
  2
DASHDOT
 70
    0
  3
Dash dot __ . __ . __ . __ . __ . __ . __ . __
 72
   65
 73
    4
 40
25.4
 49
12.7
 74
    0
 49
-6.35
 74
    0
 49
0
 74
    0
 49
-6.35
 74
    0
  0
LTYPE
  5
3B
330
5
100
AcDbSymbolTableRecord
100
AcDbLinetypeTableRecord
  2
DASHDOTTINY
 70
    0
  3
Dash dot (.15x) _._._._._._._._._._._._._._._.
 72
   65
 73
    4
 40
3.81
 49
1.905
 74
    0
 49
-0.9525
 74
    0
 49
0
 74
    0
 49
-0.9525
 74
    0
  0
LTYPE
  5
3C
330
5
100
AcDbSymbolTableRecord
100
AcDbLinetypeTableRecord
  2
DASHDOT2
 70
    0
  3
Dash dot (.5x) _._._._._._._._._._._._._._._.
 72
   65
 73
    4
 40
12.7
 49
6.35
 74
    0
 49
-3.175
 74
    0
 49
0
 74
    0
 49
-3.175
 74
    0
  0
LTYPE
  5
3D
330
5
100
AcDbSymbolTableRecord
100
AcDbLinetypeTableRecord
  2
DASHDOTX2
 70
    0
  3
Dash dot (2x) ____  .  ____  .  ____  .  ___
 72
   65
 73
    4
 40
50.8
 49
25.4
 74
    0
 49
-12.7
 74
    0
 49
0
 74
    0
 49
-12.7
 74
    0
  0
LTYPE
  5
3E
330
5
100
AcDbSymbolTableRecord
100
AcDbLinetypeTableRecord
  2
DIVIDE
 70
    0
  3
Divide ____ . . ____ . . ____ . . ____ . . ____
 72
   65
 73
    6
 40
31.75
 49
12.7
 74
    0
 49
-6.35
 74
    0
 49
0
 74
    0
 49
-6.35
 74
    0
 49
0
 74
    0
 49
-6.35
 74
    0
  0
LTYPE
  5
3F
330
5
100
AcDbSymbolTableRecord
100
AcDbLinetypeTableRecord
  2
DIVIDETINY
 70
    0
  3
Divide (.15x) __..__..__..__..__..__..__..__.._
 72
   65
 73
    6
 40
4.7625
 49
1.905
 74
    0
 49
-0.9525
 74
    0
 49
0
 74
    0
 49
-0.9525
 74
    0
 49
0
 74
    0
 49
-0.9525
 74
    0
  0
LTYPE
  5
40
330
5
100
AcDbSymbolTableRecord
100
AcDbLinetypeTableRecord
  2
DIVIDE2
 70
    0
  3
Divide (.5x) __..__..__..__..__..__..__..__.._
 72
   65
 73
    6
 40
15.875
 49
6.35
 74
    0
 49
-3.175
 74
    0
 49
0
 74
    0
 49
-3.175
 74
    0
 49
0
 74
    0
 49
-3.175
 74
    0
  0
LTYPE
  5
41
330
5
100
AcDbSymbolTableRecord
100
AcDbLinetypeTableRecord
  2
DIVIDEX2
 70
    0
  3
Divide (2x) ________  .  .  ________  .  .  _
 72
   65
 73
    6
 40
63.5
 49
25.4
 74
    0
 49
-12.7
 74
    0
 49
0
 74
    0
 49
-12.7
 74
    0
 49
0
 74
    0
 49
-12.7
 74
    0
  0
LTYPE
  5
42
330
5
100
AcDbSymbolTableRecord
100
AcDbLinetypeTableRecord
  2
BORDER
 70
    0
  3
Border __ __ . __ __ . __ __ . __ __ . __ __ .
 72
   65
 73
    6
 40
44.45
 49
12.7
 74
    0
 49
-6.35
 74
    0
 49
12.7
 74
    0
 49
-6.35
 74
    0
 49
0
 74
    0
 49
-6.35
 74
    0
  0
LTYPE
  5
43
330
5
100
AcDbSymbolTableRecord
100
AcDbLinetypeTableRecord
  2
BORDERTINY
 70
    0
  3
Border (.15x) __.__.__.__.__.__.__.__.__.__.__.
 72
   65
 73
    6
 40
6.6675
 49
1.905
 74
    0
 49
-0.9525
 74
    0
 49
1.905
 74
    0
 49
-0.9525
 74
    0
 49
0
 74
    0
 49
-0.9525
 74
    0
  0
LTYPE
  5
44
330
5
100
AcDbSymbolTableRecord
100
AcDbLinetypeTableRecord
  2
BORDER2
 70
    0
  3
Border (.5x) __.__.__.__.__.__.__.__.__.__.__.
 72
   65
 73
    6
 40
22.225
 49
6.35
 74
    0
 49
-3.175
 74
    0
 49
6.35
 74
    0
 49
-3.175
 74
    0
 49
0
 74
    0
 49
-3.175
 74
    0
  0
LTYPE
  5
45
330
5
100
AcDbSymbolTableRecord
100
AcDbLinetypeTableRecord
  2
BORDERX2
 70
    0
  3
Border (2x) ____  ____  .  ____  ____  .  ___
 72
   65
 73
    6
 40
88.89999999999999
 49
25.4
 74
    0
 49
-12.7
 74
    0
 49
25.4
 74
    0
 49
-12.7
 74
    0
 49
0
 74
    0
 49
-12.7
 74
    0
  0
LTYPE
  5
46
330
5
100
AcDbSymbolTableRecord
100
AcDbLinetypeTableRecord
  2
CENTER
 70
    0
  3
Center ____ _ ____ _ ____ _ ____ _ ____ _ ____
 72
   65
 73
    4
 40
50.8
 49
31.75
 74
    0
 49
-6.35
 74
    0
 49
6.35
 74
    0
 49
-6.35
 74
    0
  0
LTYPE
  5
47
330
5
100
AcDbSymbolTableRecord
100
AcDbLinetypeTableRecord
  2
CENTERTINY
 70
    0
  3
Center (.15x) ___ _ ___ _ ___ _ ___ _ ___ _ ___
 72
   65
 73
    4
 40
7.619999999999999
 49
4.7625
 74
    0
 49
-0.9525
 74
    0
 49
0.9525
 74
    0
 49
-0.9525
 74
    0
  0
LTYPE
  5
48
330
5
100
AcDbSymbolTableRecord
100
AcDbLinetypeTableRecord
  2
CENTER2
 70
    0
  3
Center (.5x) ___ _ ___ _ ___ _ ___ _ ___ _ ___
 72
   65
 73
    4
 40
28.575
 49
19.05
 74
    0
 49
-3.175
 74
    0
 49
3.175
 74
    0
 49
-3.175
 74
    0
  0
LTYPE
  5
49
330
5
100
AcDbSymbolTableRecord
100
AcDbLinetypeTableRecord
  2
CENTERX2
 70
    0
  3
Center (2x) ________  __  ________  __  _____
 72
   65
 73
    4
 40
101.6
 49
63.5
 74
    0
 49
-12.7
 74
    0
 49
12.7
 74
    0
 49
-12.7
 74
    0
  0
ENDTAB
  0
TABLE
  2
LAYER
  5
2
330
0
100
AcDbSymbolTable
 70
    1
  0
LAYER
  5
10
330
2
100
AcDbSymbolTableRecord
100
AcDbLayerTableRecord
  2
0
 70
    0
 62
    7
  6
CONTINUOUS
370
   -3
390
F
  0
ENDTAB
  0
TABLE
  2
STYLE
  5
3
330
0
100
AcDbSymbolTable
 70
    3
  0
STYLE
  5
4A
330
2
100
AcDbSymbolTableRecord
100
AcDbTextStyleTableRecord
  2
STANDARD
 70
    0
 40
0
 41
1
 50
0
 71
    0
 42
1
  3
STANDARD
  4

  0
ENDTAB
  0
TABLE
  2
VIEW
  5
6
330
0
100
AcDbSymbolTable
 70
    0
  0
ENDTAB
  0
TABLE
  2
UCS
  5
7
330
0
100
AcDbSymbolTable
 70
    0
  0
ENDTAB
  0
TABLE
  2
APPID
  5
9
330
0
100
AcDbSymbolTable
 70
    1
  0
APPID
  5
12
330
9
100
AcDbSymbolTableRecord
100
AcDbRegAppTableRecord
  2
ACAD
 70
    0
  0
APPID
  5
4B
330
9
100
AcDbSymbolTableRecord
100
AcDbRegAppTableRecord
  2
LibreCad
 70
    0
  0
ENDTAB
  0
TABLE
  2
DIMSTYLE
  5
A
330
0
100
AcDbSymbolTable
 70
    1
100
AcDbDimStyleTable
 71
    1
  0
DIMSTYLE
105
4C
330
A
100
AcDbSymbolTableRecord
100
AcDbDimStyleTableRecord
  2
Standard
 70
    0
 40
2.5
 41
2.5
 42
0.625
 43
0.38
 44
1.25
 45
0
 46
0
 47
0
 48
0
 49
1
140
2.5
141
0.09
142
0
143
25.4
144
1
145
0
146
1
147
0.625
148
0
 71
    0
 72
    0
 73
    0
 74
    1
 75
    0
 76
    0
 77
    0
 78
    8
 79
    0
170
    0
171
    2
172
    0
173
    0
174
    0
175
    0
176
    0
177
    0
178
    0
179
    0
271
    2
272
    4
273
    2
274
    2
275
    0
276
    0
277
    2
278
   44
279
    0
280
    0
281
    0
282
    0
283
    1
284
    0
285
    0
286
    0
288
    0
289
    3
340
STANDARD
341

371
   -2
372
   -2
  0
ENDTAB
  0
TABLE
  2
BLOCK_RECORD
  5
1
330
0
100
AcDbSymbolTable
 70
    2
  0
BLOCK_RECORD
  5
1F
330
1
100
AcDbSymbolTableRecord
100
AcDbBlockTableRecord
  2
*Model_Space
 70
    0
280
    1
281
    0
  0
BLOCK_RECORD
  5
1E
330
1
100
AcDbSymbolTableRecord
100
AcDbBlockTableRecord
  2
*Paper_Space
 70
    0
280
    1
281
    0
  0
ENDTAB
  0
ENDSEC
  0
SECTION
  2
BLOCKS
  0
BLOCK
  5
20
330
1F
100
AcDbEntity
  8
0
100
AcDbBlockBegin
  2
*Model_Space
 70
    0
 10
0
 20
0
 30
0
  3
*Model_Space
  1

  0
ENDBLK
  5
21
330
1F
100
AcDbEntity
  8
0
100
AcDbBlockEnd
  0
BLOCK
  5
1C
330
1B
100
AcDbEntity
  8
0
100
AcDbBlockBegin
  2
*Paper_Space
 70
    0
 10
0
 20
0
 30
0
  3
*Paper_Space
  1

  0
ENDBLK
  5
1D
330
1F
100
AcDbEntity
  8
0
100
AcDbBlockEnd
  0
ENDSEC
  0
SECTION
  2
ENTITIES
  0
LWPOLYLINE
  5
4D
100
AcDbEntity
  8
0
  6
ByLayer
 62
    0
370
   -1
100
AcDbPolyline
 90
    4
 70
    1
 43
0
 10
10.0996
 20
10.0004
 10
110.1
 20
10.0004
 10
110.1
 20
19.9995
 10
10.0996
 20
19.9995
  0
TEXT
  5
4E
100
AcDbEntity
  8
0
  6
ByLayer
 62
    1
370
   -1
100
AcDbText
 10
28.2549
 20
13.7943
 30
0
 40
6.00075
  1
100.0mm, burn:0.10mm
 50
0
 41
1
 51
0
  7
STANDARD
 71
    0
210
0
220
0
230
1
100
AcDbText
  0
LWPOLYLINE
  5
4F
100
AcDbEntity
  8
0
  6
ByLayer
 62
    5
370
   -1
100
AcDbPolyline
 90
   29
 70
    1
 43
0
 10
21.1005
 20
30.8005
 10
18.1997
 20
30.8005
 10
18.1887
 20
30.8005
 10
18.157
 20
30.7867
 10
18.1626
 20
30.7633
 10
18.1846
 20
30.7592
 10
18.1997
 20
30.7909
 10
18.1997
 20
30.8005
 10
18.1997
 20
33.5993
 10
18.1997
 20
33.6103
 10
18.1846
 20
33.6421
 10
18.1626
 20
33.6379
 10
18.157
 20
33.6145
 10
18.1887
 20
33.5993
 10
18.1997
 20
33.5993
 10
23.9999
 20
33.5993
 10
24.0096
 20
33.5993
 10
24.0412
 20
33.6145
 10
24.0371
 20
33.6379
 10
24.0137
 20
33.6421
 10
23.9999
 20
33.6103
 10
23.9999
 20
33.5993
 10
23.9999
 20
30.8005
 10
23.9999
 20
30.7909
 10
24.0137
 20
30.7592
 10
24.0371
 20
30.7633
 10
24.0412
 20
30.7867
 10
24.0096
 20
30.8005
 10
23.9999
 20
30.8005
  0
LWPOLYLINE
  5
50
100
AcDbEntity
  8
0
  6
ByLayer
 62
    5
370
   -1
100
AcDbPolyline
 90
   29
 70
    1
 43
0
 10
33.1005
 20
30.8005
 10
30.1997
 20
30.8005
 10
30.1887
 20
30.8005
 10
30.157
 20
30.7867
 10
30.1625
 20
30.7633
 10
30.1845
 20
30.7592
 10
30.1997
 20
30.7909
 10
30.1997
 20
30.8005
 10
30.1997
 20
33.5993
 10
30.1997
 20
33.6103
 10
30.1845
 20
33.6421
 10
30.1625
 20
33.6379
 10
30.157
 20
33.6145
 10
30.1887
 20
33.5993
 10
30.1997
 20
33.5993
 10
35.9999
 20
33.5993
 10
36.0094
 20
33.5993
 10
36.0412
 20
33.6145
 10
36.037
 20
33.6379
 10
36.0137
 20
33.6421
 10
35.9999
 20
33.6103
 10
35.9999
 20
33.5993
 10
35.9999
 20
30.8005
 10
35.9999
 20
30.7909
 10
36.0137
 20
30.7592
 10
36.037
 20
30.7633
 10
36.0412
 20
30.7867
 10
36.0094
 20
30.8005
 10
35.9999
 20
30.8005
  0
LWPOLYLINE
  5
51
100
AcDbEntity
  8
0
  6
ByLayer
 62
    5
370
   -1
100
AcDbPolyline
 90
   29
 70
    1
 43
0
 10
45.1005
 20
30.8005
 10
42.1996
 20
30.8005
 10
42.1887
 20
30.8005
 10
42.1569
 20
30.7867
 10
42.1626
 20
30.7633
 10
42.1845
 20
30.7592
 10
42.1996
 20
30.7909
 10
42.1996
 20
30.8005
 10
42.1996
 20
33.5993
 10
42.1996
 20
33.6103
 10
42.1845
 20
33.6421
 10
42.1626
 20
33.6379
 10
42.1569
 20
33.6145
 10
42.1887
 20
33.5993
 10
42.1996
 20
33.5993
 10
48
 20
33.5993
 10
48.0095
 20
33.5993
 10
48.0413
 20
33.6145
 10
48.037
 20
33.6379
 10
48.0138
 20
33.6421
 10
48
 20
33.6103
 10
48
 20
33.5993
 10
48
 20
30.8005
 10
48
 20
30.7909
 10
48.0138
 20
30.7592
 10
48.037
 20
30.7633
 10
48.0413
 20
30.7867
 10
48.0095
 20
30.8005
 10
48
 20
30.8005
  0
LWPOLYLINE
  5
52
100
AcDbEntity
  8
0
  6
ByLayer
 62
    5
370
   -1
100
AcDbPolyline
 90
   29
 70
    1
 43
0
 10
57.1003
 20
30.8005
 10
54.1997
 20
30.8005
 10
54.1884
 20
30.8005
 10
54.157
 20
30.7867
 10
54.1623
 20
30.7633
 10
54.1845
 20
30.7592
 10
54.1997
 20
30.7909
 10
54.1997
 20
30.8005
 10
54.1997
 20
33.5993
 10
54.1997
 20
33.6103
 10
54.1845
 20
33.6421
 10
54.1623
 20
33.6379
 10
54.157
 20
33.6145
 10
54.1884
 20
33.5993
 10
54.1997
 20
33.5993
 10
59.9997
 20
33.5993
 10
60.0093
 20
33.5993
 10
60.041
 20
33.6145
 10
60.0371
 20
33.6379
 10
60.0135
 20
33.6421
 10
59.9997
 20
33.6103
 10
59.9997
 20
33.5993
 10
59.9997
 20
30.8005
 10
59.9997
 20
30.7909
 10
60.0135
 20
30.7592
 10
60.0371
 20
30.7633
 10
60.041
 20
30.7867
 10
60.0093
 20
30.8005
 10
59.9997
 20
30.8005
  0
LWPOLYLINE
  5
53
100
AcDbEntity
  8
0
  6
ByLayer
 62
    5
370
   -1
100
AcDbPolyline
 90
   29
 70
    1
 43
0
 10
69.1003
 20
30.8005
 10
66.1995
 20
30.8005
 10
66.1885
 20
30.8005
 10
66.1568
 20
30.7867
 10
66.16240000000001
 20
30.7633
 10
66.18429999999999
 20
30.7592
 10
66.1995
 20
30.7909
 10
66.1995
 20
30.8005
 10
66.1995
 20
33.5993
 10
66.1995
 20
33.6103
 10
66.18429999999999
 20
33.6421
 10
66.16240000000001
 20
33.6379
 10
66.1568
 20
33.6145
 10
66.1885
 20
33.5993
 10
66.1995
 20
33.5993
 10
71.99979999999999
 20
33.5993
 10
72.0094
 20
33.5993
 10
72.0411
 20
33.6145
 10
72.0369
 20
33.6379
 10
72.0136
 20
33.6421
 10
71.99979999999999
 20
33.6103
 10
71.99979999999999
 20
33.5993
 10
71.99979999999999
 20
30.8005
 10
71.99979999999999
 20
30.7909
 10
72.0136
 20
30.7592
 10
72.0369
 20
30.7633
 10
72.0411
 20
30.7867
 10
72.0094
 20
30.8005
 10
71.99979999999999
 20
30.8005
  0
LWPOLYLINE
  5
54
100
AcDbEntity
  8
0
  6
ByLayer
 62
    5
370
   -1
100
AcDbPolyline
 90
   29
 70
    1
 43
0
 10
81.10039999999999
 20
30.8005
 10
78.1995
 20
30.8005
 10
78.18859999999999
 20
30.8005
 10
78.15689999999999
 20
30.7867
 10
78.16249999999999
 20
30.7633
 10
78.1844
 20
30.7592
 10
78.1995
 20
30.7909
 10
78.1995
 20
30.8005
 10
78.1995
 20
33.5993
 10
78.1995
 20
33.6103
 10
78.1844
 20
33.6421
 10
78.16249999999999
 20
33.6379
 10
78.15689999999999
 20
33.6145
 10
78.18859999999999
 20
33.5993
 10
78.1995
 20
33.5993
 10
83.9996
 20
33.5993
 10
84.0094
 20
33.5993
 10
84.0412
 20
33.6145
 10
84.03700000000001
 20
33.6379
 10
84.0133
 20
33.6421
 10
83.9996
 20
33.6103
 10
83.9996
 20
33.5993
 10
83.9996
 20
30.8005
 10
83.9996
 20
30.7909
 10
84.0133
 20
30.7592
 10
84.03700000000001
 20
30.7633
 10
84.0412
 20
30.7867
 10
84.0094
 20
30.8005
 10
83.9996
 20
30.8005
  0
LWPOLYLINE
  5
55
100
AcDbEntity
  8
0
  6
ByLayer
 62
    5
370
   -1
100
AcDbPolyline
 90
   29
 70
    1
 43
0
 10
93.1002
 20
30.8005
 10
90.1996
 20
30.8005
 10
90.1883
 20
30.8005
 10
90.15689999999999
 20
30.7867
 10
90.1622
 20
30.7633
 10
90.1845
 20
30.7592
 10
90.1996
 20
30.7909
 10
90.1996
 20
30.8005
 10
90.1996
 20
33.5993
 10
90.1996
 20
33.6103
 10
90.1845
 20
33.6421
 10
90.1622
 20
33.6379
 10
90.15689999999999
 20
33.6145
 10
90.1883
 20
33.5993
 10
90.1996
 20
33.5993
 10
95.9997
 20
33.5993
 10
96.00920000000001
 20
33.5993
 10
96.04089999999999
 20
33.6145
 10
96.0367
 20
33.6379
 10
96.0134
 20
33.6421
 10
95.9997
 20
33.6103
 10
95.9997
 20
33.5993
 10
95.9997
 20
30.8005
 10
95.9997
 20
30.7909
 10
96.0134
 20
30.7592
 10
96.0367
 20
30.7633
 10
96.04089999999999
 20
30.7867
 10
96.00920000000001
 20
30.8005
 10
95.9997
 20
30.8005
  0
LWPOLYLINE
  5
56
100
AcDbEntity
  8
0
  6
ByLayer
 62
    5
370
   -1
100
AcDbPolyline
 90
   29
 70
    1
 43
0
 10
105.1
 20
30.8005
 10
102.199
 20
30.8005
 10
102.188
 20
30.8005
 10
102.157
 20
30.7867
 10
102.162
 20
30.7633
 10
102.184
 20
30.7592
 10
102.199
 20
30.7909
 10
102.199
 20
30.8005
 10
102.199
 20
33.5993
 10
102.199
 20
33.6103
 10
102.184
 20
33.6421
 10
102.162
 20
33.6379
 10
102.157
 20
33.6145
 10
102.188
 20
33.5993
 10
102.199
 20
33.5993
 10
108
 20
33.5993
 10
108.009
 20
33.5993
 10
108.041
 20
33.6145
 10
108.037
 20
33.6379
 10
108.013
 20
33.6421
 10
108
 20
33.6103
 10
108
 20
33.5993
 10
108
 20
30.8005
 10
108
 20
30.7909
 10
108.013
 20
30.7592
 10
108.037
 20
30.7633
 10
108.041
 20
30.7867
 10
108.009
 20
30.8005
 10
108
 20
30.8005
  0
TEXT
  5
57
100
AcDbEntity
  8
0
  6
ByLayer
 62
    1
370
   -1
100
AcDbText
 10
55.2058
 20
78.3964
 30
0
 40
4.0005
  1
Left Side
 50
0
 41
1
 51
0
  7
STANDARD
 71
    0
210
0
220
0
230
1
100
AcDbText
  0
LWPOLYLINE
  5
58
100
AcDbEntity
  8
0
  6
ByLayer
 62
    0
370
   -1
100
AcDbPolyline
 90
  244
 70
    1
 43
0
 10
13.0996
 20
21.7
 10
25.0996
 20
21.7
 10
25.298
 20
21.7
 10
25.8975
 20
21.7537
 10
26.6788
 20
21.9081
 10
27.4326
 20
22.1644
 10
27.9769
 20
22.4179
 10
28.1506
 20
22.5171
 10
28.3228
 20
22.6177
 10
28.8148
 20
22.9622
 10
29.4128
 20
23.4873
 10
29.9379
 20
24.0853
 10
30.2824
 20
24.5773
 10
30.383
 20
24.7496
 10
30.4794
 20
24.9163
 10
30.8115
 20
25.3931
 10
31.3201
 20
25.9719
 10
31.8988
 20
26.4804
 10
32.3742
 20
26.8139
 10
32.5424
 20
26.9089
 10
32.7091
 20
27.0054
 10
33.2355
 20
27.2521
 10
33.9645
 20
27.4987
 10
34.7197
 20
27.6503
 10
35.2986
 20
27.6999
 10
35.4926
 20
27.6999
 10
90.708
 20
27.6999
 10
90.8995
 20
27.6999
 10
91.47839999999999
 20
27.6503
 10
92.2334
 20
27.4987
 10
92.964
 20
27.2521
 10
93.4903
 20
27.0054
 10
93.65689999999999
 20
26.9089
 10
93.8237
 20
26.8139
 10
94.2993
 20
26.4804
 10
94.8792
 20
25.9719
 10
95.3865
 20
25.3931
 10
95.7213
 20
24.9177
 10
95.8176
 20
24.7496
 10
95.9171
 20
24.5773
 10
96.26139999999999
 20
24.0853
 10
96.7864
 20
23.4873
 10
97.3847
 20
22.9622
 10
97.8764
 20
22.6177
 10
98.05029999999999
 20
22.5171
 10
98.2225
 20
22.4179
 10
98.7668
 20
22.1644
 10
99.5204
 20
21.9081
 10
100.302
 20
21.7537
 10
100.9
 20
21.7
 10
101.1
 20
21.7
 10
113.1
 20
21.7
 10
113.116
 20
21.7
 10
113.17
 20
21.7303
 10
113.2
 20
21.784
 10
113.2
 20
21.8006
 10
113.2
 20
26.7353
 10
113.2
 20
26.7463
 10
113.185
 20
26.7781
 10
113.162
 20
26.7739
 10
113.158
 20
26.7505
 10
113.189
 20
26.7353
 10
113.2
 20
26.7353
 10
116.1
 20
26.7353
 10
116.116
 20
26.7353
 10
116.17
 20
26.7656
 10
116.2
 20
26.8194
 10
116.2
 20
26.8359
 10
116.2
 20
32.8359
 10
116.2
 20
32.8538
 10
116.17
 20
32.9062
 10
116.116
 20
32.9351
 10
116.1
 20
32.9351
 10
113.2
 20
32.9351
 10
113.189
 20
32.9351
 10
113.158
 20
32.9213
 10
113.162
 20
32.8979
 10
113.185
 20
32.8938
 10
113.2
 20
32.9255
 10
113.2
 20
32.9351
 10
113.2
 20
38.7354
 10
113.2
 20
38.7463
 10
113.185
 20
38.778
 10
113.162
 20
38.7738
 10
113.158
 20
38.7505
 10
113.189
 20
38.7354
 10
113.2
 20
38.7354
 10
116.1
 20
38.7354
 10
116.116
 20
38.7354
 10
116.17
 20
38.7657
 10
116.2
 20
38.8193
 10
116.2
 20
38.8359
 10
116.2
 20
44.8359
 10
116.2
 20
44.8539
 10
116.17
 20
44.9076
 10
116.116
 20
44.9365
 10
116.1
 20
44.9365
 10
113.2
 20
44.9365
 10
113.189
 20
44.9365
 10
113.158
 20
44.9227
 10
113.162
 20
44.8991
 10
113.185
 20
44.8952
 10
113.2
 20
44.927
 10
113.2
 20
44.9365
 10
113.2
 20
50.7351
 10
113.2
 20
50.7464
 10
113.185
 20
50.7781
 10
113.162
 20
50.7739
 10
113.158
 20
50.7503
 10
113.189
 20
50.7351
 10
113.2
 20
50.7351
 10
116.1
 20
50.7351
 10
116.116
 20
50.7351
 10
116.17
 20
50.7654
 10
116.2
 20
50.8194
 10
116.2
 20
50.836
 10
116.2
 20
56.8357
 10
116.2
 20
56.8537
 10
116.17
 20
56.9076
 10
116.116
 20
56.9366
 10
116.1
 20
56.9366
 10
113.2
 20
56.9366
 10
113.189
 20
56.9366
 10
113.158
 20
56.9225
 10
113.162
 20
56.8992
 10
113.185
 20
56.8949
 10
113.2
 20
56.9267
 10
113.2
 20
56.9366
 10
113.2
 20
61.8712
 10
113.2
 20
63.8006
 10
113.2
 20
63.8168
 10
113.18
 20
63.8598
 10
113.177
 20
63.8637
 10
54.4393
 20
133.864
 10
54.434
 20
133.871
 10
54.38
 20
133.9
 10
54.3638
 20
133.9
 10
52.0651
 20
133.9
 10
47.6829
 20
133.9
 10
47.6719
 20
133.9
 10
47.6402
 20
133.886
 10
47.6444
 20
133.863
 10
47.6677
 20
133.858
 10
47.6829
 20
133.89
 10
47.6829
 20
133.9
 10
47.6829
 20
136.801
 10
47.6829
 20
136.819
 10
47.6525
 20
136.871
 10
47.5989
 20
136.9
 10
47.5823
 20
136.9
 10
41.5823
 20
136.9
 10
41.5643
 20
136.9
 10
41.5121
 20
136.871
 10
41.4831
 20
136.819
 10
41.4831
 20
136.801
 10
41.4831
 20
133.9
 10
41.4831
 20
133.89
 10
41.4969
 20
133.858
 10
41.5202
 20
133.863
 10
41.5244
 20
133.886
 10
41.4927
 20
133.9
 10
41.4831
 20
133.9
 10
35.6828
 20
133.9
 10
35.6718
 20
133.9
 10
35.6401
 20
133.886
 10
35.6443
 20
133.863
 10
35.6676
 20
133.858
 10
35.6828
 20
133.89
 10
35.6828
 20
133.9
 10
35.6828
 20
136.801
 10
35.6828
 20
136.819
 10
35.6528
 20
136.871
 10
35.5988
 20
136.9
 10
35.5822
 20
136.9
 10
29.5824
 20
136.9
 10
29.5644
 20
136.9
 10
29.5107
 20
136.871
 10
29.4817
 20
136.819
 10
29.4817
 20
136.801
 10
29.4817
 20
133.9
 10
29.4817
 20
133.89
 10
29.4955
 20
133.858
 10
29.519
 20
133.863
 10
29.5231
 20
133.886
 10
29.4914
 20
133.9
 10
29.4817
 20
133.9
 10
23.683
 20
133.9
 10
23.672
 20
133.9
 10
23.6402
 20
133.886
 10
23.6444
 20
133.863
 10
23.6678
 20
133.858
 10
23.683
 20
133.89
 10
23.683
 20
133.9
 10
23.683
 20
136.801
 10
23.683
 20
136.819
 10
23.6527
 20
136.871
 10
23.5989
 20
136.9
 10
23.5824
 20
136.9
 10
17.5824
 20
136.9
 10
17.5645
 20
136.9
 10
17.5121
 20
136.871
 10
17.4832
 20
136.819
 10
17.4832
 20
136.801
 10
17.4832
 20
133.9
 10
17.4832
 20
133.89
 10
17.497
 20
133.858
 10
17.5204
 20
133.863
 10
17.5245
 20
133.886
 10
17.4928
 20
133.9
 10
17.4832
 20
133.9
 10
13.0996
 20
133.9
 10
13.0817
 20
133.9
 10
13.0294
 20
133.871
 10
13.0004
 20
133.818
 10
13.0004
 20
133.801
 10
13.0004
 20
36.8004
 10
13.0004
 20
32.4005
 10
13.0004
 20
32.3908
 10
13.0142
 20
32.3591
 10
13.0376
 20
32.3632
 10
13.0418
 20
32.3867
 10
13.0101
 20
32.4005
 10
13.0004
 20
32.4005
 10
10.0996
 20
32.4005
 10
10.0817
 20
32.4005
 10
10.0294
 20
32.3715
 10
10.0004
 20
32.3178
 10
10.0004
 20
32.2998
 10
10.0004
 20
26.2999
 10
10.0004
 20
26.2833
 10
10.0294
 20
26.2296
 10
10.0817
 20
26.2006
 10
10.0996
 20
26.2006
 10
13.0004
 20
26.2006
 10
13.0101
 20
26.2006
 10
13.0418
 20
26.2158
 10
13.0376
 20
26.2378
 10
13.0142
 20
26.2434
 10
13.0004
 20
26.2117
 10
13.0004
 20
26.2006
 10
13.0004
 20
21.8006
 10
13.0004
 20
21.784
 10
13.0294
 20
21.7303
 10
13.0817
 20
21.7
  0
LWPOLYLINE
  5
59
100
AcDbEntity
  8
0
  6
ByLayer
 62
    5
370
   -1
100
AcDbPolyline
 90
   29
 70
    1
 43
0
 10
105.074
 20
68.8139
 10
107.421
 20
66.01779999999999
 10
107.426
 20
66.0107
 10
107.458
 20
65.9956
 10
107.472
 20
66.01349999999999
 10
107.461
 20
66.03579999999999
 10
107.428
 20
66.0245
 10
107.421
 20
66.01779999999999
 10
105.161
 20
64.1216
 10
105.152
 20
64.116
 10
105.136
 20
64.0842
 10
105.155
 20
64.07040000000001
 10
105.176
 20
64.0814
 10
105.166
 20
64.11450000000001
 10
105.161
 20
64.1216
 10
100.469
 20
69.7135
 10
100.462
 20
69.72190000000001
 10
100.43
 20
69.7385
 10
100.415
 20
69.7191
 10
100.426
 20
69.6983
 10
100.461
 20
69.70820000000001
 10
100.469
 20
69.7135
 10
102.729
 20
71.6097
 10
102.736
 20
71.61669999999999
 10
102.751
 20
71.6485
 10
102.733
 20
71.6636
 10
102.711
 20
71.6523
 10
102.722
 20
71.6181
 10
102.729
 20
71.6097
  0
LWPOLYLINE
  5
5A
100
AcDbEntity
  8
0
  6
ByLayer
 62
    5
370
   -1
100
AcDbPolyline
 90
   29
 70
    1
 43
0
 10
57.9078
 20
125.025
 10
60.2534
 20
122.229
 10
60.259
 20
122.222
 10
60.2904
 20
122.207
 10
60.3056
 20
122.225
 10
60.2947
 20
122.247
 10
60.2615
 20
122.236
 10
60.2534
 20
122.229
 10
57.9935
 20
120.333
 10
57.985
 20
120.328
 10
57.9699
 20
120.296
 10
57.9893
 20
120.282
 10
58.0101
 20
120.293
 10
57.9988
 20
120.326
 10
57.9935
 20
120.333
 10
53.3012
 20
125.925
 10
53.2941
 20
125.934
 10
53.2624
 20
125.95
 10
53.2476
 20
125.931
 10
53.2599
 20
125.91
 10
53.2927
 20
125.92
 10
53.3012
 20
125.925
 10
55.5611
 20
127.821
 10
55.5681
 20
127.828
 10
55.5847
 20
127.86
 10
55.5653
 20
127.875
 10
55.5445
 20
127.864
 10
55.5544
 20
127.83
 10
55.5611
 20
127.821
  0
LWPOLYLINE
  5
5B
100
AcDbEntity
  8
0
  6
ByLayer
 62
    5
370
   -1
100
AcDbPolyline
 90
   29
 70
    1
 43
0
 10
16.0996
 20
115.801
 10
16.0996
 20
117.35
 10
16.0996
 20
117.361
 10
16.0845
 20
117.392
 10
16.0624
 20
117.388
 10
16.0569
 20
117.365
 10
16.0886
 20
117.35
 10
16.0996
 20
117.35
 10
19.2002
 20
117.35
 10
19.2098
 20
117.35
 10
19.2416
 20
117.365
 10
19.2374
 20
117.388
 10
19.214
 20
117.392
 10
19.2002
 20
117.361
 10
19.2002
 20
117.35
 10
19.2002
 20
114.25
 10
19.2002
 20
114.241
 10
19.214
 20
114.209
 10
19.2374
 20
114.213
 10
19.2416
 20
114.237
 10
19.2098
 20
114.25
 10
19.2002
 20
114.25
 10
16.0996
 20
114.25
 10
16.0886
 20
114.25
 10
16.0569
 20
114.237
 10
16.0624
 20
114.213
 10
16.0845
 20
114.209
 10
16.0996
 20
114.241
 10
16.0996
 20
114.25
  0
LWPOLYLINE
  5
5C
100
AcDbEntity
  8
0
  6
ByLayer
 62
    5
370
   -1
100
AcDbPolyline
 90
   29
 70
    1
 43
0
 10
128.8
 20
30.8005
 10
125.9
 20
30.8005
 10
125.889
 20
30.8005
 10
125.858
 20
30.7867
 10
125.862
 20
30.7633
 10
125.885
 20
30.7592
 10
125.9
 20
30.7909
 10
125.9
 20
30.8005
 10
125.9
 20
33.5993
 10
125.9
 20
33.6103
 10
125.885
 20
33.6421
 10
125.862
 20
33.6379
 10
125.858
 20
33.6145
 10
125.889
 20
33.5993
 10
125.9
 20
33.5993
 10
131.7
 20
33.5993
 10
131.71
 20
33.5993
 10
131.742
 20
33.6145
 10
131.738
 20
33.6379
 10
131.714
 20
33.6421
 10
131.7
 20
33.6103
 10
131.7
 20
33.5993
 10
131.7
 20
30.8005
 10
131.7
 20
30.7909
 10
131.714
 20
30.7592
 10
131.738
 20
30.7633
 10
131.742
 20
30.7867
 10
131.71
 20
30.8005
 10
131.7
 20
30.8005
  0
LWPOLYLINE
  5
5D
100
AcDbEntity
  8
0
  6
ByLayer
 62
    5
370
   -1
100
AcDbPolyline
 90
   29
 70
    1
 43
0
 10
140.8
 20
30.8005
 10
137.9
 20
30.8005
 10
137.889
 20
30.8005
 10
137.857
 20
30.7867
 10
137.862
 20
30.7633
 10
137.885
 20
30.7592
 10
137.9
 20
30.7909
 10
137.9
 20
30.8005
 10
137.9
 20
33.5993
 10
137.9
 20
33.6103
 10
137.885
 20
33.6421
 10
137.862
 20
33.6379
 10
137.857
 20
33.6145
 10
137.889
 20
33.5993
 10
137.9
 20
33.5993
 10
143.7
 20
33.5993
 10
143.71
 20
33.5993
 10
143.742
 20
33.6145
 10
143.738
 20
33.6379
 10
143.714
 20
33.6421
 10
143.7
 20
33.6103
 10
143.7
 20
33.5993
 10
143.7
 20
30.8005
 10
143.7
 20
30.7909
 10
143.714
 20
30.7592
 10
143.738
 20
30.7633
 10
143.742
 20
30.7867
 10
143.71
 20
30.8005
 10
143.7
 20
30.8005
  0
LWPOLYLINE
  5
5E
100
AcDbEntity
  8
0
  6
ByLayer
 62
    5
370
   -1
100
AcDbPolyline
 90
   29
 70
    1
 43
0
 10
152.8
 20
30.8005
 10
149.9
 20
30.8005
 10
149.889
 20
30.8005
 10
149.858
 20
30.7867
 10
149.862
 20
30.7633
 10
149.885
 20
30.7592
 10
149.9
 20
30.7909
 10
149.9
 20
30.8005
 10
149.9
 20
33.5993
 10
149.9
 20
33.6103
 10
149.885
 20
33.6421
 10
149.862
 20
33.6379
 10
149.858
 20
33.6145
 10
149.889
 20
33.5993
 10
149.9
 20
33.5993
 10
155.7
 20
33.5993
 10
155.71
 20
33.5993
 10
155.742
 20
33.6145
 10
155.738
 20
33.6379
 10
155.714
 20
33.6421
 10
155.7
 20
33.6103
 10
155.7
 20
33.5993
 10
155.7
 20
30.8005
 10
155.7
 20
30.7909
 10
155.714
 20
30.7592
 10
155.738
 20
30.7633
 10
155.742
 20
30.7867
 10
155.71
 20
30.8005
 10
155.7
 20
30.8005
  0
LWPOLYLINE
  5
5F
100
AcDbEntity
  8
0
  6
ByLayer
 62
    5
370
   -1
100
AcDbPolyline
 90
   29
 70
    1
 43
0
 10
164.799
 20
30.8005
 10
161.9
 20
30.8005
 10
161.889
 20
30.8005
 10
161.858
 20
30.7867
 10
161.862
 20
30.7633
 10
161.885
 20
30.7592
 10
161.9
 20
30.7909
 10
161.9
 20
30.8005
 10
161.9
 20
33.5993
 10
161.9
 20
33.6103
 10
161.885
 20
33.6421
 10
161.862
 20
33.6379
 10
161.858
 20
33.6145
 10
161.889
 20
33.5993
 10
161.9
 20
33.5993
 10
167.7
 20
33.5993
 10
167.71
 20
33.5993
 10
167.742
 20
33.6145
 10
167.738
 20
33.6379
 10
167.714
 20
33.6421
 10
167.7
 20
33.6103
 10
167.7
 20
33.5993
 10
167.7
 20
30.8005
 10
167.7
 20
30.7909
 10
167.714
 20
30.7592
 10
167.738
 20
30.7633
 10
167.742
 20
30.7867
 10
167.71
 20
30.8005
 10
167.7
 20
30.8005
  0
LWPOLYLINE
  5
60
100
AcDbEntity
  8
0
  6
ByLayer
 62
    5
370
   -1
100
AcDbPolyline
 90
   29
 70
    1
 43
0
 10
176.8
 20
30.8005
 10
173.9
 20
30.8005
 10
173.889
 20
30.8005
 10
173.857
 20
30.7867
 10
173.862
 20
30.7633
 10
173.885
 20
30.7592
 10
173.9
 20
30.7909
 10
173.9
 20
30.8005
 10
173.9
 20
33.5993
 10
173.9
 20
33.6103
 10
173.885
 20
33.6421
 10
173.862
 20
33.6379
 10
173.857
 20
33.6145
 10
173.889
 20
33.5993
 10
173.9
 20
33.5993
 10
179.7
 20
33.5993
 10
179.71
 20
33.5993
 10
179.742
 20
33.6145
 10
179.737
 20
33.6379
 10
179.714
 20
33.6421
 10
179.7
 20
33.6103
 10
179.7
 20
33.5993
 10
179.7
 20
30.8005
 10
179.7
 20
30.7909
 10
179.714
 20
30.7592
 10
179.737
 20
30.7633
 10
179.742
 20
30.7867
 10
179.71
 20
30.8005
 10
179.7
 20
30.8005
  0
LWPOLYLINE
  5
61
100
AcDbEntity
  8
0
  6
ByLayer
 62
    5
370
   -1
100
AcDbPolyline
 90
   29
 70
    1
 43
0
 10
188.8
 20
30.8005
 10
185.9
 20
30.8005
 10
185.889
 20
30.8005
 10
185.857
 20
30.7867
 10
185.862
 20
30.7633
 10
185.885
 20
30.7592
 10
185.9
 20
30.7909
 10
185.9
 20
30.8005
 10
185.9
 20
33.5993
 10
185.9
 20
33.6103
 10
185.885
 20
33.6421
 10
185.862
 20
33.6379
 10
185.857
 20
33.6145
 10
185.889
 20
33.5993
 10
185.9
 20
33.5993
 10
191.7
 20
33.5993
 10
191.71
 20
33.5993
 10
191.742
 20
33.6145
 10
191.738
 20
33.6379
 10
191.714
 20
33.6421
 10
191.7
 20
33.6103
 10
191.7
 20
33.5993
 10
191.7
 20
30.8005
 10
191.7
 20
30.7909
 10
191.714
 20
30.7592
 10
191.738
 20
30.7633
 10
191.742
 20
30.7867
 10
191.71
 20
30.8005
 10
191.7
 20
30.8005
  0
LWPOLYLINE
  5
62
100
AcDbEntity
  8
0
  6
ByLayer
 62
    5
370
   -1
100
AcDbPolyline
 90
   29
 70
    1
 43
0
 10
200.799
 20
30.8005
 10
197.9
 20
30.8005
 10
197.889
 20
30.8005
 10
197.857
 20
30.7867
 10
197.861
 20
30.7633
 10
197.885
 20
30.7592
 10
197.9
 20
30.7909
 10
197.9
 20
30.8005
 10
197.9
 20
33.5993
 10
197.9
 20
33.6103
 10
197.885
 20
33.6421
 10
197.861
 20
33.6379
 10
197.857
 20
33.6145
 10
197.889
 20
33.5993
 10
197.9
 20
33.5993
 10
203.7
 20
33.5993
 10
203.71
 20
33.5993
 10
203.742
 20
33.6145
 10
203.737
 20
33.6379
 10
203.714
 20
33.6421
 10
203.7
 20
33.6103
 10
203.7
 20
33.5993
 10
203.7
 20
30.8005
 10
203.7
 20
30.7909
 10
203.714
 20
30.7592
 10
203.737
 20
30.7633
 10
203.742
 20
30.7867
 10
203.71
 20
30.8005
 10
203.7
 20
30.8005
  0
LWPOLYLINE
  5
63
100
AcDbEntity
  8
0
  6
ByLayer
 62
    5
370
   -1
100
AcDbPolyline
 90
   29
 70
    1
 43
0
 10
212.801
 20
30.8005
 10
209.9
 20
30.8005
 10
209.889
 20
30.8005
 10
209.857
 20
30.7867
 10
209.863
 20
30.7633
 10
209.885
 20
30.7592
 10
209.9
 20
30.7909
 10
209.9
 20
30.8005
 10
209.9
 20
33.5993
 10
209.9
 20
33.6103
 10
209.885
 20
33.6421
 10
209.863
 20
33.6379
 10
209.857
 20
33.6145
 10
209.889
 20
33.5993
 10
209.9
 20
33.5993
 10
215.7
 20
33.5993
 10
215.71
 20
33.5993
 10
215.742
 20
33.6145
 10
215.737
 20
33.6379
 10
215.714
 20
33.6421
 10
215.7
 20
33.6103
 10
215.7
 20
33.5993
 10
215.7
 20
30.8005
 10
215.7
 20
30.7909
 10
215.714
 20
30.7592
 10
215.737
 20
30.7633
 10
215.742
 20
30.7867
 10
215.71
 20
30.8005
 10
215.7
 20
30.8005
  0
TEXT
  5
64
100
AcDbEntity
  8
0
  6
ByLayer
 62
    1
370
   -1
100
AcDbText
 10
161.575
 20
78.3964
 30
0
 40
4.0005
  1
Right Side
 50
0
 41
1
 51
0
  7
STANDARD
 71
    0
210
0
220
0
230
1
100
AcDbText
  0
LWPOLYLINE
  5
65
100
AcDbEntity
  8
0
  6
ByLayer
 62
    0
370
   -1
100
AcDbPolyline
 90
  244
 70
    1
 43
0
 10
120.8
 20
21.7
 10
132.8
 20
21.7
 10
132.999
 20
21.7
 10
133.597
 20
21.7537
 10
134.378
 20
21.9081
 10
135.132
 20
22.1644
 10
135.676
 20
22.4179
 10
135.85
 20
22.5171
 10
136.022
 20
22.6177
 10
136.514
 20
22.9622
 10
137.112
 20
23.4873
 10
137.637
 20
24.0853
 10
137.982
 20
24.5773
 10
138.082
 20
24.7496
 10
138.179
 20
24.9177
 10
138.512
 20
25.3931
 10
139.019
 20
25.9719
 10
139.598
 20
26.4804
 10
140.075
 20
26.8139
 10
140.242
 20
26.9089
 10
140.408
 20
27.0054
 10
140.935
 20
27.2521
 10
141.665
 20
27.4987
 10
142.42
 20
27.6503
 10
142.999
 20
27.6999
 10
143.192
 20
27.6999
 10
198.409
 20
27.6999
 10
198.6
 20
27.6999
 10
199.179
 20
27.6503
 10
199.934
 20
27.4987
 10
200.663
 20
27.2521
 10
201.19
 20
27.0054
 10
201.357
 20
26.9089
 10
201.524
 20
26.8139
 10
202
 20
26.4804
 10
202.578
 20
25.9719
 10
203.087
 20
25.3931
 10
203.42
 20
24.9177
 10
203.517
 20
24.7496
 10
203.616
 20
24.5773
 10
203.961
 20
24.0853
 10
204.486
 20
23.4873
 10
205.085
 20
22.9622
 10
205.576
 20
22.6177
 10
205.75
 20
22.5171
 10
205.922
 20
22.4179
 10
206.466
 20
22.1644
 10
207.221
 20
21.9081
 10
208.001
 20
21.7537
 10
208.601
 20
21.7
 10
208.8
 20
21.7
 10
220.8
 20
21.7
 10
220.817
 20
21.7
 10
220.871
 20
21.7303
 10
220.9
 20
21.784
 10
220.9
 20
21.8006
 10
220.9
 20
26.7353
 10
220.9
 20
26.7463
 10
220.884
 20
26.7781
 10
220.862
 20
26.7739
 10
220.857
 20
26.7505
 10
220.889
 20
26.7353
 10
220.9
 20
26.7353
 10
223.8
 20
26.7353
 10
223.817
 20
26.7353
 10
223.871
 20
26.7656
 10
223.9
 20
26.8194
 10
223.9
 20
26.8359
 10
223.9
 20
32.8359
 10
223.9
 20
32.8538
 10
223.871
 20
32.9062
 10
223.817
 20
32.9351
 10
223.8
 20
32.9351
 10
220.9
 20
32.9351
 10
220.889
 20
32.9351
 10
220.857
 20
32.9213
 10
220.862
 20
32.8979
 10
220.884
 20
32.8938
 10
220.9
 20
32.9255
 10
220.9
 20
32.9351
 10
220.9
 20
38.7354
 10
220.9
 20
38.7463
 10
220.884
 20
38.778
 10
220.862
 20
38.7738
 10
220.857
 20
38.7505
 10
220.889
 20
38.7354
 10
220.9
 20
38.7354
 10
223.8
 20
38.7354
 10
223.817
 20
38.7354
 10
223.871
 20
38.7657
 10
223.9
 20
38.8193
 10
223.9
 20
38.8359
 10
223.9
 20
44.8359
 10
223.9
 20
44.8539
 10
223.871
 20
44.9076
 10
223.817
 20
44.9365
 10
223.8
 20
44.9365
 10
220.9
 20
44.9365
 10
220.889
 20
44.9365
 10
220.857
 20
44.9227
 10
220.862
 20
44.8991
 10
220.884
 20
44.8952
 10
220.9
 20
44.927
 10
220.9
 20
44.9365
 10
220.9
 20
50.7351
 10
220.9
 20
50.7464
 10
220.884
 20
50.7781
 10
220.862
 20
50.7739
 10
220.857
 20
50.7503
 10
220.889
 20
50.7351
 10
220.9
 20
50.7351
 10
223.8
 20
50.7351
 10
223.817
 20
50.7351
 10
223.871
 20
50.7654
 10
223.9
 20
50.8194
 10
223.9
 20
50.836
 10
223.9
 20
56.8357
 10
223.9
 20
56.8537
 10
223.871
 20
56.9076
 10
223.817
 20
56.9366
 10
223.8
 20
56.9366
 10
220.9
 20
56.9366
 10
220.889
 20
56.9366
 10
220.857
 20
56.9225
 10
220.862
 20
56.8992
 10
220.884
 20
56.8949
 10
220.9
 20
56.9267
 10
220.9
 20
56.9366
 10
220.9
 20
61.8712
 10
220.9
 20
63.8006
 10
220.9
 20
63.8168
 10
220.879
 20
63.8598
 10
220.876
 20
63.8637
 10
162.14
 20
133.864
 10
162.135
 20
133.871
 10
162.081
 20
133.9
 10
162.063
 20
133.9
 10
159.766
 20
133.9
 10
155.382
 20
133.9
 10
155.371
 20
133.9
 10
155.339
 20
133.886
 10
155.345
 20
133.863
 10
155.367
 20
133.858
 10
155.382
 20
133.89
 10
155.382
 20
133.9
 10
155.382
 20
136.801
 10
155.382
 20
136.819
 10
155.353
 20
136.871
 10
155.299
 20
136.9
 10
155.283
 20
136.9
 10
149.283
 20
136.9
 10
149.265
 20
136.9
 10
149.211
 20
136.871
 10
149.182
 20
136.819
 10
149.182
 20
136.801
 10
149.182
 20
133.9
 10
149.182
 20
133.89
 10
149.196
 20
133.858
 10
149.219
 20
133.863
 10
149.224
 20
133.886
 10
149.192
 20
133.9
 10
149.182
 20
133.9
 10
143.382
 20
133.9
 10
143.371
 20
133.9
 10
143.339
 20
133.886
 10
143.345
 20
133.863
 10
143.367
 20
133.858
 10
143.382
 20
133.89
 10
143.382
 20
133.9
 10
143.382
 20
136.801
 10
143.382
 20
136.819
 10
143.353
 20
136.871
 10
143.299
 20
136.9
 10
143.283
 20
136.9
 10
137.283
 20
136.9
 10
137.265
 20
136.9
 10
137.211
 20
136.871
 10
137.182
 20
136.819
 10
137.182
 20
136.801
 10
137.182
 20
133.9
 10
137.182
 20
133.89
 10
137.196
 20
133.858
 10
137.22
 20
133.863
 10
137.224
 20
133.886
 10
137.192
 20
133.9
 10
137.182
 20
133.9
 10
131.382
 20
133.9
 10
131.371
 20
133.9
 10
131.34
 20
133.886
 10
131.345
 20
133.863
 10
131.367
 20
133.858
 10
131.382
 20
133.89
 10
131.382
 20
133.9
 10
131.382
 20
136.801
 10
131.382
 20
136.819
 10
131.353
 20
136.871
 10
131.3
 20
136.9
 10
131.283
 20
136.9
 10
125.283
 20
136.9
 10
125.265
 20
136.9
 10
125.211
 20
136.871
 10
125.182
 20
136.819
 10
125.182
 20
136.801
 10
125.182
 20
133.9
 10
125.182
 20
133.89
 10
125.196
 20
133.858
 10
125.22
 20
133.863
 10
125.224
 20
133.886
 10
125.192
 20
133.9
 10
125.182
 20
133.9
 10
120.8
 20
133.9
 10
120.782
 20
133.9
 10
120.729
 20
133.871
 10
120.7
 20
133.818
 10
120.7
 20
133.801
 10
120.7
 20
36.8004
 10
120.7
 20
32.4005
 10
120.7
 20
32.3908
 10
120.713
 20
32.3591
 10
120.737
 20
32.3632
 10
120.741
 20
32.3867
 10
120.709
 20
32.4005
 10
120.7
 20
32.4005
 10
117.8
 20
32.4005
 10
117.782
 20
32.4005
 10
117.729
 20
32.3715
 10
117.7
 20
32.3178
 10
117.7
 20
32.2998
 10
117.7
 20
26.2999
 10
117.7
 20
26.2833
 10
117.729
 20
26.2296
 10
117.782
 20
26.2006
 10
117.8
 20
26.2006
 10
120.7
 20
26.2006
 10
120.709
 20
26.2006
 10
120.741
 20
26.2158
 10
120.737
 20
26.2378
 10
120.713
 20
26.2434
 10
120.7
 20
26.2117
 10
120.7
 20
26.2006
 10
120.7
 20
21.8006
 10
120.7
 20
21.784
 10
120.729
 20
21.7303
 10
120.782
 20
21.7
  0
LWPOLYLINE
  5
66
100
AcDbEntity
  8
0
  6
ByLayer
 62
    5
370
   -1
100
AcDbPolyline
 90
   29
 70
    1
 43
0
 10
212.775
 20
68.8139
 10
215.12
 20
66.01779999999999
 10
215.126
 20
66.0107
 10
215.157
 20
65.9956
 10
215.173
 20
66.01349999999999
 10
215.161
 20
66.03579999999999
 10
215.128
 20
66.0245
 10
215.12
 20
66.01779999999999
 10
212.86
 20
64.1216
 10
212.852
 20
64.116
 10
212.836
 20
64.0842
 10
212.856
 20
64.07040000000001
 10
212.877
 20
64.0814
 10
212.865
 20
64.11450000000001
 10
212.86
 20
64.1216
 10
208.168
 20
69.7135
 10
208.161
 20
69.72190000000001
 10
208.129
 20
69.7385
 10
208.116
 20
69.7191
 10
208.127
 20
69.6983
 10
208.16
 20
69.70820000000001
 10
208.168
 20
69.7135
 10
210.428
 20
71.6097
 10
210.435
 20
71.61669999999999
 10
210.451
 20
71.6485
 10
210.432
 20
71.6636
 10
210.411
 20
71.6523
 10
210.421
 20
71.6181
 10
210.428
 20
71.6097
  0
LWPOLYLINE
  5
67
100
AcDbEntity
  8
0
  6
ByLayer
 62
    5
370
   -1
100
AcDbPolyline
 90
   29
 70
    1
 43
0
 10
165.607
 20
125.025
 10
167.954
 20
122.229
 10
167.959
 20
122.222
 10
167.991
 20
122.207
 10
168.005
 20
122.225
 10
167.994
 20
122.247
 10
167.961
 20
122.236
 10
167.954
 20
122.229
 10
165.694
 20
120.333
 10
165.686
 20
120.328
 10
165.669
 20
120.296
 10
165.688
 20
120.282
 10
165.709
 20
120.293
 10
165.699
 20
120.326
 10
165.694
 20
120.333
 10
161.002
 20
125.925
 10
160.995
 20
125.934
 10
160.963
 20
125.95
 10
160.948
 20
125.931
 10
160.959
 20
125.91
 10
160.993
 20
125.92
 10
161.002
 20
125.925
 10
163.262
 20
127.821
 10
163.269
 20
127.828
 10
163.284
 20
127.86
 10
163.266
 20
127.875
 10
163.244
 20
127.864
 10
163.255
 20
127.83
 10
163.262
 20
127.821
  0
LWPOLYLINE
  5
68
100
AcDbEntity
  8
0
  6
ByLayer
 62
    5
370
   -1
100
AcDbPolyline
 90
   29
 70
    1
 43
0
 10
123.8
 20
115.801
 10
123.8
 20
117.35
 10
123.8
 20
117.361
 10
123.785
 20
117.392
 10
123.762
 20
117.388
 10
123.758
 20
117.365
 10
123.789
 20
117.35
 10
123.8
 20
117.35
 10
126.901
 20
117.35
 10
126.91
 20
117.35
 10
126.942
 20
117.365
 10
126.938
 20
117.388
 10
126.915
 20
117.392
 10
126.901
 20
117.361
 10
126.901
 20
117.35
 10
126.901
 20
114.25
 10
126.901
 20
114.241
 10
126.915
 20
114.209
 10
126.938
 20
114.213
 10
126.942
 20
114.237
 10
126.91
 20
114.25
 10
126.901
 20
114.25
 10
123.8
 20
114.25
 10
123.789
 20
114.25
 10
123.758
 20
114.237
 10
123.762
 20
114.213
 10
123.785
 20
114.209
 10
123.8
 20
114.241
 10
123.8
 20
114.25
  0
TEXT
  5
69
100
AcDbEntity
  8
0
  6
ByLayer
 62
    1
370
   -1
100
AcDbText
 10
273.945
 20
73.8964
 30
0
 40
4.0005
  1
Floor
 50
0
 41
1
 51
0
  7
STANDARD
 71
    0
210
0
220
0
230
1
100
AcDbText
  0
LWPOLYLINE
  5
6A
100
AcDbEntity
  8
0
  6
ByLayer
 62
    0
370
   -1
100
AcDbPolyline
 90
  788
 70
    1
 43
0
 10
228.501
 20
24.6999
 10
233.4
 20
24.6999
 10
233.409
 20
24.6999
 10
233.441
 20
24.7151
 10
233.437
 20
24.7385
 10
233.414
 20
24.7427
 10
233.4
 20
24.711
 10
233.4
 20
24.6999
 10
233.4
 20
21.8006
 10
233.4
 20
21.784
 10
233.429
 20
21.7303
 10
233.482
 20
21.7
 10
233.5
 20
21.7
 10
239.5
 20
21.7
 10
239.517
 20
21.7
 10
239.571
 20
21.7303
 10
239.6
 20
21.784
 10
239.6
 20
21.8006
 10
239.6
 20
24.6999
 10
239.6
 20
24.711
 10
239.584
 20
24.7427
 10
239.562
 20
24.7385
 10
239.557
 20
24.7151
 10
239.588
 20
24.6999
 10
239.6
 20
24.6999
 10
245.4
 20
24.6999
 10
245.409
 20
24.6999
 10
245.441
 20
24.7151
 10
245.437
 20
24.7385
 10
245.413
 20
24.7427
 10
245.4
 20
24.711
 10
245.4
 20
24.6999
 10
245.4
 20
21.8006
 10
245.4
 20
21.784
 10
245.429
 20
21.7303
 10
245.482
 20
21.7
 10
245.5
 20
21.7
 10
251.5
 20
21.7
 10
251.517
 20
21.7
 10
251.57
 20
21.7303
 10
251.599
 20
21.784
 10
251.599
 20
21.8006
 10
251.599
 20
24.6999
 10
251.599
 20
24.711
 10
251.584
 20
24.7427
 10
251.562
 20
24.7385
 10
251.557
 20
24.7151
 10
251.588
 20
24.6999
 10
251.599
 20
24.6999
 10
257.4
 20
24.6999
 10
257.409
 20
24.6999
 10
257.441
 20
24.7151
 10
257.437
 20
24.7385
 10
257.413
 20
24.7427
 10
257.4
 20
24.711
 10
257.4
 20
24.6999
 10
257.4
 20
21.8006
 10
257.4
 20
21.784
 10
257.429
 20
21.7303
 10
257.482
 20
21.7
 10
257.5
 20
21.7
 10
263.5
 20
21.7
 10
263.517
 20
21.7
 10
263.571
 20
21.7303
 10
263.601
 20
21.784
 10
263.601
 20
21.8006
 10
263.601
 20
24.6999
 10
263.601
 20
24.711
 10
263.586
 20
24.7427
 10
263.562
 20
24.7385
 10
263.558
 20
24.7151
 10
263.59
 20
24.6999
 10
263.601
 20
24.6999
 10
269.399
 20
24.6999
 10
269.409
 20
24.6999
 10
269.441
 20
24.7151
 10
269.437
 20
24.7385
 10
269.413
 20
24.7427
 10
269.399
 20
24.711
 10
269.399
 20
24.6999
 10
269.399
 20
21.8006
 10
269.399
 20
21.784
 10
269.428
 20
21.7303
 10
269.482
 20
21.7
 10
269.5
 20
21.7
 10
275.5
 20
21.7
 10
275.517
 20
21.7
 10
275.571
 20
21.7303
 10
275.6
 20
21.784
 10
275.6
 20
21.8006
 10
275.6
 20
24.6999
 10
275.6
 20
24.711
 10
275.584
 20
24.7427
 10
275.562
 20
24.7385
 10
275.556
 20
24.7151
 10
275.588
 20
24.6999
 10
275.6
 20
24.6999
 10
281.4
 20
24.6999
 10
281.409
 20
24.6999
 10
281.441
 20
24.7151
 10
281.437
 20
24.7385
 10
281.413
 20
24.7427
 10
281.4
 20
24.711
 10
281.4
 20
24.6999
 10
281.4
 20
21.8006
 10
281.4
 20
21.784
 10
281.428
 20
21.7303
 10
281.482
 20
21.7
 10
281.5
 20
21.7
 10
287.5
 20
21.7
 10
287.517
 20
21.7
 10
287.57
 20
21.7303
 10
287.599
 20
21.784
 10
287.599
 20
21.8006
 10
287.599
 20
24.6999
 10
287.599
 20
24.711
 10
287.584
 20
24.7427
 10
287.562
 20
24.7385
 10
287.557
 20
24.7151
 10
287.588
 20
24.6999
 10
287.599
 20
24.6999
 10
293.4
 20
24.6999
 10
293.409
 20
24.6999
 10
293.441
 20
24.7151
 10
293.437
 20
24.7385
 10
293.413
 20
24.7427
 10
293.4
 20
24.711
 10
293.4
 20
24.6999
 10
293.4
 20
21.8006
 10
293.4
 20
21.784
 10
293.429
 20
21.7303
 10
293.482
 20
21.7
 10
293.5
 20
21.7
 10
299.5
 20
21.7
 10
299.516
 20
21.7
 10
299.57
 20
21.7303
 10
299.601
 20
21.784
 10
299.601
 20
21.8006
 10
299.601
 20
24.6999
 10
299.601
 20
24.711
 10
299.586
 20
24.7427
 10
299.562
 20
24.7385
 10
299.558
 20
24.7151
 10
299.589
 20
24.6999
 10
299.601
 20
24.6999
 10
305.399
 20
24.6999
 10
305.409
 20
24.6999
 10
305.441
 20
24.7151
 10
305.437
 20
24.7385
 10
305.413
 20
24.7427
 10
305.399
 20
24.711
 10
305.399
 20
24.6999
 10
305.399
 20
21.8006
 10
305.399
 20
21.784
 10
305.428
 20
21.7303
 10
305.482
 20
21.7
 10
305.5
 20
21.7
 10
311.5
 20
21.7
 10
311.517
 20
21.7
 10
311.57
 20
21.7303
 10
311.6
 20
21.784
 10
311.6
 20
21.8006
 10
311.6
 20
24.6999
 10
311.6
 20
24.711
 10
311.585
 20
24.7427
 10
311.562
 20
24.7385
 10
311.558
 20
24.7151
 10
311.59
 20
24.6999
 10
311.6
 20
24.6999
 10
317.401
 20
24.6999
 10
317.41
 20
24.6999
 10
317.442
 20
24.7151
 10
317.438
 20
24.7385
 10
317.415
 20
24.7427
 10
317.401
 20
24.711
 10
317.401
 20
24.6999
 10
317.401
 20
21.8006
 10
317.401
 20
21.784
 10
317.43
 20
21.7303
 10
317.482
 20
21.7
 10
317.5
 20
21.7
 10
323.5
 20
21.7
 10
323.517
 20
21.7
 10
323.57
 20
21.7303
 10
323.601
 20
21.784
 10
323.601
 20
21.8006
 10
323.601
 20
24.6999
 10
323.601
 20
24.711
 10
323.585
 20
24.7427
 10
323.562
 20
24.7385
 10
323.558
 20
24.7151
 10
323.59
 20
24.6999
 10
323.601
 20
24.6999
 10
328.5
 20
24.6999
 10
328.516
 20
24.6999
 10
328.57
 20
24.7303
 10
328.6
 20
24.784
 10
328.6
 20
24.8006
 10
328.6
 20
29.6995
 10
328.6
 20
29.7105
 10
328.585
 20
29.7422
 10
328.561
 20
29.7381
 10
328.557
 20
29.7146
 10
328.589
 20
29.6995
 10
328.6
 20
29.6995
 10
331.5
 20
29.6995
 10
331.516
 20
29.6995
 10
331.57
 20
29.7298
 10
331.6
 20
29.7835
 10
331.6
 20
29.8001
 10
331.6
 20
35.7999
 10
331.6
 20
35.8179
 10
331.57
 20
35.8719
 10
331.516
 20
35.9008
 10
331.5
 20
35.9008
 10
328.6
 20
35.9008
 10
328.589
 20
35.9008
 10
328.557
 20
35.887
 10
328.561
 20
35.8634
 10
328.585
 20
35.8592
 10
328.6
 20
35.8909
 10
328.6
 20
35.9008
 10
328.6
 20
41.6994
 10
328.6
 20
41.7103
 10
328.585
 20
41.7421
 10
328.561
 20
41.7382
 10
328.557
 20
41.7146
 10
328.589
 20
41.6994
 10
328.6
 20
41.6994
 10
331.5
 20
41.6994
 10
331.516
 20
41.6994
 10
331.57
 20
41.7297
 10
331.6
 20
41.7834
 10
331.6
 20
41.7999
 10
331.6
 20
47.8
 10
331.6
 20
47.818
 10
331.57
 20
47.8716
 10
331.516
 20
47.9005
 10
331.5
 20
47.9005
 10
328.6
 20
47.9005
 10
328.589
 20
47.9005
 10
328.557
 20
47.8868
 10
328.561
 20
47.8635
 10
328.585
 20
47.8592
 10
328.6
 20
47.891
 10
328.6
 20
47.9005
 10
328.6
 20
53.6995
 10
328.6
 20
53.7104
 10
328.585
 20
53.7422
 10
328.561
 20
53.7379
 10
328.557
 20
53.7146
 10
328.589
 20
53.6995
 10
328.6
 20
53.6995
 10
331.5
 20
53.6995
 10
331.516
 20
53.6995
 10
331.57
 20
53.7298
 10
331.6
 20
53.7834
 10
331.6
 20
53.8
 10
331.6
 20
59.8001
 10
331.6
 20
59.8181
 10
331.57
 20
59.8717
 10
331.516
 20
59.9006
 10
331.5
 20
59.9006
 10
328.6
 20
59.9006
 10
328.589
 20
59.9006
 10
328.557
 20
59.8868
 10
328.561
 20
59.8632
 10
328.585
 20
59.8593
 10
328.6
 20
59.8911
 10
328.6
 20
59.9006
 10
328.6
 20
65.6992
 10
328.6
 20
65.7105
 10
328.585
 20
65.7419
 10
328.561
 20
65.738
 10
328.557
 20
65.7144
 10
328.589
 20
65.6992
 10
328.6
 20
65.6992
 10
331.5
 20
65.6992
 10
331.516
 20
65.6992
 10
331.57
 20
65.7296
 10
331.6
 20
65.7835
 10
331.6
 20
65.8001
 10
331.6
 20
71.7998
 10
331.6
 20
71.81780000000001
 10
331.57
 20
71.87139999999999
 10
331.516
 20
71.9007
 10
331.5
 20
71.9007
 10
328.6
 20
71.9007
 10
328.589
 20
71.9007
 10
328.557
 20
71.8866
 10
328.561
 20
71.8633
 10
328.585
 20
71.8591
 10
328.6
 20
71.8908
 10
328.6
 20
71.9007
 10
328.6
 20
77.7007
 10
328.6
 20
77.71169999999999
 10
328.585
 20
77.74339999999999
 10
328.561
 20
77.73779999999999
 10
328.557
 20
77.7159
 10
328.589
 20
77.7007
 10
328.6
 20
77.7007
 10
331.5
 20
77.7007
 10
331.516
 20
77.7007
 10
331.57
 20
77.7296
 10
331.6
 20
77.7833
 10
331.6
 20
77.7998
 10
331.6
 20
83.79989999999999
 10
331.6
 20
83.81789999999999
 10
331.57
 20
83.8715
 10
331.516
 20
83.9004
 10
331.5
 20
83.9004
 10
328.6
 20
83.9004
 10
328.589
 20
83.9004
 10
328.557
 20
83.8867
 10
328.561
 20
83.8634
 10
328.585
 20
83.8592
 10
328.6
 20
83.8909
 10
328.6
 20
83.9004
 10
328.6
 20
89.7008
 10
328.6
 20
89.71169999999999
 10
328.585
 20
89.7435
 10
328.561
 20
89.73779999999999
 10
328.557
 20
89.71599999999999
 10
328.589
 20
89.7008
 10
328.6
 20
89.7008
 10
331.5
 20
89.7008
 10
331.516
 20
89.7008
 10
331.57
 20
89.72969999999999
 10
331.6
 20
89.7834
 10
331.6
 20
89.79989999999999
 10
331.6
 20
95.8
 10
331.6
 20
95.8176
 10
331.57
 20
95.8716
 10
331.516
 20
95.90049999999999
 10
331.5
 20
95.90049999999999
 10
328.6
 20
95.90049999999999
 10
328.589
 20
95.90049999999999
 10
328.557
 20
95.88679999999999
 10
328.561
 20
95.8631
 10
328.585
 20
95.8592
 10
328.6
 20
95.89060000000001
 10
328.6
 20
95.90049999999999
 10
328.6
 20
101.699
 10
328.6
 20
101.71
 10
328.585
 20
101.742
 10
328.561
 20
101.738
 10
328.557
 20
101.714
 10
328.589
 20
101.699
 10
328.6
 20
101.699
 10
331.5
 20
101.699
 10
331.516
 20
101.699
 10
331.57
 20
101.729
 10
331.6
 20
101.783
 10
331.6
 20
101.8
 10
331.6
 20
107.8
 10
331.6
 20
107.818
 10
331.57
 20
107.871
 10
331.516
 20
107.9
 10
331.5
 20
107.9
 10
328.6
 20
107.9
 10
328.589
 20
107.9
 10
328.557
 20
107.887
 10
328.561
 20
107.863
 10
328.585
 20
107.859
 10
328.6
 20
107.891
 10
328.6
 20
107.9
 10
328.6
 20
113.701
 10
328.6
 20
113.712
 10
328.585
 20
113.743
 10
328.561
 20
113.738
 10
328.557
 20
113.716
 10
328.589
 20
113.701
 10
328.6
 20
113.701
 10
331.5
 20
113.701
 10
331.516
 20
113.701
 10
331.57
 20
113.73
 10
331.6
 20
113.783
 10
331.6
 20
113.8
 10
331.6
 20
119.8
 10
331.6
 20
119.818
 10
331.57
 20
119.871
 10
331.516
 20
119.9
 10
331.5
 20
119.9
 10
328.6
 20
119.9
 10
328.589
 20
119.9
 10
328.557
 20
119.887
 10
328.561
 20
119.863
 10
328.585
 20
119.859
 10
328.6
 20
119.891
 10
328.6
 20
119.9
 10
328.6
 20
124.801
 10
328.6
 20
124.818
 10
328.57
 20
124.871
 10
328.516
 20
124.9
 10
328.5
 20
124.9
 10
323.601
 20
124.9
 10
323.59
 20
124.9
 10
323.558
 20
124.886
 10
323.562
 20
124.863
 10
323.585
 20
124.859
 10
323.601
 20
124.89
 10
323.601
 20
124.9
 10
323.601
 20
127.801
 10
323.601
 20
127.818
 10
323.57
 20
127.871
 10
323.517
 20
127.9
 10
323.5
 20
127.9
 10
317.5
 20
127.9
 10
317.482
 20
127.9
 10
317.43
 20
127.871
 10
317.401
 20
127.818
 10
317.401
 20
127.801
 10
317.401
 20
124.9
 10
317.401
 20
124.89
 10
317.415
 20
124.859
 10
317.438
 20
124.863
 10
317.442
 20
124.886
 10
317.41
 20
124.9
 10
317.401
 20
124.9
 10
311.6
 20
124.9
 10
311.59
 20
124.9
 10
311.558
 20
124.886
 10
311.562
 20
124.863
 10
311.585
 20
124.859
 10
311.6
 20
124.89
 10
311.6
 20
124.9
 10
311.6
 20
127.801
 10
311.6
 20
127.818
 10
311.57
 20
127.871
 10
311.517
 20
127.9
 10
311.5
 20
127.9
 10
305.5
 20
127.9
 10
305.482
 20
127.9
 10
305.428
 20
127.871
 10
305.399
 20
127.818
 10
305.399
 20
127.801
 10
305.399
 20
124.9
 10
305.399
 20
124.89
 10
305.413
 20
124.859
 10
305.437
 20
124.863
 10
305.441
 20
124.886
 10
305.409
 20
124.9
 10
305.399
 20
124.9
 10
299.601
 20
124.9
 10
299.589
 20
124.9
 10
299.558
 20
124.886
 10
299.562
 20
124.863
 10
299.586
 20
124.859
 10
299.601
 20
124.89
 10
299.601
 20
124.9
 10
299.601
 20
127.801
 10
299.601
 20
127.818
 10
299.57
 20
127.871
 10
299.516
 20
127.9
 10
299.5
 20
127.9
 10
293.5
 20
127.9
 10
293.482
 20
127.9
 10
293.429
 20
127.871
 10
293.4
 20
127.818
 10
293.4
 20
127.801
 10
293.4
 20
124.9
 10
293.4
 20
124.89
 10
293.413
 20
124.859
 10
293.437
 20
124.863
 10
293.441
 20
124.886
 10
293.409
 20
124.9
 10
293.4
 20
124.9
 10
287.599
 20
124.9
 10
287.588
 20
124.9
 10
287.557
 20
124.886
 10
287.562
 20
124.863
 10
287.584
 20
124.859
 10
287.599
 20
124.89
 10
287.599
 20
124.9
 10
287.599
 20
127.801
 10
287.599
 20
127.818
 10
287.57
 20
127.871
 10
287.517
 20
127.9
 10
287.5
 20
127.9
 10
281.5
 20
127.9
 10
281.482
 20
127.9
 10
281.428
 20
127.871
 10
281.4
 20
127.818
 10
281.4
 20
127.801
 10
281.4
 20
124.9
 10
281.4
 20
124.89
 10
281.413
 20
124.859
 10
281.437
 20
124.863
 10
281.441
 20
124.886
 10
281.409
 20
124.9
 10
281.4
 20
124.9
 10
275.6
 20
124.9
 10
275.588
 20
124.9
 10
275.556
 20
124.886
 10
275.562
 20
124.863
 10
275.584
 20
124.859
 10
275.6
 20
124.89
 10
275.6
 20
124.9
 10
275.6
 20
127.801
 10
275.6
 20
127.818
 10
275.571
 20
127.871
 10
275.517
 20
127.9
 10
275.5
 20
127.9
 10
269.5
 20
127.9
 10
269.482
 20
127.9
 10
269.428
 20
127.871
 10
269.399
 20
127.818
 10
269.399
 20
127.801
 10
269.399
 20
124.9
 10
269.399
 20
124.89
 10
269.413
 20
124.859
 10
269.437
 20
124.863
 10
269.441
 20
124.886
 10
269.409
 20
124.9
 10
269.399
 20
124.9
 10
263.601
 20
124.9
 10
263.59
 20
124.9
 10
263.558
 20
124.886
 10
263.562
 20
124.863
 10
263.586
 20
124.859
 10
263.601
 20
124.89
 10
263.601
 20
124.9
 10
263.601
 20
127.801
 10
263.601
 20
127.818
 10
263.571
 20
127.871
 10
263.517
 20
127.9
 10
263.5
 20
127.9
 10
257.5
 20
127.9
 10
257.482
 20
127.9
 10
257.429
 20
127.871
 10
257.4
 20
127.818
 10
257.4
 20
127.801
 10
257.4
 20
124.9
 10
257.4
 20
124.89
 10
257.413
 20
124.859
 10
257.437
 20
124.863
 10
257.441
 20
124.886
 10
257.409
 20
124.9
 10
257.4
 20
124.9
 10
251.599
 20
124.9
 10
251.588
 20
124.9
 10
251.557
 20
124.886
 10
251.562
 20
124.863
 10
251.584
 20
124.859
 10
251.599
 20
124.89
 10
251.599
 20
124.9
 10
251.599
 20
127.801
 10
251.599
 20
127.818
 10
251.57
 20
127.871
 10
251.517
 20
127.9
 10
251.5
 20
127.9
 10
245.5
 20
127.9
 10
245.482
 20
127.9
 10
245.429
 20
127.871
 10
245.4
 20
127.818
 10
245.4
 20
127.801
 10
245.4
 20
124.9
 10
245.4
 20
124.89
 10
245.413
 20
124.859
 10
245.437
 20
124.863
 10
245.441
 20
124.886
 10
245.409
 20
124.9
 10
245.4
 20
124.9
 10
239.6
 20
124.9
 10
239.588
 20
124.9
 10
239.557
 20
124.886
 10
239.562
 20
124.863
 10
239.584
 20
124.859
 10
239.6
 20
124.89
 10
239.6
 20
124.9
 10
239.6
 20
127.801
 10
239.6
 20
127.818
 10
239.571
 20
127.871
 10
239.517
 20
127.9
 10
239.5
 20
127.9
 10
233.5
 20
127.9
 10
233.482
 20
127.9
 10
233.429
 20
127.871
 10
233.4
 20
127.818
 10
233.4
 20
127.801
 10
233.4
 20
124.9
 10
233.4
 20
124.89
 10
233.414
 20
124.859
 10
233.437
 20
124.863
 10
233.441
 20
124.886
 10
233.409
 20
124.9
 10
233.4
 20
124.9
 10
228.501
 20
124.9
 10
228.483
 20
124.9
 10
228.429
 20
124.871
 10
228.4
 20
124.818
 10
228.4
 20
124.801
 10
228.4
 20
119.9
 10
228.4
 20
119.891
 10
228.414
 20
119.859
 10
228.437
 20
119.863
 10
228.442
 20
119.887
 10
228.41
 20
119.9
 10
228.4
 20
119.9
 10
225.501
 20
119.9
 10
225.483
 20
119.9
 10
225.429
 20
119.871
 10
225.4
 20
119.818
 10
225.4
 20
119.8
 10
225.4
 20
113.8
 10
225.4
 20
113.783
 10
225.429
 20
113.73
 10
225.483
 20
113.701
 10
225.501
 20
113.701
 10
228.4
 20
113.701
 10
228.41
 20
113.701
 10
228.442
 20
113.716
 10
228.437
 20
113.738
 10
228.414
 20
113.743
 10
228.4
 20
113.712
 10
228.4
 20
113.701
 10
228.4
 20
107.9
 10
228.4
 20
107.891
 10
228.414
 20
107.859
 10
228.437
 20
107.863
 10
228.442
 20
107.887
 10
228.41
 20
107.9
 10
228.4
 20
107.9
 10
225.501
 20
107.9
 10
225.483
 20
107.9
 10
225.429
 20
107.871
 10
225.4
 20
107.818
 10
225.4
 20
107.8
 10
225.4
 20
101.8
 10
225.4
 20
101.783
 10
225.429
 20
101.729
 10
225.483
 20
101.699
 10
225.501
 20
101.699
 10
228.4
 20
101.699
 10
228.41
 20
101.699
 10
228.442
 20
101.714
 10
228.437
 20
101.738
 10
228.414
 20
101.742
 10
228.4
 20
101.71
 10
228.4
 20
101.699
 10
228.4
 20
95.90049999999999
 10
228.4
 20
95.89060000000001
 10
228.414
 20
95.8592
 10
228.437
 20
95.8631
 10
228.442
 20
95.88679999999999
 10
228.41
 20
95.90049999999999
 10
228.4
 20
95.90049999999999
 10
225.501
 20
95.90049999999999
 10
225.483
 20
95.90049999999999
 10
225.429
 20
95.8716
 10
225.4
 20
95.8176
 10
225.4
 20
95.8
 10
225.4
 20
89.79989999999999
 10
225.4
 20
89.7834
 10
225.429
 20
89.72969999999999
 10
225.483
 20
89.7008
 10
225.501
 20
89.7008
 10
228.4
 20
89.7008
 10
228.41
 20
89.7008
 10
228.442
 20
89.71599999999999
 10
228.437
 20
89.73779999999999
 10
228.414
 20
89.7435
 10
228.4
 20
89.71169999999999
 10
228.4
 20
89.7008
 10
228.4
 20
83.9004
 10
228.4
 20
83.8909
 10
228.414
 20
83.8592
 10
228.437
 20
83.8634
 10
228.442
 20
83.8867
 10
228.41
 20
83.9004
 10
228.4
 20
83.9004
 10
225.501
 20
83.9004
 10
225.483
 20
83.9004
 10
225.429
 20
83.8715
 10
225.4
 20
83.81789999999999
 10
225.4
 20
83.79989999999999
 10
225.4
 20
77.7998
 10
225.4
 20
77.7833
 10
225.429
 20
77.7296
 10
225.483
 20
77.7007
 10
225.501
 20
77.7007
 10
228.4
 20
77.7007
 10
228.41
 20
77.7007
 10
228.442
 20
77.7159
 10
228.437
 20
77.73779999999999
 10
228.414
 20
77.74339999999999
 10
228.4
 20
77.71169999999999
 10
228.4
 20
77.7007
 10
228.4
 20
71.9007
 10
228.4
 20
71.8908
 10
228.414
 20
71.8591
 10
228.437
 20
71.8633
 10
228.442
 20
71.8866
 10
228.41
 20
71.9007
 10
228.4
 20
71.9007
 10
225.501
 20
71.9007
 10
225.483
 20
71.9007
 10
225.429
 20
71.87139999999999
 10
225.4
 20
71.81780000000001
 10
225.4
 20
71.7998
 10
225.4
 20
65.8001
 10
225.4
 20
65.7835
 10
225.429
 20
65.7296
 10
225.483
 20
65.6992
 10
225.501
 20
65.6992
 10
228.4
 20
65.6992
 10
228.41
 20
65.6992
 10
228.442
 20
65.7144
 10
228.437
 20
65.738
 10
228.414
 20
65.7419
 10
228.4
 20
65.7105
 10
228.4
 20
65.6992
 10
228.4
 20
59.9006
 10
228.4
 20
59.8911
 10
228.414
 20
59.8593
 10
228.437
 20
59.8632
 10
228.442
 20
59.8868
 10
228.41
 20
59.9006
 10
228.4
 20
59.9006
 10
225.501
 20
59.9006
 10
225.483
 20
59.9006
 10
225.429
 20
59.8717
 10
225.4
 20
59.8181
 10
225.4
 20
59.8001
 10
225.4
 20
53.8
 10
225.4
 20
53.7834
 10
225.429
 20
53.7298
 10
225.483
 20
53.6995
 10
225.501
 20
53.6995
 10
228.4
 20
53.6995
 10
228.41
 20
53.6995
 10
228.442
 20
53.7146
 10
228.437
 20
53.7379
 10
228.414
 20
53.7422
 10
228.4
 20
53.7104
 10
228.4
 20
53.6995
 10
228.4
 20
47.9005
 10
228.4
 20
47.891
 10
228.414
 20
47.8592
 10
228.437
 20
47.8635
 10
228.442
 20
47.8868
 10
228.41
 20
47.9005
 10
228.4
 20
47.9005
 10
225.501
 20
47.9005
 10
225.483
 20
47.9005
 10
225.429
 20
47.8716
 10
225.4
 20
47.818
 10
225.4
 20
47.8
 10
225.4
 20
41.7999
 10
225.4
 20
41.7834
 10
225.429
 20
41.7297
 10
225.483
 20
41.6994
 10
225.501
 20
41.6994
 10
228.4
 20
41.6994
 10
228.41
 20
41.6994
 10
228.442
 20
41.7146
 10
228.437
 20
41.7382
 10
228.414
 20
41.7421
 10
228.4
 20
41.7103
 10
228.4
 20
41.6994
 10
228.4
 20
35.9008
 10
228.4
 20
35.8909
 10
228.414
 20
35.8592
 10
228.437
 20
35.8634
 10
228.442
 20
35.887
 10
228.41
 20
35.9008
 10
228.4
 20
35.9008
 10
225.501
 20
35.9008
 10
225.483
 20
35.9008
 10
225.429
 20
35.8719
 10
225.4
 20
35.8179
 10
225.4
 20
35.7999
 10
225.4
 20
29.8001
 10
225.4
 20
29.7835
 10
225.429
 20
29.7298
 10
225.483
 20
29.6995
 10
225.501
 20
29.6995
 10
228.4
 20
29.6995
 10
228.41
 20
29.6995
 10
228.442
 20
29.7146
 10
228.437
 20
29.7381
 10
228.414
 20
29.7422
 10
228.4
 20
29.7105
 10
228.4
 20
29.6995
 10
228.4
 20
24.8006
 10
228.4
 20
24.784
 10
228.429
 20
24.7303
 10
228.483
 20
24.6999
  0
TEXT
  5
6B
100
AcDbEntity
  8
0
  6
ByLayer
 62
    1
370
   -1
100
AcDbText
 10
348.568
 20
73.8964
 30
0
 40
4.0005
  1
Front
 50
0
 41
1
 51
0
  7
STANDARD
 71
    0
210
0
220
0
230
1
100
AcDbText
  0
LWPOLYLINE
  5
6C
100
AcDbEntity
  8
0
  6
ByLayer
 62
    0
370
   -1
100
AcDbPolyline
 90
  218
 70
    1
 43
0
 10
333.2
 20
21.7
 10
338.235
 20
21.7
 10
338.252
 20
21.7
 10
338.306
 20
21.7303
 10
338.336
 20
21.784
 10
338.336
 20
21.8006
 10
338.336
 20
24.6999
 10
338.336
 20
24.711
 10
338.321
 20
24.7427
 10
338.297
 20
24.7385
 10
338.293
 20
24.7151
 10
338.325
 20
24.6999
 10
338.336
 20
24.6999
 10
344.136
 20
24.6999
 10
344.146
 20
24.6999
 10
344.177
 20
24.7151
 10
344.173
 20
24.7385
 10
344.15
 20
24.7427
 10
344.136
 20
24.711
 10
344.136
 20
24.6999
 10
344.136
 20
21.8006
 10
344.136
 20
21.784
 10
344.165
 20
21.7303
 10
344.217
 20
21.7
 10
344.235
 20
21.7
 10
350.235
 20
21.7
 10
350.252
 20
21.7
 10
350.306
 20
21.7303
 10
350.336
 20
21.784
 10
350.336
 20
21.8006
 10
350.336
 20
24.6999
 10
350.336
 20
24.711
 10
350.321
 20
24.7427
 10
350.297
 20
24.7385
 10
350.293
 20
24.7151
 10
350.325
 20
24.6999
 10
350.336
 20
24.6999
 10
356.136
 20
24.6999
 10
356.147
 20
24.6999
 10
356.179
 20
24.7151
 10
356.175
 20
24.7385
 10
356.15
 20
24.7427
 10
356.136
 20
24.711
 10
356.136
 20
24.6999
 10
356.136
 20
21.8006
 10
356.136
 20
21.784
 10
356.164
 20
21.7303
 10
356.217
 20
21.7
 10
356.235
 20
21.7
 10
362.236
 20
21.7
 10
362.253
 20
21.7
 10
362.306
 20
21.7303
 10
362.335
 20
21.784
 10
362.335
 20
21.8006
 10
362.335
 20
24.6999
 10
362.335
 20
24.711
 10
362.32
 20
24.7427
 10
362.296
 20
24.7385
 10
362.292
 20
24.7151
 10
362.324
 20
24.6999
 10
362.335
 20
24.6999
 10
368.138
 20
24.6999
 10
368.145
 20
24.6999
 10
368.177
 20
24.7151
 10
368.173
 20
24.7385
 10
368.148
 20
24.7427
 10
368.138
 20
24.711
 10
368.138
 20
24.6999
 10
368.138
 20
21.8006
 10
368.138
 20
21.784
 10
368.166
 20
21.7303
 10
368.219
 20
21.7
 10
368.236
 20
21.7
 10
373.271
 20
21.7
 10
373.288
 20
21.7
 10
373.341
 20
21.7303
 10
373.373
 20
21.784
 10
373.373
 20
21.8006
 10
373.373
 20
24.8006
 10
373.373
 20
124.801
 10
373.373
 20
127.801
 10
373.373
 20
127.818
 10
373.341
 20
127.871
 10
373.288
 20
127.9
 10
373.271
 20
127.9
 10
368.236
 20
127.9
 10
368.219
 20
127.9
 10
368.166
 20
127.871
 10
368.138
 20
127.818
 10
368.138
 20
127.801
 10
368.138
 20
124.9
 10
368.138
 20
124.89
 10
368.148
 20
124.859
 10
368.173
 20
124.863
 10
368.177
 20
124.886
 10
368.145
 20
124.9
 10
368.138
 20
124.9
 10
362.335
 20
124.9
 10
362.324
 20
124.9
 10
362.292
 20
124.886
 10
362.296
 20
124.863
 10
362.32
 20
124.859
 10
362.335
 20
124.89
 10
362.335
 20
124.9
 10
362.335
 20
127.801
 10
362.335
 20
127.818
 10
362.306
 20
127.871
 10
362.253
 20
127.9
 10
362.236
 20
127.9
 10
356.235
 20
127.9
 10
356.217
 20
127.9
 10
356.164
 20
127.871
 10
356.136
 20
127.818
 10
356.136
 20
127.801
 10
356.136
 20
124.9
 10
356.136
 20
124.89
 10
356.15
 20
124.859
 10
356.175
 20
124.863
 10
356.179
 20
124.886
 10
356.147
 20
124.9
 10
356.136
 20
124.9
 10
350.336
 20
124.9
 10
350.325
 20
124.9
 10
350.293
 20
124.886
 10
350.297
 20
124.863
 10
350.321
 20
124.859
 10
350.336
 20
124.89
 10
350.336
 20
124.9
 10
350.336
 20
127.801
 10
350.336
 20
127.818
 10
350.306
 20
127.871
 10
350.252
 20
127.9
 10
350.235
 20
127.9
 10
344.235
 20
127.9
 10
344.217
 20
127.9
 10
344.165
 20
127.871
 10
344.136
 20
127.818
 10
344.136
 20
127.801
 10
344.136
 20
124.9
 10
344.136
 20
124.89
 10
344.15
 20
124.859
 10
344.173
 20
124.863
 10
344.177
 20
124.886
 10
344.146
 20
124.9
 10
344.136
 20
124.9
 10
338.336
 20
124.9
 10
338.325
 20
124.9
 10
338.293
 20
124.886
 10
338.297
 20
124.863
 10
338.321
 20
124.859
 10
338.336
 20
124.89
 10
338.336
 20
124.9
 10
338.336
 20
127.801
 10
338.336
 20
127.818
 10
338.306
 20
127.871
 10
338.252
 20
127.9
 10
338.235
 20
127.9
 10
333.2
 20
127.9
 10
333.182
 20
127.9
 10
333.128
 20
127.871
 10
333.099
 20
127.818
 10
333.099
 20
127.801
 10
333.099
 20
124.801
 10
333.099
 20
112.799
 10
333.099
 20
112.601
 10
333.152
 20
112.003
 10
333.308
 20
111.221
 10
333.562
 20
110.468
 10
333.816
 20
109.923
 10
333.917
 20
109.75
 10
334.016
 20
109.577
 10
334.36
 20
109.086
 10
334.887
 20
108.487
 10
335.485
 20
107.962
 10
335.977
 20
107.618
 10
336.15
 20
107.517
 10
336.317
 20
107.422
 10
336.793
 20
107.089
 10
337.371
 20
106.58
 10
337.88
 20
106.002
 10
338.213
 20
105.526
 10
338.31
 20
105.358
 10
338.405
 20
105.191
 10
338.651
 20
104.665
 10
338.898
 20
103.936
 10
339.048
 20
103.18
 10
339.1
 20
102.602
 10
339.1
 20
102.408
 10
339.1
 20
47.1921
 10
339.1
 20
47.0006
 10
339.048
 20
46.422
 10
338.898
 20
45.6653
 10
338.651
 20
44.9365
 10
338.406
 20
44.4101
 10
338.31
 20
44.2419
 10
338.213
 20
44.0754
 10
337.88
 20
43.5998
 10
337.371
 20
43.0209
 10
336.793
 20
42.5125
 10
336.317
 20
42.1792
 10
336.15
 20
42.0825
 10
335.977
 20
41.9834
 10
335.485
 20
41.6387
 10
334.887
 20
41.1138
 10
334.36
 20
40.5158
 10
334.016
 20
40.0237
 10
333.917
 20
39.8501
 10
333.816
 20
39.678
 10
333.562
 20
39.1336
 10
333.308
 20
38.3798
 10
333.152
 20
37.5984
 10
333.099
 20
37.0004
 10
333.099
 20
36.8004
 10
333.099
 20
24.8006
 10
333.099
 20
21.8006
 10
333.099
 20
21.784
 10
333.128
 20
21.7303
 10
333.182
 20
21.7
  0
LWPOLYLINE
  5
6D
100
AcDbEntity
  8
0
  6
ByLayer
 62
    5
370
   -1
100
AcDbPolyline
 90
   29
 70
    1
 43
0
 10
342.2
 20
116.8
 10
342.2
 20
119.701
 10
342.2
 20
119.712
 10
342.185
 20
119.743
 10
342.161
 20
119.738
 10
342.157
 20
119.716
 10
342.189
 20
119.701
 10
342.2
 20
119.701
 10
345
 20
119.701
 10
345.01
 20
119.701
 10
345.041
 20
119.716
 10
345.037
 20
119.738
 10
345.014
 20
119.743
 10
345
 20
119.712
 10
345
 20
119.701
 10
345
 20
113.9
 10
345
 20
113.891
 10
345.014
 20
113.859
 10
345.037
 20
113.863
 10
345.041
 20
113.887
 10
345.01
 20
113.9
 10
345
 20
113.9
 10
342.2
 20
113.9
 10
342.189
 20
113.9
 10
342.157
 20
113.887
 10
342.161
 20
113.863
 10
342.185
 20
113.859
 10
342.2
 20
113.891
 10
342.2
 20
113.9
  0
LWPOLYLINE
  5
6E
100
AcDbEntity
  8
0
  6
ByLayer
 62
    5
370
   -1
100
AcDbPolyline
 90
   29
 70
    1
 43
0
 10
342.2
 20
104.8
 10
342.2
 20
107.699
 10
342.2
 20
107.71
 10
342.185
 20
107.742
 10
342.161
 20
107.738
 10
342.157
 20
107.714
 10
342.189
 20
107.699
 10
342.2
 20
107.699
 10
345
 20
107.699
 10
345.01
 20
107.699
 10
345.041
 20
107.714
 10
345.037
 20
107.738
 10
345.014
 20
107.742
 10
345
 20
107.71
 10
345
 20
107.699
 10
345
 20
101.901
 10
345
 20
101.891
 10
345.014
 20
101.859
 10
345.037
 20
101.863
 10
345.041
 20
101.887
 10
345.01
 20
101.901
 10
345
 20
101.901
 10
342.2
 20
101.901
 10
342.189
 20
101.901
 10
342.157
 20
101.887
 10
342.161
 20
101.863
 10
342.185
 20
101.859
 10
342.2
 20
101.891
 10
342.2
 20
101.901
  0
LWPOLYLINE
  5
6F
100
AcDbEntity
  8
0
  6
ByLayer
 62
    5
370
   -1
100
AcDbPolyline
 90
   29
 70
    1
 43
0
 10
342.2
 20
92.8
 10
342.2
 20
95.70050000000001
 10
342.2
 20
95.7118
 10
342.185
 20
95.7432
 10
342.161
 20
95.7379
 10
342.157
 20
95.7157
 10
342.189
 20
95.70050000000001
 10
342.2
 20
95.70050000000001
 10
345
 20
95.70050000000001
 10
345.01
 20
95.70050000000001
 10
345.041
 20
95.7157
 10
345.037
 20
95.7379
 10
345.014
 20
95.7432
 10
345
 20
95.7118
 10
345
 20
95.70050000000001
 10
345
 20
89.90049999999999
 10
345
 20
89.89100000000001
 10
345.014
 20
89.8592
 10
345.037
 20
89.8631
 10
345.041
 20
89.8867
 10
345.01
 20
89.90049999999999
 10
345
 20
89.90049999999999
 10
342.2
 20
89.90049999999999
 10
342.189
 20
89.90049999999999
 10
342.157
 20
89.8867
 10
342.161
 20
89.8631
 10
342.185
 20
89.8592
 10
342.2
 20
89.89100000000001
 10
342.2
 20
89.90049999999999
  0
LWPOLYLINE
  5
70
100
AcDbEntity
  8
0
  6
ByLayer
 62
    5
370
   -1
100
AcDbPolyline
 90
   29
 70
    1
 43
0
 10
342.2
 20
80.79989999999999
 10
342.2
 20
83.7008
 10
342.2
 20
83.71169999999999
 10
342.185
 20
83.74339999999999
 10
342.161
 20
83.73779999999999
 10
342.157
 20
83.7159
 10
342.189
 20
83.7008
 10
342.2
 20
83.7008
 10
345
 20
83.7008
 10
345.01
 20
83.7008
 10
345.041
 20
83.7159
 10
345.037
 20
83.73779999999999
 10
345.014
 20
83.74339999999999
 10
345
 20
83.71169999999999
 10
345
 20
83.7008
 10
345
 20
77.9004
 10
345
 20
77.8909
 10
345.014
 20
77.8591
 10
345.037
 20
77.8633
 10
345.041
 20
77.8866
 10
345.01
 20
77.9004
 10
345
 20
77.9004
 10
342.2
 20
77.9004
 10
342.189
 20
77.9004
 10
342.157
 20
77.8866
 10
342.161
 20
77.8633
 10
342.185
 20
77.8591
 10
342.2
 20
77.8909
 10
342.2
 20
77.9004
  0
LWPOLYLINE
  5
71
100
AcDbEntity
  8
0
  6
ByLayer
 62
    5
370
   -1
100
AcDbPolyline
 90
   29
 70
    1
 43
0
 10
342.2
 20
68.7998
 10
342.2
 20
71.69929999999999
 10
342.2
 20
71.7102
 10
342.185
 20
71.7419
 10
342.161
 20
71.7381
 10
342.157
 20
71.7144
 10
342.189
 20
71.69929999999999
 10
342.2
 20
71.69929999999999
 10
345
 20
71.69929999999999
 10
345.01
 20
71.69929999999999
 10
345.041
 20
71.7144
 10
345.037
 20
71.7381
 10
345.014
 20
71.7419
 10
345
 20
71.7102
 10
345
 20
71.69929999999999
 10
345
 20
65.9007
 10
345
 20
65.8908
 10
345.014
 20
65.85939999999999
 10
345.037
 20
65.8633
 10
345.041
 20
65.8869
 10
345.01
 20
65.9007
 10
345
 20
65.9007
 10
342.2
 20
65.9007
 10
342.189
 20
65.9007
 10
342.157
 20
65.8869
 10
342.161
 20
65.8633
 10
342.185
 20
65.85939999999999
 10
342.2
 20
65.8908
 10
342.2
 20
65.9007
  0
LWPOLYLINE
  5
72
100
AcDbEntity
  8
0
  6
ByLayer
 62
    5
370
   -1
100
AcDbPolyline
 90
   29
 70
    1
 43
0
 10
342.2
 20
56.8
 10
342.2
 20
59.6995
 10
342.2
 20
59.7105
 10
342.185
 20
59.7422
 10
342.161
 20
59.738
 10
342.157
 20
59.7147
 10
342.189
 20
59.6995
 10
342.2
 20
59.6995
 10
345
 20
59.6995
 10
345.01
 20
59.6995
 10
345.041
 20
59.7147
 10
345.037
 20
59.738
 10
345.014
 20
59.7422
 10
345
 20
59.7105
 10
345
 20
59.6995
 10
345
 20
53.8992
 10
345
 20
53.8896
 10
345.014
 20
53.8579
 10
345.037
 20
53.8621
 10
345.041
 20
53.8854
 10
345.01
 20
53.8992
 10
345
 20
53.8992
 10
342.2
 20
53.8992
 10
342.189
 20
53.8992
 10
342.157
 20
53.8854
 10
342.161
 20
53.8621
 10
342.185
 20
53.8579
 10
342.2
 20
53.8896
 10
342.2
 20
53.8992
  0
LWPOLYLINE
  5
73
100
AcDbEntity
  8
0
  6
ByLayer
 62
    5
370
   -1
100
AcDbPolyline
 90
   29
 70
    1
 43
0
 10
342.2
 20
44.8
 10
342.2
 20
47.7008
 10
342.2
 20
47.7118
 10
342.185
 20
47.7435
 10
342.161
 20
47.7379
 10
342.157
 20
47.716
 10
342.189
 20
47.7008
 10
342.2
 20
47.7008
 10
345
 20
47.7008
 10
345.01
 20
47.7008
 10
345.041
 20
47.716
 10
345.037
 20
47.7379
 10
345.014
 20
47.7435
 10
345
 20
47.7118
 10
345
 20
47.7008
 10
345
 20
41.9005
 10
345
 20
41.891
 10
345.014
 20
41.8592
 10
345.037
 20
41.8634
 10
345.041
 20
41.8867
 10
345.01
 20
41.9005
 10
345
 20
41.9005
 10
342.2
 20
41.9005
 10
342.189
 20
41.9005
 10
342.157
 20
41.8867
 10
342.161
 20
41.8634
 10
342.185
 20
41.8592
 10
342.2
 20
41.891
 10
342.2
 20
41.9005
  0
LWPOLYLINE
  5
74
100
AcDbEntity
  8
0
  6
ByLayer
 62
    5
370
   -1
100
AcDbPolyline
 90
   29
 70
    1
 43
0
 10
342.2
 20
32.8001
 10
342.2
 20
35.6993
 10
342.2
 20
35.7106
 10
342.185
 20
35.742
 10
342.161
 20
35.7382
 10
342.157
 20
35.7145
 10
342.189
 20
35.6993
 10
342.2
 20
35.6993
 10
345
 20
35.6993
 10
345.01
 20
35.6993
 10
345.041
 20
35.7145
 10
345.037
 20
35.7382
 10
345.014
 20
35.742
 10
345
 20
35.7106
 10
345
 20
35.6993
 10
345
 20
29.9007
 10
345
 20
29.891
 10
345.014
 20
29.8593
 10
345.037
 20
29.8634
 10
345.041
 20
29.8869
 10
345.01
 20
29.9007
 10
345
 20
29.9007
 10
342.2
 20
29.9007
 10
342.189
 20
29.9007
 10
342.157
 20
29.8869
 10
342.161
 20
29.8634
 10
342.185
 20
29.8593
 10
342.2
 20
29.891
 10
342.2
 20
29.9007
  0
LWPOLYLINE
  5
75
100
AcDbEntity
  8
0
  6
ByLayer
 62
    0
370
   -1
100
AcDbPolyline
 90
   28
 70
    1
 43
0
 10
377.973
 20
21.7
 10
469.35
 20
21.7
 10
472.352
 20
21.7
 10
472.366
 20
21.7
 10
472.419
 20
21.7303
 10
472.451
 20
21.784
 10
472.451
 20
21.8006
 10
472.451
 20
24.8006
 10
472.451
 20
124.801
 10
472.451
 20
127.801
 10
472.451
 20
127.818
 10
472.419
 20
127.871
 10
472.366
 20
127.9
 10
472.352
 20
127.9
 10
469.35
 20
127.9
 10
377.973
 20
127.9
 10
374.971
 20
127.9
 10
374.953
 20
127.9
 10
374.9
 20
127.871
 10
374.872
 20
127.818
 10
374.872
 20
127.801
 10
374.872
 20
124.801
 10
374.872
 20
24.8006
 10
374.872
 20
21.8006
 10
374.872
 20
21.784
 10
374.9
 20
21.7303
 10
374.953
 20
21.7
 10
374.971
 20
21.7
  0
TEXT
  5
76
100
AcDbEntity
  8
0
  6
ByLayer
 62
    1
370
   -1
100
AcDbText
 10
491.585
 20
73.8964
 30
0
 40
4.0005
  1
Top
 50
0
 41
1
 51
0
  7
STANDARD
 71
    0
210
0
220
0
230
1
100
AcDbText
  0
LWPOLYLINE
  5
77
100
AcDbEntity
  8
0
  6
ByLayer
 62
    0
370
   -1
100
AcDbPolyline
 90
  170
 70
    1
 43
0
 10
474.052
 20
21.7
 10
478.532
 20
21.7
 10
478.55
 20
21.7
 10
478.603
 20
21.7303
 10
478.631
 20
21.784
 10
478.631
 20
21.8006
 10
478.631
 20
24.6999
 10
478.631
 20
24.711
 10
478.617
 20
24.7427
 10
478.592
 20
24.7385
 10
478.589
 20
24.7151
 10
478.621
 20
24.6999
 10
478.631
 20
24.6999
 10
484.434
 20
24.6999
 10
484.441
 20
24.6999
 10
484.473
 20
24.7151
 10
484.47
 20
24.7385
 10
484.445
 20
24.7427
 10
484.434
 20
24.711
 10
484.434
 20
24.6999
 10
484.434
 20
21.8006
 10
484.434
 20
21.784
 10
484.463
 20
21.7303
 10
484.516
 20
21.7
 10
484.533
 20
21.7
 10
490.53
 20
21.7
 10
490.548
 20
21.7
 10
490.601
 20
21.7303
 10
490.633
 20
21.784
 10
490.633
 20
21.8006
 10
490.633
 20
24.6999
 10
490.633
 20
24.711
 10
490.619
 20
24.7427
 10
490.594
 20
24.7385
 10
490.59
 20
24.7151
 10
490.622
 20
24.6999
 10
490.633
 20
24.6999
 10
496.432
 20
24.6999
 10
496.443
 20
24.6999
 10
496.475
 20
24.7151
 10
496.471
 20
24.7385
 10
496.447
 20
24.7427
 10
496.432
 20
24.711
 10
496.432
 20
24.6999
 10
496.432
 20
21.8006
 10
496.432
 20
21.784
 10
496.461
 20
21.7303
 10
496.514
 20
21.7
 10
496.531
 20
21.7
 10
502.532
 20
21.7
 10
502.55
 20
21.7
 10
502.602
 20
21.7303
 10
502.634
 20
21.784
 10
502.634
 20
21.8006
 10
502.634
 20
24.6999
 10
502.634
 20
24.711
 10
502.617
 20
24.7427
 10
502.595
 20
24.7385
 10
502.588
 20
24.7151
 10
502.62
 20
24.6999
 10
502.634
 20
24.6999
 10
508.434
 20
24.6999
 10
508.441
 20
24.6999
 10
508.473
 20
24.7151
 10
508.469
 20
24.7385
 10
508.448
 20
24.7427
 10
508.434
 20
24.711
 10
508.434
 20
24.6999
 10
508.434
 20
21.8006
 10
508.434
 20
21.784
 10
508.462
 20
21.7303
 10
508.515
 20
21.7
 10
508.533
 20
21.7
 10
513.013
 20
21.7
 10
516.015
 20
21.7
 10
516.033
 20
21.7
 10
516.086
 20
21.7303
 10
516.114
 20
21.784
 10
516.114
 20
21.8006
 10
516.114
 20
24.8006
 10
516.114
 20
124.801
 10
516.114
 20
127.801
 10
516.114
 20
127.818
 10
516.086
 20
127.871
 10
516.033
 20
127.9
 10
516.015
 20
127.9
 10
513.013
 20
127.9
 10
508.533
 20
127.9
 10
508.515
 20
127.9
 10
508.462
 20
127.871
 10
508.434
 20
127.818
 10
508.434
 20
127.801
 10
508.434
 20
124.9
 10
508.434
 20
124.89
 10
508.448
 20
124.859
 10
508.469
 20
124.863
 10
508.473
 20
124.886
 10
508.441
 20
124.9
 10
508.434
 20
124.9
 10
502.634
 20
124.9
 10
502.62
 20
124.9
 10
502.588
 20
124.886
 10
502.595
 20
124.863
 10
502.617
 20
124.859
 10
502.634
 20
124.89
 10
502.634
 20
124.9
 10
502.634
 20
127.801
 10
502.634
 20
127.818
 10
502.602
 20
127.871
 10
502.55
 20
127.9
 10
502.532
 20
127.9
 10
496.531
 20
127.9
 10
496.514
 20
127.9
 10
496.461
 20
127.871
 10
496.432
 20
127.818
 10
496.432
 20
127.801
 10
496.432
 20
124.9
 10
496.432
 20
124.89
 10
496.447
 20
124.859
 10
496.471
 20
124.863
 10
496.475
 20
124.886
 10
496.443
 20
124.9
 10
496.432
 20
124.9
 10
490.633
 20
124.9
 10
490.622
 20
124.9
 10
490.59
 20
124.886
 10
490.594
 20
124.863
 10
490.619
 20
124.859
 10
490.633
 20
124.89
 10
490.633
 20
124.9
 10
490.633
 20
127.801
 10
490.633
 20
127.818
 10
490.601
 20
127.871
 10
490.548
 20
127.9
 10
490.53
 20
127.9
 10
484.533
 20
127.9
 10
484.516
 20
127.9
 10
484.463
 20
127.871
 10
484.434
 20
127.818
 10
484.434
 20
127.801
 10
484.434
 20
124.9
 10
484.434
 20
124.89
 10
484.445
 20
124.859
 10
484.47
 20
124.863
 10
484.473
 20
124.886
 10
484.441
 20
124.9
 10
484.434
 20
124.9
 10
478.631
 20
124.9
 10
478.621
 20
124.9
 10
478.589
 20
124.886
 10
478.592
 20
124.863
 10
478.617
 20
124.859
 10
478.631
 20
124.89
 10
478.631
 20
124.9
 10
478.631
 20
127.801
 10
478.631
 20
127.818
 10
478.603
 20
127.871
 10
478.55
 20
127.9
 10
478.532
 20
127.9
 10
474.052
 20
127.9
 10
474.031
 20
127.9
 10
473.978
 20
127.871
 10
473.95
 20
127.818
 10
473.95
 20
127.801
 10
473.95
 20
124.801
 10
473.95
 20
24.8006
 10
473.95
 20
21.8006
 10
473.95
 20
21.784
 10
473.978
 20
21.7303
 10
474.031
 20
21.7
  0
LWPOLYLINE
  5
78
100
AcDbEntity
  8
0
  6
ByLayer
 62
    5
370
   -1
100
AcDbPolyline
 90
   77
 70
    1
 43
0
 10
535.7140000000001
 20
30.8005
 10
531.3150000000001
 20
30.8005
 10
531.3049999999999
 20
30.8005
 10
531.273
 20
30.7867
 10
531.276
 20
30.7633
 10
531.301
 20
30.7592
 10
531.3150000000001
 20
30.7909
 10
531.3150000000001
 20
30.8005
 10
531.3150000000001
 20
33.5993
 10
531.3150000000001
 20
33.6103
 10
531.301
 20
33.6421
 10
531.276
 20
33.6379
 10
531.273
 20
33.6145
 10
531.3049999999999
 20
33.5993
 10
531.3150000000001
 20
33.5993
 10
534.067
 20
33.5993
 10
534.081
 20
33.5993
 10
534.1369999999999
 20
33.6296
 10
534.1660000000001
 20
33.6834
 10
534.1660000000001
 20
33.6999
 10
534.1660000000001
 20
39.6998
 10
534.1660000000001
 20
39.7178
 10
534.1369999999999
 20
39.7715
 10
534.081
 20
39.8004
 10
534.067
 20
39.8004
 10
531.3150000000001
 20
39.8004
 10
531.3049999999999
 20
39.8004
 10
531.273
 20
39.7866
 10
531.276
 20
39.7633
 10
531.301
 20
39.7591
 10
531.3150000000001
 20
39.7909
 10
531.3150000000001
 20
39.8004
 10
531.3150000000001
 20
42.6007
 10
531.3150000000001
 20
42.6117
 10
531.301
 20
42.6434
 10
531.276
 20
42.6378
 10
531.273
 20
42.6159
 10
531.3049999999999
 20
42.6007
 10
531.3150000000001
 20
42.6007
 10
540.117
 20
42.6007
 10
540.124
 20
42.6007
 10
540.1559999999999
 20
42.6159
 10
540.152
 20
42.6378
 10
540.127
 20
42.6434
 10
540.117
 20
42.6117
 10
540.117
 20
42.6007
 10
540.117
 20
39.8004
 10
540.117
 20
39.7909
 10
540.127
 20
39.7591
 10
540.152
 20
39.7633
 10
540.1559999999999
 20
39.7866
 10
540.124
 20
39.8004
 10
540.117
 20
39.8004
 10
537.365
 20
39.8004
 10
537.348
 20
39.8004
 10
537.295
 20
39.7715
 10
537.266
 20
39.7178
 10
537.266
 20
39.6998
 10
537.266
 20
33.6999
 10
537.266
 20
33.6834
 10
537.295
 20
33.6296
 10
537.348
 20
33.5993
 10
537.365
 20
33.5993
 10
540.117
 20
33.5993
 10
540.124
 20
33.5993
 10
540.1559999999999
 20
33.6145
 10
540.152
 20
33.6379
 10
540.127
 20
33.6421
 10
540.117
 20
33.6103
 10
540.117
 20
33.5993
 10
540.117
 20
30.8005
 10
540.117
 20
30.7909
 10
540.127
 20
30.7592
 10
540.152
 20
30.7633
 10
540.1559999999999
 20
30.7867
 10
540.124
 20
30.8005
 10
540.117
 20
30.8005
  0
TEXT
  5
79
100
AcDbEntity
  8
0
  6
ByLayer
 62
    1
370
   -1
100
AcDbText
 10
557.251
 20
73.8964
 30
0
 40
4.0005
  1
Back Wall
 50
0
 41
1
 51
0
  7
STANDARD
 71
    0
210
0
220
0
230
1
100
AcDbText
  0
LWPOLYLINE
  5
7A
100
AcDbEntity
  8
0
  6
ByLayer
 62
    0
370
   -1
100
AcDbPolyline
 90
   24
 70
    1
 43
0
 10
517.716
 20
21.7
 10
614.564
 20
21.7
 10
614.581
 20
21.7
 10
614.634
 20
21.7303
 10
614.6660000000001
 20
21.784
 10
614.6660000000001
 20
21.8006
 10
614.6660000000001
 20
24.8006
 10
614.6660000000001
 20
124.801
 10
614.6660000000001
 20
127.801
 10
614.6660000000001
 20
127.818
 10
614.634
 20
127.871
 10
614.581
 20
127.9
 10
614.564
 20
127.9
 10
517.716
 20
127.9
 10
517.698
 20
127.9
 10
517.645
 20
127.871
 10
517.6130000000001
 20
127.818
 10
517.6130000000001
 20
127.801
 10
517.6130000000001
 20
124.801
 10
517.6130000000001
 20
24.8006
 10
517.6130000000001
 20
21.8006
 10
517.6130000000001
 20
21.784
 10
517.645
 20
21.7303
 10
517.698
 20
21.7
  0
LWPOLYLINE
  5
7B
100
AcDbEntity
  8
0
  6
ByLayer
 62
    5
370
   -1
100
AcDbPolyline
 90
   29
 70
    1
 43
0
 10
609.639
 20
27.6999
 10
612.542
 20
27.6999
 10
612.549
 20
27.6999
 10
612.581
 20
27.7151
 10
612.577
 20
27.7385
 10
612.556
 20
27.7427
 10
612.542
 20
27.711
 10
612.542
 20
27.6999
 10
612.542
 20
24.8998
 10
612.542
 20
24.8901
 10
612.556
 20
24.8584
 10
612.577
 20
24.8626
 10
612.581
 20
24.886
 10
612.549
 20
24.8998
 10
612.542
 20
24.8998
 10
606.739
 20
24.8998
 10
606.728
 20
24.8998
 10
606.697
 20
24.886
 10
606.704
 20
24.8626
 10
606.725
 20
24.8584
 10
606.739
 20
24.8901
 10
606.739
 20
24.8998
 10
606.739
 20
27.6999
 10
606.739
 20
27.711
 10
606.725
 20
27.7427
 10
606.704
 20
27.7385
 10
606.697
 20
27.7151
 10
606.728
 20
27.6999
 10
606.739
 20
27.6999
  0
LWPOLYLINE
  5
7C
100
AcDbEntity
  8
0
  6
ByLayer
 62
    5
370
   -1
100
AcDbPolyline
 90
   29
 70
    1
 43
0
 10
597.641
 20
27.6999
 10
600.5410000000001
 20
27.6999
 10
600.548
 20
27.6999
 10
600.579
 20
27.7151
 10
600.576
 20
27.7385
 10
600.5549999999999
 20
27.7427
 10
600.5410000000001
 20
27.711
 10
600.5410000000001
 20
27.6999
 10
600.5410000000001
 20
24.8998
 10
600.5410000000001
 20
24.8901
 10
600.5549999999999
 20
24.8584
 10
600.576
 20
24.8626
 10
600.579
 20
24.886
 10
600.548
 20
24.8998
 10
600.5410000000001
 20
24.8998
 10
594.741
 20
24.8998
 10
594.73
 20
24.8998
 10
594.699
 20
24.886
 10
594.702
 20
24.8626
 10
594.727
 20
24.8584
 10
594.741
 20
24.8901
 10
594.741
 20
24.8998
 10
594.741
 20
27.6999
 10
594.741
 20
27.711
 10
594.727
 20
27.7427
 10
594.702
 20
27.7385
 10
594.699
 20
27.7151
 10
594.73
 20
27.6999
 10
594.741
 20
27.6999
  0
LWPOLYLINE
  5
7D
100
AcDbEntity
  8
0
  6
ByLayer
 62
    5
370
   -1
100
AcDbPolyline
 90
   29
 70
    1
 43
0
 10
585.639
 20
27.6999
 10
588.539
 20
27.6999
 10
588.55
 20
27.6999
 10
588.582
 20
27.7151
 10
588.578
 20
27.7385
 10
588.553
 20
27.7427
 10
588.539
 20
27.711
 10
588.539
 20
27.6999
 10
588.539
 20
24.8998
 10
588.539
 20
24.8901
 10
588.553
 20
24.8584
 10
588.578
 20
24.8626
 10
588.582
 20
24.886
 10
588.55
 20
24.8998
 10
588.539
 20
24.8998
 10
582.739
 20
24.8998
 10
582.729
 20
24.8998
 10
582.697
 20
24.886
 10
582.701
 20
24.8626
 10
582.725
 20
24.8584
 10
582.739
 20
24.8901
 10
582.739
 20
24.8998
 10
582.739
 20
27.6999
 10
582.739
 20
27.711
 10
582.725
 20
27.7427
 10
582.701
 20
27.7385
 10
582.697
 20
27.7151
 10
582.729
 20
27.6999
 10
582.739
 20
27.6999
  0
LWPOLYLINE
  5
7E
100
AcDbEntity
  8
0
  6
ByLayer
 62
    5
370
   -1
100
AcDbPolyline
 90
   29
 70
    1
 43
0
 10
573.641
 20
27.6999
 10
576.5410000000001
 20
27.6999
 10
576.548
 20
27.6999
 10
576.58
 20
27.7151
 10
576.576
 20
27.7385
 10
576.552
 20
27.7427
 10
576.5410000000001
 20
27.711
 10
576.5410000000001
 20
27.6999
 10
576.5410000000001
 20
24.8998
 10
576.5410000000001
 20
24.8901
 10
576.552
 20
24.8584
 10
576.576
 20
24.8626
 10
576.58
 20
24.886
 10
576.548
 20
24.8998
 10
576.5410000000001
 20
24.8998
 10
570.742
 20
24.8998
 10
570.731
 20
24.8998
 10
570.699
 20
24.886
 10
570.703
 20
24.8626
 10
570.724
 20
24.8584
 10
570.742
 20
24.8901
 10
570.742
 20
24.8998
 10
570.742
 20
27.6999
 10
570.742
 20
27.711
 10
570.724
 20
27.7427
 10
570.703
 20
27.7385
 10
570.699
 20
27.7151
 10
570.731
 20
27.6999
 10
570.742
 20
27.6999
  0
LWPOLYLINE
  5
7F
100
AcDbEntity
  8
0
  6
ByLayer
 62
    5
370
   -1
100
AcDbPolyline
 90
   29
 70
    1
 43
0
 10
561.64
 20
27.6999
 10
564.54
 20
27.6999
 10
564.55
 20
27.6999
 10
564.582
 20
27.7151
 10
564.579
 20
27.7385
 10
564.554
 20
27.7427
 10
564.54
 20
27.711
 10
564.54
 20
27.6999
 10
564.54
 20
24.8998
 10
564.54
 20
24.8901
 10
564.554
 20
24.8584
 10
564.579
 20
24.8626
 10
564.582
 20
24.886
 10
564.55
 20
24.8998
 10
564.54
 20
24.8998
 10
558.74
 20
24.8998
 10
558.729
 20
24.8998
 10
558.698
 20
24.886
 10
558.701
 20
24.8626
 10
558.726
 20
24.8584
 10
558.74
 20
24.8901
 10
558.74
 20
24.8998
 10
558.74
 20
27.6999
 10
558.74
 20
27.711
 10
558.726
 20
27.7427
 10
558.701
 20
27.7385
 10
558.698
 20
27.7151
 10
558.729
 20
27.6999
 10
558.74
 20
27.6999
  0
LWPOLYLINE
  5
80
100
AcDbEntity
  8
0
  6
ByLayer
 62
    5
370
   -1
100
AcDbPolyline
 90
   29
 70
    1
 43
0
 10
549.6420000000001
 20
27.6999
 10
552.538
 20
27.6999
 10
552.549
 20
27.6999
 10
552.581
 20
27.7151
 10
552.577
 20
27.7385
 10
552.552
 20
27.7427
 10
552.538
 20
27.711
 10
552.538
 20
27.6999
 10
552.538
 20
24.8998
 10
552.538
 20
24.8901
 10
552.552
 20
24.8584
 10
552.577
 20
24.8626
 10
552.581
 20
24.886
 10
552.549
 20
24.8998
 10
552.538
 20
24.8998
 10
546.739
 20
24.8998
 10
546.728
 20
24.8998
 10
546.696
 20
24.886
 10
546.703
 20
24.8626
 10
546.724
 20
24.8584
 10
546.739
 20
24.8901
 10
546.739
 20
24.8998
 10
546.739
 20
27.6999
 10
546.739
 20
27.711
 10
546.724
 20
27.7427
 10
546.703
 20
27.7385
 10
546.696
 20
27.7151
 10
546.728
 20
27.6999
 10
546.739
 20
27.6999
  0
LWPOLYLINE
  5
81
100
AcDbEntity
  8
0
  6
ByLayer
 62
    5
370
   -1
100
AcDbPolyline
 90
   77
 70
    1
 43
0
 10
536.1660000000001
 20
118.801
 10
540.5650000000001
 20
118.801
 10
540.575
 20
118.801
 10
540.607
 20
118.816
 10
540.6
 20
118.838
 10
540.579
 20
118.843
 10
540.5650000000001
 20
118.812
 10
540.5650000000001
 20
118.801
 10
540.5650000000001
 20
116
 10
540.5650000000001
 20
115.991
 10
540.579
 20
115.959
 10
540.6
 20
115.963
 10
540.607
 20
115.987
 10
540.575
 20
116
 10
540.5650000000001
 20
116
 10
537.817
 20
116
 10
537.796
 20
116
 10
537.7430000000001
 20
115.971
 10
537.7140000000001
 20
115.918
 10
537.7140000000001
 20
115.9
 10
537.7140000000001
 20
109.9
 10
537.7140000000001
 20
109.883
 10
537.7430000000001
 20
109.83
 10
537.796
 20
109.799
 10
537.817
 20
109.799
 10
540.5650000000001
 20
109.799
 10
540.575
 20
109.799
 10
540.607
 20
109.814
 10
540.6
 20
109.838
 10
540.579
 20
109.842
 10
540.5650000000001
 20
109.81
 10
540.5650000000001
 20
109.799
 10
540.5650000000001
 20
107.001
 10
540.5650000000001
 20
106.991
 10
540.579
 20
106.959
 10
540.6
 20
106.963
 10
540.607
 20
106.987
 10
540.575
 20
107.001
 10
540.5650000000001
 20
107.001
 10
531.763
 20
107.001
 10
531.753
 20
107.001
 10
531.721
 20
106.987
 10
531.728
 20
106.963
 10
531.749
 20
106.959
 10
531.763
 20
106.991
 10
531.763
 20
107.001
 10
531.763
 20
109.799
 10
531.763
 20
109.81
 10
531.749
 20
109.842
 10
531.728
 20
109.838
 10
531.721
 20
109.814
 10
531.753
 20
109.799
 10
531.763
 20
109.799
 10
534.515
 20
109.799
 10
534.532
 20
109.799
 10
534.585
 20
109.83
 10
534.617
 20
109.883
 10
534.617
 20
109.9
 10
534.617
 20
115.9
 10
534.617
 20
115.918
 10
534.585
 20
115.971
 10
534.532
 20
116
 10
534.515
 20
116
 10
531.763
 20
116
 10
531.753
 20
116
 10
531.721
 20
115.987
 10
531.728
 20
115.963
 10
531.749
 20
115.959
 10
531.763
 20
115.991
 10
531.763
 20
116
 10
531.763
 20
118.801
 10
531.763
 20
118.812
 10
531.749
 20
118.843
 10
531.728
 20
118.838
 10
531.721
 20
118.816
 10
531.753
 20
118.801
 10
531.763
 20
118.801
  0
LWPOLYLINE
  5
82
100
AcDbEntity
  8
0
  6
ByLayer
 62
    5
370
   -1
100
AcDbPolyline
 90
   29
 70
    1
 43
0
 10
549.79
 20
121.9
 10
546.89
 20
121.9
 10
546.88
 20
121.9
 10
546.848
 20
121.886
 10
546.851
 20
121.863
 10
546.876
 20
121.859
 10
546.89
 20
121.89
 10
546.89
 20
121.9
 10
546.89
 20
124.7
 10
546.89
 20
124.711
 10
546.876
 20
124.743
 10
546.851
 20
124.739
 10
546.848
 20
124.715
 10
546.88
 20
124.7
 10
546.89
 20
124.7
 10
552.6900000000001
 20
124.7
 10
552.7
 20
124.7
 10
552.732
 20
124.715
 10
552.729
 20
124.739
 10
552.704
 20
124.743
 10
552.6900000000001
 20
124.711
 10
552.6900000000001
 20
124.7
 10
552.6900000000001
 20
121.9
 10
552.6900000000001
 20
121.89
 10
552.704
 20
121.859
 10
552.729
 20
121.863
 10
552.732
 20
121.886
 10
552.7
 20
121.9
 10
552.6900000000001
 20
121.9
  0
LWPOLYLINE
  5
83
100
AcDbEntity
  8
0
  6
ByLayer
 62
    5
370
   -1
100
AcDbPolyline
 90
   29
 70
    1
 43
0
 10
561.792
 20
121.9
 10
558.888
 20
121.9
 10
558.878
 20
121.9
 10
558.846
 20
121.886
 10
558.853
 20
121.863
 10
558.874
 20
121.859
 10
558.888
 20
121.89
 10
558.888
 20
121.9
 10
558.888
 20
124.7
 10
558.888
 20
124.711
 10
558.874
 20
124.743
 10
558.853
 20
124.739
 10
558.846
 20
124.715
 10
558.878
 20
124.7
 10
558.888
 20
124.7
 10
564.691
 20
124.7
 10
564.698
 20
124.7
 10
564.73
 20
124.715
 10
564.727
 20
124.739
 10
564.702
 20
124.743
 10
564.691
 20
124.711
 10
564.691
 20
124.7
 10
564.691
 20
121.9
 10
564.691
 20
121.89
 10
564.702
 20
121.859
 10
564.727
 20
121.863
 10
564.73
 20
121.886
 10
564.698
 20
121.9
 10
564.691
 20
121.9
  0
LWPOLYLINE
  5
84
100
AcDbEntity
  8
0
  6
ByLayer
 62
    5
370
   -1
100
AcDbPolyline
 90
   29
 70
    1
 43
0
 10
573.79
 20
121.9
 10
570.89
 20
121.9
 10
570.879
 20
121.9
 10
570.847
 20
121.886
 10
570.851
 20
121.863
 10
570.876
 20
121.859
 10
570.89
 20
121.89
 10
570.89
 20
121.9
 10
570.89
 20
124.7
 10
570.89
 20
124.711
 10
570.876
 20
124.743
 10
570.851
 20
124.739
 10
570.847
 20
124.715
 10
570.879
 20
124.7
 10
570.89
 20
124.7
 10
576.689
 20
124.7
 10
576.7
 20
124.7
 10
576.732
 20
124.715
 10
576.728
 20
124.739
 10
576.703
 20
124.743
 10
576.689
 20
124.711
 10
576.689
 20
124.7
 10
576.689
 20
121.9
 10
576.689
 20
121.89
 10
576.703
 20
121.859
 10
576.728
 20
121.863
 10
576.732
 20
121.886
 10
576.7
 20
121.9
 10
576.689
 20
121.9
  0
LWPOLYLINE
  5
85
100
AcDbEntity
  8
0
  6
ByLayer
 62
    5
370
   -1
100
AcDbPolyline
 90
   29
 70
    1
 43
0
 10
585.7910000000001
 20
121.9
 10
582.891
 20
121.9
 10
582.877
 20
121.9
 10
582.845
 20
121.886
 10
582.852
 20
121.863
 10
582.874
 20
121.859
 10
582.891
 20
121.89
 10
582.891
 20
121.9
 10
582.891
 20
124.7
 10
582.891
 20
124.711
 10
582.874
 20
124.743
 10
582.852
 20
124.739
 10
582.845
 20
124.715
 10
582.877
 20
124.7
 10
582.891
 20
124.7
 10
588.691
 20
124.7
 10
588.698
 20
124.7
 10
588.73
 20
124.715
 10
588.726
 20
124.739
 10
588.705
 20
124.743
 10
588.691
 20
124.711
 10
588.691
 20
124.7
 10
588.691
 20
121.9
 10
588.691
 20
121.89
 10
588.705
 20
121.859
 10
588.726
 20
121.863
 10
588.73
 20
121.886
 10
588.698
 20
121.9
 10
588.691
 20
121.9
  0
LWPOLYLINE
  5
86
100
AcDbEntity
  8
0
  6
ByLayer
 62
    5
370
   -1
100
AcDbPolyline
 90
   29
 70
    1
 43
0
 10
597.789
 20
121.9
 10
594.889
 20
121.9
 10
594.879
 20
121.9
 10
594.847
 20
121.886
 10
594.854
 20
121.863
 10
594.875
 20
121.859
 10
594.889
 20
121.89
 10
594.889
 20
121.9
 10
594.889
 20
124.7
 10
594.889
 20
124.711
 10
594.875
 20
124.743
 10
594.854
 20
124.739
 10
594.847
 20
124.715
 10
594.879
 20
124.7
 10
594.889
 20
124.7
 10
600.689
 20
124.7
 10
600.699
 20
124.7
 10
600.731
 20
124.715
 10
600.728
 20
124.739
 10
600.703
 20
124.743
 10
600.689
 20
124.711
 10
600.689
 20
124.7
 10
600.689
 20
121.9
 10
600.689
 20
121.89
 10
600.703
 20
121.859
 10
600.728
 20
121.863
 10
600.731
 20
121.886
 10
600.699
 20
121.9
 10
600.689
 20
121.9
  0
LWPOLYLINE
  5
87
100
AcDbEntity
  8
0
  6
ByLayer
 62
    5
370
   -1
100
AcDbPolyline
 90
   29
 70
    1
 43
0
 10
609.7910000000001
 20
121.9
 10
606.891
 20
121.9
 10
606.88
 20
121.9
 10
606.848
 20
121.886
 10
606.852
 20
121.863
 10
606.873
 20
121.859
 10
606.891
 20
121.89
 10
606.891
 20
121.9
 10
606.891
 20
124.7
 10
606.891
 20
124.711
 10
606.873
 20
124.743
 10
606.852
 20
124.739
 10
606.848
 20
124.715
 10
606.88
 20
124.7
 10
606.891
 20
124.7
 10
612.6900000000001
 20
124.7
 10
612.701
 20
124.7
 10
612.7329999999999
 20
124.715
 10
612.726
 20
124.739
 10
612.704
 20
124.743
 10
612.6900000000001
 20
124.711
 10
612.6900000000001
 20
124.7
 10
612.6900000000001
 20
121.9
 10
612.6900000000001
 20
121.89
 10
612.704
 20
121.859
 10
612.726
 20
121.863
 10
612.7329999999999
 20
121.886
 10
612.701
 20
121.9
 10
612.6900000000001
 20
121.9
  0
TEXT
  5
88
100
AcDbEntity
  8
0
  6
ByLayer
 62
    1
370
   -1
100
AcDbText
 10
615.428
 20
58.8211
 30
0
 40
4.0005
  1
Guide
 50
0
 41
1
 51
0
  7
STANDARD
 71
    0
210
0
220
0
230
1
100
AcDbText
  0
LWPOLYLINE
  5
89
100
AcDbEntity
  8
0
  6
ByLayer
 62
    0
370
   -1
100
AcDbPolyline
 90
  168
 70
    1
 43
0
 10
619.266
 20
21.7
 10
625.2670000000001
 20
21.7
 10
625.2809999999999
 20
21.7
 10
625.337
 20
21.7303
 10
625.366
 20
21.784
 10
625.366
 20
21.8006
 10
625.366
 20
24.8006
 10
625.366
 20
94.6506
 10
625.366
 20
97.6507
 10
625.366
 20
97.6683
 10
625.337
 20
97.7209
 10
625.2809999999999
 20
97.74979999999999
 10
625.2670000000001
 20
97.74979999999999
 10
619.266
 20
97.74979999999999
 10
619.248
 20
97.74979999999999
 10
619.196
 20
97.7209
 10
619.164
 20
97.6683
 10
619.164
 20
97.6507
 10
619.164
 20
94.6506
 10
619.164
 20
92.82470000000001
 10
619.164
 20
92.8151
 10
619.178
 20
92.7834
 10
619.203
 20
92.7876
 10
619.206
 20
92.8109
 10
619.174
 20
92.82470000000001
 10
619.164
 20
92.82470000000001
 10
616.264
 20
92.82470000000001
 10
616.246
 20
92.82470000000001
 10
616.193
 20
92.7957
 10
616.165
 20
92.7435
 10
616.165
 20
92.7255
 10
616.165
 20
86.7255
 10
616.165
 20
86.7089
 10
616.193
 20
86.6553
 10
616.246
 20
86.6249
 10
616.264
 20
86.6249
 10
619.164
 20
86.6249
 10
619.174
 20
86.6249
 10
619.206
 20
86.6401
 10
619.203
 20
86.6634
 10
619.178
 20
86.66759999999999
 10
619.164
 20
86.63590000000001
 10
619.164
 20
86.6249
 10
619.164
 20
80.8246
 10
619.164
 20
80.815
 10
619.178
 20
80.7833
 10
619.203
 20
80.78749999999999
 10
619.206
 20
80.8108
 10
619.174
 20
80.8246
 10
619.164
 20
80.8246
 10
616.264
 20
80.8246
 10
616.246
 20
80.8246
 10
616.193
 20
80.79559999999999
 10
616.165
 20
80.74339999999999
 10
616.165
 20
80.72539999999999
 10
616.165
 20
74.72539999999999
 10
616.165
 20
74.7088
 10
616.193
 20
74.65519999999999
 10
616.246
 20
74.62479999999999
 10
616.264
 20
74.62479999999999
 10
619.164
 20
74.62479999999999
 10
619.174
 20
74.62479999999999
 10
619.206
 20
74.64
 10
619.203
 20
74.66370000000001
 10
619.178
 20
74.6675
 10
619.164
 20
74.6358
 10
619.164
 20
74.62479999999999
 10
619.164
 20
68.8248
 10
619.164
 20
68.81489999999999
 10
619.178
 20
68.78360000000001
 10
619.203
 20
68.78740000000001
 10
619.206
 20
68.8111
 10
619.174
 20
68.8248
 10
619.164
 20
68.8248
 10
616.264
 20
68.8248
 10
616.246
 20
68.8248
 10
616.193
 20
68.7959
 10
616.165
 20
68.7433
 10
616.165
 20
68.7257
 10
616.165
 20
62.7257
 10
616.165
 20
62.7091
 10
616.193
 20
62.6551
 10
616.246
 20
62.6251
 10
616.264
 20
62.6251
 10
619.164
 20
62.6251
 10
619.174
 20
62.6251
 10
619.206
 20
62.6403
 10
619.203
 20
62.6636
 10
619.178
 20
62.6678
 10
619.164
 20
62.636
 10
619.164
 20
62.6251
 10
619.164
 20
56.8247
 10
619.164
 20
56.8152
 10
619.178
 20
56.7835
 10
619.203
 20
56.7877
 10
619.206
 20
56.811
 10
619.174
 20
56.8247
 10
619.164
 20
56.8247
 10
616.264
 20
56.8247
 10
616.246
 20
56.8247
 10
616.193
 20
56.7958
 10
616.165
 20
56.7436
 10
616.165
 20
56.7256
 10
616.165
 20
50.7242
 10
616.165
 20
50.7076
 10
616.193
 20
50.6554
 10
616.246
 20
50.625
 10
616.264
 20
50.625
 10
619.164
 20
50.625
 10
619.174
 20
50.625
 10
619.206
 20
50.6402
 10
619.203
 20
50.6621
 10
619.178
 20
50.6677
 10
619.164
 20
50.636
 10
619.164
 20
50.625
 10
619.164
 20
44.825
 10
619.164
 20
44.8151
 10
619.178
 20
44.7834
 10
619.203
 20
44.7876
 10
619.206
 20
44.8109
 10
619.174
 20
44.825
 10
619.164
 20
44.825
 10
616.264
 20
44.825
 10
616.246
 20
44.825
 10
616.193
 20
44.7957
 10
616.165
 20
44.7435
 10
616.165
 20
44.7255
 10
616.165
 20
38.7255
 10
616.165
 20
38.7092
 10
616.193
 20
38.6553
 10
616.246
 20
38.6249
 10
616.264
 20
38.6249
 10
619.164
 20
38.6249
 10
619.174
 20
38.6249
 10
619.206
 20
38.6401
 10
619.203
 20
38.6637
 10
619.178
 20
38.6676
 10
619.164
 20
38.6362
 10
619.164
 20
38.6249
 10
619.164
 20
32.8249
 10
619.164
 20
32.8152
 10
619.178
 20
32.7835
 10
619.203
 20
32.7877
 10
619.206
 20
32.8111
 10
619.174
 20
32.8249
 10
619.164
 20
32.8249
 10
616.264
 20
32.8249
 10
616.246
 20
32.8249
 10
616.193
 20
32.7959
 10
616.165
 20
32.7436
 10
616.165
 20
32.7256
 10
616.165
 20
26.7257
 10
616.165
 20
26.7091
 10
616.193
 20
26.6554
 10
616.246
 20
26.6251
 10
616.264
 20
26.6251
 10
619.164
 20
26.6251
 10
619.174
 20
26.6251
 10
619.206
 20
26.6402
 10
619.203
 20
26.6637
 10
619.178
 20
26.6678
 10
619.164
 20
26.6361
 10
619.164
 20
26.6251
 10
619.164
 20
24.8006
 10
619.164
 20
21.8006
 10
619.164
 20
21.784
 10
619.196
 20
21.7303
 10
619.248
 20
21.7
  0
TEXT
  5
8A
100
AcDbEntity
  8
0
  6
ByLayer
 62
    1
370
   -1
100
AcDbText
 10
626.128
 20
58.8211
 30
0
 40
4.0005
  1
Guide
 50
0
 41
1
 51
0
  7
STANDARD
 71
    0
210
0
220
0
230
1
100
AcDbText
  0
LWPOLYLINE
  5
8B
100
AcDbEntity
  8
0
  6
ByLayer
 62
    0
370
   -1
100
AcDbPolyline
 90
  168
 70
    1
 43
0
 10
629.966
 20
21.7
 10
635.963
 20
21.7
 10
635.981
 20
21.7
 10
636.034
 20
21.7303
 10
636.0650000000001
 20
21.784
 10
636.0650000000001
 20
21.8006
 10
636.0650000000001
 20
24.8006
 10
636.0650000000001
 20
94.6506
 10
636.0650000000001
 20
97.6507
 10
636.0650000000001
 20
97.6683
 10
636.034
 20
97.7209
 10
635.981
 20
97.74979999999999
 10
635.963
 20
97.74979999999999
 10
629.966
 20
97.74979999999999
 10
629.948
 20
97.74979999999999
 10
629.895
 20
97.7209
 10
629.867
 20
97.6683
 10
629.867
 20
97.6507
 10
629.867
 20
94.6506
 10
629.867
 20
92.82470000000001
 10
629.867
 20
92.8151
 10
629.878
 20
92.7834
 10
629.902
 20
92.7876
 10
629.9059999999999
 20
92.8109
 10
629.874
 20
92.82470000000001
 10
629.867
 20
92.82470000000001
 10
626.9640000000001
 20
92.82470000000001
 10
626.946
 20
92.82470000000001
 10
626.893
 20
92.7957
 10
626.865
 20
92.7435
 10
626.865
 20
92.7255
 10
626.865
 20
86.7255
 10
626.865
 20
86.7089
 10
626.893
 20
86.6553
 10
626.946
 20
86.6249
 10
626.9640000000001
 20
86.6249
 10
629.867
 20
86.6249
 10
629.874
 20
86.6249
 10
629.9059999999999
 20
86.6401
 10
629.902
 20
86.6634
 10
629.878
 20
86.66759999999999
 10
629.867
 20
86.63590000000001
 10
629.867
 20
86.6249
 10
629.867
 20
80.8246
 10
629.867
 20
80.815
 10
629.878
 20
80.7833
 10
629.902
 20
80.78749999999999
 10
629.9059999999999
 20
80.8108
 10
629.874
 20
80.8246
 10
629.867
 20
80.8246
 10
626.9640000000001
 20
80.8246
 10
626.946
 20
80.8246
 10
626.893
 20
80.79559999999999
 10
626.865
 20
80.74339999999999
 10
626.865
 20
80.72539999999999
 10
626.865
 20
74.72539999999999
 10
626.865
 20
74.7088
 10
626.893
 20
74.65519999999999
 10
626.946
 20
74.62479999999999
 10
626.9640000000001
 20
74.62479999999999
 10
629.867
 20
74.62479999999999
 10
629.874
 20
74.62479999999999
 10
629.9059999999999
 20
74.64
 10
629.902
 20
74.66370000000001
 10
629.878
 20
74.6675
 10
629.867
 20
74.6358
 10
629.867
 20
74.62479999999999
 10
629.867
 20
68.8248
 10
629.867
 20
68.81489999999999
 10
629.878
 20
68.78360000000001
 10
629.902
 20
68.78740000000001
 10
629.9059999999999
 20
68.8111
 10
629.874
 20
68.8248
 10
629.867
 20
68.8248
 10
626.9640000000001
 20
68.8248
 10
626.946
 20
68.8248
 10
626.893
 20
68.7959
 10
626.865
 20
68.7433
 10
626.865
 20
68.7257
 10
626.865
 20
62.7257
 10
626.865
 20
62.7091
 10
626.893
 20
62.6551
 10
626.946
 20
62.6251
 10
626.9640000000001
 20
62.6251
 10
629.867
 20
62.6251
 10
629.874
 20
62.6251
 10
629.9059999999999
 20
62.6403
 10
629.902
 20
62.6636
 10
629.878
 20
62.6678
 10
629.867
 20
62.636
 10
629.867
 20
62.6251
 10
629.867
 20
56.8247
 10
629.867
 20
56.8152
 10
629.878
 20
56.7835
 10
629.902
 20
56.7877
 10
629.9059999999999
 20
56.811
 10
629.874
 20
56.8247
 10
629.867
 20
56.8247
 10
626.9640000000001
 20
56.8247
 10
626.946
 20
56.8247
 10
626.893
 20
56.7958
 10
626.865
 20
56.7436
 10
626.865
 20
56.7256
 10
626.865
 20
50.7242
 10
626.865
 20
50.7076
 10
626.893
 20
50.6554
 10
626.946
 20
50.625
 10
626.9640000000001
 20
50.625
 10
629.867
 20
50.625
 10
629.874
 20
50.625
 10
629.9059999999999
 20
50.6402
 10
629.902
 20
50.6621
 10
629.878
 20
50.6677
 10
629.867
 20
50.636
 10
629.867
 20
50.625
 10
629.867
 20
44.825
 10
629.867
 20
44.8151
 10
629.878
 20
44.7834
 10
629.902
 20
44.7876
 10
629.9059999999999
 20
44.8109
 10
629.874
 20
44.825
 10
629.867
 20
44.825
 10
626.9640000000001
 20
44.825
 10
626.946
 20
44.825
 10
626.893
 20
44.7957
 10
626.865
 20
44.7435
 10
626.865
 20
44.7255
 10
626.865
 20
38.7255
 10
626.865
 20
38.7092
 10
626.893
 20
38.6553
 10
626.946
 20
38.6249
 10
626.9640000000001
 20
38.6249
 10
629.867
 20
38.6249
 10
629.874
 20
38.6249
 10
629.9059999999999
 20
38.6401
 10
629.902
 20
38.6637
 10
629.878
 20
38.6676
 10
629.867
 20
38.6362
 10
629.867
 20
38.6249
 10
629.867
 20
32.8249
 10
629.867
 20
32.8152
 10
629.878
 20
32.7835
 10
629.902
 20
32.7877
 10
629.9059999999999
 20
32.8111
 10
629.874
 20
32.8249
 10
629.867
 20
32.8249
 10
626.9640000000001
 20
32.8249
 10
626.946
 20
32.8249
 10
626.893
 20
32.7959
 10
626.865
 20
32.7436
 10
626.865
 20
32.7256
 10
626.865
 20
26.7257
 10
626.865
 20
26.7091
 10
626.893
 20
26.6554
 10
626.946
 20
26.6251
 10
626.9640000000001
 20
26.6251
 10
629.867
 20
26.6251
 10
629.874
 20
26.6251
 10
629.9059999999999
 20
26.6402
 10
629.902
 20
26.6637
 10
629.878
 20
26.6678
 10
629.867
 20
26.6361
 10
629.867
 20
26.6251
 10
629.867
 20
24.8006
 10
629.867
 20
21.8006
 10
629.867
 20
21.784
 10
629.895
 20
21.7303
 10
629.948
 20
21.7
  0
TEXT
  5
8C
100
AcDbEntity
  8
0
  6
ByLayer
 62
    1
370
   -1
100
AcDbText
 10
633.829
 20
73.8964
 30
0
 40
4.0005
  1
Bottom Back
 50
0
 41
1
 51
0
  7
STANDARD
 71
    0
210
0
220
0
230
1
100
AcDbText
  0
LWPOLYLINE
  5
8D
100
AcDbEntity
  8
0
  6
ByLayer
 62
    0
370
   -1
100
AcDbPolyline
 90
  122
 70
    1
 43
0
 10
637.663
 20
21.7
 10
642.165
 20
21.7
 10
642.183
 20
21.7
 10
642.235
 20
21.7303
 10
642.264
 20
21.784
 10
642.264
 20
21.8006
 10
642.264
 20
24.6999
 10
642.264
 20
24.711
 10
642.25
 20
24.7427
 10
642.225
 20
24.7385
 10
642.221
 20
24.7151
 10
642.253
 20
24.6999
 10
642.264
 20
24.6999
 10
648.067
 20
24.6999
 10
648.074
 20
24.6999
 10
648.106
 20
24.7151
 10
648.102
 20
24.7385
 10
648.077
 20
24.7427
 10
648.067
 20
24.711
 10
648.067
 20
24.6999
 10
648.067
 20
21.8006
 10
648.067
 20
21.784
 10
648.095
 20
21.7303
 10
648.148
 20
21.7
 10
648.1660000000001
 20
21.7
 10
652.664
 20
21.7
 10
652.681
 20
21.7
 10
652.734
 20
21.7303
 10
652.766
 20
21.784
 10
652.766
 20
21.8006
 10
652.766
 20
24.8006
 10
652.766
 20
36.8004
 10
652.766
 20
37.0004
 10
652.713
 20
37.5984
 10
652.558
 20
38.3798
 10
652.3
 20
39.1336
 10
652.046
 20
39.678
 10
651.947
 20
39.8501
 10
651.849
 20
40.0237
 10
651.503
 20
40.5158
 10
650.977
 20
41.1138
 10
650.378
 20
41.6387
 10
649.8869999999999
 20
41.9834
 10
649.7140000000001
 20
42.0825
 10
649.545
 20
42.1792
 10
649.072
 20
42.5125
 10
648.494
 20
43.0209
 10
647.982
 20
43.5998
 10
647.651
 20
44.0754
 10
647.5549999999999
 20
44.2419
 10
647.46
 20
44.4101
 10
647.213
 20
44.9365
 10
646.966
 20
45.6653
 10
646.8150000000001
 20
46.422
 10
646.765
 20
47.0006
 10
646.765
 20
47.1921
 10
646.765
 20
102.408
 10
646.765
 20
102.602
 10
646.8150000000001
 20
103.18
 10
646.966
 20
103.936
 10
647.213
 20
104.665
 10
647.46
 20
105.191
 10
647.5549999999999
 20
105.358
 10
647.651
 20
105.525
 10
647.982
 20
106.002
 10
648.494
 20
106.58
 10
649.072
 20
107.089
 10
649.549
 20
107.421
 10
649.7140000000001
 20
107.517
 10
649.8869999999999
 20
107.618
 10
650.378
 20
107.962
 10
650.977
 20
108.487
 10
651.503
 20
109.086
 10
651.849
 20
109.577
 10
651.947
 20
109.75
 10
652.046
 20
109.923
 10
652.3
 20
110.468
 10
652.558
 20
111.221
 10
652.713
 20
112.003
 10
652.766
 20
112.601
 10
652.766
 20
112.799
 10
652.766
 20
124.801
 10
652.766
 20
127.801
 10
652.766
 20
127.818
 10
652.734
 20
127.871
 10
652.681
 20
127.9
 10
652.664
 20
127.9
 10
648.1660000000001
 20
127.9
 10
648.148
 20
127.9
 10
648.095
 20
127.871
 10
648.067
 20
127.818
 10
648.067
 20
127.801
 10
648.067
 20
124.9
 10
648.067
 20
124.89
 10
648.077
 20
124.859
 10
648.102
 20
124.863
 10
648.106
 20
124.886
 10
648.074
 20
124.9
 10
648.067
 20
124.9
 10
642.264
 20
124.9
 10
642.253
 20
124.9
 10
642.221
 20
124.886
 10
642.225
 20
124.863
 10
642.25
 20
124.859
 10
642.264
 20
124.89
 10
642.264
 20
124.9
 10
642.264
 20
127.801
 10
642.264
 20
127.818
 10
642.235
 20
127.871
 10
642.183
 20
127.9
 10
642.165
 20
127.9
 10
637.663
 20
127.9
 10
637.646
 20
127.9
 10
637.593
 20
127.871
 10
637.5650000000001
 20
127.818
 10
637.5650000000001
 20
127.801
 10
637.5650000000001
 20
124.801
 10
637.5650000000001
 20
24.8006
 10
637.5650000000001
 20
21.8006
 10
637.5650000000001
 20
21.784
 10
637.593
 20
21.7303
 10
637.646
 20
21.7
  0
LWPOLYLINE
  5
8E
100
AcDbEntity
  8
0
  6
ByLayer
 62
    5
370
   -1
100
AcDbPolyline
 90
   29
 70
    1
 43
0
 10
643.664
 20
32.8001
 10
643.664
 20
29.9007
 10
643.664
 20
29.891
 10
643.678
 20
29.8593
 10
643.703
 20
29.8634
 10
643.707
 20
29.8869
 10
643.675
 20
29.9007
 10
643.664
 20
29.9007
 10
640.867
 20
29.9007
 10
640.853
 20
29.9007
 10
640.821
 20
29.8869
 10
640.828
 20
29.8634
 10
640.849
 20
29.8593
 10
640.867
 20
29.891
 10
640.867
 20
29.9007
 10
640.867
 20
35.6993
 10
640.867
 20
35.7106
 10
640.849
 20
35.742
 10
640.828
 20
35.7382
 10
640.821
 20
35.7145
 10
640.853
 20
35.6993
 10
640.867
 20
35.6993
 10
643.664
 20
35.6993
 10
643.675
 20
35.6993
 10
643.707
 20
35.7145
 10
643.703
 20
35.7382
 10
643.678
 20
35.742
 10
643.664
 20
35.7106
 10
643.664
 20
35.6993
  0
LWPOLYLINE
  5
8F
100
AcDbEntity
  8
0
  6
ByLayer
 62
    5
370
   -1
100
AcDbPolyline
 90
   29
 70
    1
 43
0
 10
643.664
 20
44.8
 10
643.664
 20
41.9005
 10
643.664
 20
41.891
 10
643.678
 20
41.8592
 10
643.703
 20
41.8634
 10
643.707
 20
41.8867
 10
643.675
 20
41.9005
 10
643.664
 20
41.9005
 10
640.867
 20
41.9005
 10
640.853
 20
41.9005
 10
640.821
 20
41.8867
 10
640.828
 20
41.8634
 10
640.849
 20
41.8592
 10
640.867
 20
41.891
 10
640.867
 20
41.9005
 10
640.867
 20
47.7008
 10
640.867
 20
47.7118
 10
640.849
 20
47.7435
 10
640.828
 20
47.7379
 10
640.821
 20
47.716
 10
640.853
 20
47.7008
 10
640.867
 20
47.7008
 10
643.664
 20
47.7008
 10
643.675
 20
47.7008
 10
643.707
 20
47.716
 10
643.703
 20
47.7379
 10
643.678
 20
47.7435
 10
643.664
 20
47.7118
 10
643.664
 20
47.7008
  0
LWPOLYLINE
  5
90
100
AcDbEntity
  8
0
  6
ByLayer
 62
    5
370
   -1
100
AcDbPolyline
 90
   29
 70
    1
 43
0
 10
643.664
 20
56.8
 10
643.664
 20
53.8992
 10
643.664
 20
53.8896
 10
643.678
 20
53.8579
 10
643.703
 20
53.8621
 10
643.707
 20
53.8854
 10
643.675
 20
53.8992
 10
643.664
 20
53.8992
 10
640.867
 20
53.8992
 10
640.853
 20
53.8992
 10
640.821
 20
53.8854
 10
640.828
 20
53.8621
 10
640.849
 20
53.8579
 10
640.867
 20
53.8896
 10
640.867
 20
53.8992
 10
640.867
 20
59.6995
 10
640.867
 20
59.7105
 10
640.849
 20
59.7422
 10
640.828
 20
59.738
 10
640.821
 20
59.7147
 10
640.853
 20
59.6995
 10
640.867
 20
59.6995
 10
643.664
 20
59.6995
 10
643.675
 20
59.6995
 10
643.707
 20
59.7147
 10
643.703
 20
59.738
 10
643.678
 20
59.7422
 10
643.664
 20
59.7105
 10
643.664
 20
59.6995
  0
LWPOLYLINE
  5
91
100
AcDbEntity
  8
0
  6
ByLayer
 62
    5
370
   -1
100
AcDbPolyline
 90
   29
 70
    1
 43
0
 10
643.664
 20
68.7998
 10
643.664
 20
65.9007
 10
643.664
 20
65.8908
 10
643.678
 20
65.85939999999999
 10
643.703
 20
65.8633
 10
643.707
 20
65.8869
 10
643.675
 20
65.9007
 10
643.664
 20
65.9007
 10
640.867
 20
65.9007
 10
640.853
 20
65.9007
 10
640.821
 20
65.8869
 10
640.828
 20
65.8633
 10
640.849
 20
65.85939999999999
 10
640.867
 20
65.8908
 10
640.867
 20
65.9007
 10
640.867
 20
71.69929999999999
 10
640.867
 20
71.7102
 10
640.849
 20
71.7419
 10
640.828
 20
71.7381
 10
640.821
 20
71.7144
 10
640.853
 20
71.69929999999999
 10
640.867
 20
71.69929999999999
 10
643.664
 20
71.69929999999999
 10
643.675
 20
71.69929999999999
 10
643.707
 20
71.7144
 10
643.703
 20
71.7381
 10
643.678
 20
71.7419
 10
643.664
 20
71.7102
 10
643.664
 20
71.69929999999999
  0
LWPOLYLINE
  5
92
100
AcDbEntity
  8
0
  6
ByLayer
 62
    5
370
   -1
100
AcDbPolyline
 90
   29
 70
    1
 43
0
 10
643.664
 20
80.79989999999999
 10
643.664
 20
77.9004
 10
643.664
 20
77.8909
 10
643.678
 20
77.8591
 10
643.703
 20
77.8633
 10
643.707
 20
77.8866
 10
643.675
 20
77.9004
 10
643.664
 20
77.9004
 10
640.867
 20
77.9004
 10
640.853
 20
77.9004
 10
640.821
 20
77.8866
 10
640.828
 20
77.8633
 10
640.849
 20
77.8591
 10
640.867
 20
77.8909
 10
640.867
 20
77.9004
 10
640.867
 20
83.7008
 10
640.867
 20
83.71169999999999
 10
640.849
 20
83.74339999999999
 10
640.828
 20
83.73779999999999
 10
640.821
 20
83.7159
 10
640.853
 20
83.7008
 10
640.867
 20
83.7008
 10
643.664
 20
83.7008
 10
643.675
 20
83.7008
 10
643.707
 20
83.7159
 10
643.703
 20
83.73779999999999
 10
643.678
 20
83.74339999999999
 10
643.664
 20
83.71169999999999
 10
643.664
 20
83.7008
  0
LWPOLYLINE
  5
93
100
AcDbEntity
  8
0
  6
ByLayer
 62
    5
370
   -1
100
AcDbPolyline
 90
   29
 70
    1
 43
0
 10
643.664
 20
92.8
 10
643.664
 20
89.90049999999999
 10
643.664
 20
89.89100000000001
 10
643.678
 20
89.8592
 10
643.703
 20
89.8631
 10
643.707
 20
89.8867
 10
643.675
 20
89.90049999999999
 10
643.664
 20
89.90049999999999
 10
640.867
 20
89.90049999999999
 10
640.853
 20
89.90049999999999
 10
640.821
 20
89.8867
 10
640.828
 20
89.8631
 10
640.849
 20
89.8592
 10
640.867
 20
89.89100000000001
 10
640.867
 20
89.90049999999999
 10
640.867
 20
95.70050000000001
 10
640.867
 20
95.7118
 10
640.849
 20
95.7432
 10
640.828
 20
95.7379
 10
640.821
 20
95.7157
 10
640.853
 20
95.70050000000001
 10
640.867
 20
95.70050000000001
 10
643.664
 20
95.70050000000001
 10
643.675
 20
95.70050000000001
 10
643.707
 20
95.7157
 10
643.703
 20
95.7379
 10
643.678
 20
95.7432
 10
643.664
 20
95.7118
 10
643.664
 20
95.70050000000001
  0
LWPOLYLINE
  5
94
100
AcDbEntity
  8
0
  6
ByLayer
 62
    5
370
   -1
100
AcDbPolyline
 90
   29
 70
    1
 43
0
 10
643.664
 20
104.8
 10
643.664
 20
101.901
 10
643.664
 20
101.891
 10
643.678
 20
101.859
 10
643.703
 20
101.863
 10
643.707
 20
101.887
 10
643.675
 20
101.901
 10
643.664
 20
101.901
 10
640.867
 20
101.901
 10
640.853
 20
101.901
 10
640.821
 20
101.887
 10
640.828
 20
101.863
 10
640.849
 20
101.859
 10
640.867
 20
101.891
 10
640.867
 20
101.901
 10
640.867
 20
107.699
 10
640.867
 20
107.71
 10
640.849
 20
107.742
 10
640.828
 20
107.738
 10
640.821
 20
107.714
 10
640.853
 20
107.699
 10
640.867
 20
107.699
 10
643.664
 20
107.699
 10
643.675
 20
107.699
 10
643.707
 20
107.714
 10
643.703
 20
107.738
 10
643.678
 20
107.742
 10
643.664
 20
107.71
 10
643.664
 20
107.699
  0
LWPOLYLINE
  5
95
100
AcDbEntity
  8
0
  6
ByLayer
 62
    5
370
   -1
100
AcDbPolyline
 90
   29
 70
    1
 43
0
 10
643.664
 20
116.8
 10
643.664
 20
113.9
 10
643.664
 20
113.891
 10
643.678
 20
113.859
 10
643.703
 20
113.863
 10
643.707
 20
113.887
 10
643.675
 20
113.9
 10
643.664
 20
113.9
 10
640.867
 20
113.9
 10
640.853
 20
113.9
 10
640.821
 20
113.887
 10
640.828
 20
113.863
 10
640.849
 20
113.859
 10
640.867
 20
113.891
 10
640.867
 20
113.9
 10
640.867
 20
119.701
 10
640.867
 20
119.712
 10
640.849
 20
119.743
 10
640.828
 20
119.738
 10
640.821
 20
119.716
 10
640.853
 20
119.701
 10
640.867
 20
119.701
 10
643.664
 20
119.701
 10
643.675
 20
119.701
 10
643.707
 20
119.716
 10
643.703
 20
119.738
 10
643.678
 20
119.743
 10
643.664
 20
119.712
 10
643.664
 20
119.701
  0
LWPOLYLINE
  5
96
100
AcDbEntity
  8
0
  6
ByLayer
 62
    0
370
   -1
100
AcDbPolyline
 90
   68
 70
    1
 43
0
 10
663.367
 20
24.6999
 10
663.367
 20
118.55
 10
663.367
 20
118.568
 10
663.335
 20
118.622
 10
663.282
 20
118.65
 10
663.265
 20
118.65
 10
660.365
 20
118.65
 10
660.354
 20
118.65
 10
660.322
 20
118.637
 10
660.326
 20
118.613
 10
660.351
 20
118.609
 10
660.365
 20
118.641
 10
660.365
 20
118.65
 10
660.365
 20
121.55
 10
660.365
 20
121.568
 10
660.336
 20
121.622
 10
660.28
 20
121.65
 10
660.266
 20
121.65
 10
657.264
 20
121.65
 10
657.246
 20
121.65
 10
657.193
 20
121.622
 10
657.165
 20
121.568
 10
657.165
 20
121.55
 10
657.165
 20
118.65
 10
657.165
 20
118.641
 10
657.179
 20
118.609
 10
657.2
 20
118.613
 10
657.207
 20
118.637
 10
657.176
 20
118.65
 10
657.165
 20
118.65
 10
654.265
 20
118.65
 10
654.248
 20
118.65
 10
654.1950000000001
 20
118.622
 10
654.163
 20
118.568
 10
654.163
 20
118.55
 10
654.163
 20
24.6999
 10
654.163
 20
24.6834
 10
654.1950000000001
 20
24.6297
 10
654.248
 20
24.5994
 10
654.265
 20
24.5994
 10
657.165
 20
24.5994
 10
657.176
 20
24.5994
 10
657.207
 20
24.6145
 10
657.2
 20
24.6379
 10
657.179
 20
24.6421
 10
657.165
 20
24.6104
 10
657.165
 20
24.5994
 10
657.165
 20
21.7
 10
657.165
 20
21.6834
 10
657.193
 20
21.6297
 10
657.246
 20
21.5994
 10
657.264
 20
21.5994
 10
660.266
 20
21.5994
 10
660.28
 20
21.5994
 10
660.336
 20
21.6297
 10
660.365
 20
21.6834
 10
660.365
 20
21.7
 10
660.365
 20
24.5994
 10
660.365
 20
24.6104
 10
660.351
 20
24.6421
 10
660.326
 20
24.6379
 10
660.322
 20
24.6145
 10
660.354
 20
24.5994
 10
660.365
 20
24.5994
 10
663.265
 20
24.5994
 10
663.282
 20
24.5994
 10
663.335
 20
24.6297
 10
663.367
 20
24.6834
  0
LWPOLYLINE
  5
97
100
AcDbEntity
  8
0
  6
ByLayer
 62
    0
370
   -1
100
AcDbPolyline
 90
   68
 70
    1
 43
0
 10
674.063
 20
24.6999
 10
674.063
 20
118.55
 10
674.063
 20
118.568
 10
674.035
 20
118.622
 10
673.982
 20
118.65
 10
673.9640000000001
 20
118.65
 10
671.064
 20
118.65
 10
671.054
 20
118.65
 10
671.022
 20
118.637
 10
671.029
 20
118.613
 10
671.05
 20
118.609
 10
671.064
 20
118.641
 10
671.064
 20
118.65
 10
671.064
 20
121.55
 10
671.064
 20
121.568
 10
671.0359999999999
 20
121.622
 10
670.9829999999999
 20
121.65
 10
670.966
 20
121.65
 10
667.967
 20
121.65
 10
667.946
 20
121.65
 10
667.893
 20
121.622
 10
667.865
 20
121.568
 10
667.865
 20
121.55
 10
667.865
 20
118.65
 10
667.865
 20
118.641
 10
667.879
 20
118.609
 10
667.904
 20
118.613
 10
667.907
 20
118.637
 10
667.875
 20
118.65
 10
667.865
 20
118.65
 10
664.965
 20
118.65
 10
664.947
 20
118.65
 10
664.894
 20
118.622
 10
664.866
 20
118.568
 10
664.866
 20
118.55
 10
664.866
 20
24.6999
 10
664.866
 20
24.6834
 10
664.894
 20
24.6297
 10
664.947
 20
24.5994
 10
664.965
 20
24.5994
 10
667.865
 20
24.5994
 10
667.875
 20
24.5994
 10
667.907
 20
24.6145
 10
667.904
 20
24.6379
 10
667.879
 20
24.6421
 10
667.865
 20
24.6104
 10
667.865
 20
24.5994
 10
667.865
 20
21.7
 10
667.865
 20
21.6834
 10
667.893
 20
21.6297
 10
667.946
 20
21.5994
 10
667.967
 20
21.5994
 10
670.966
 20
21.5994
 10
670.9829999999999
 20
21.5994
 10
671.0359999999999
 20
21.6297
 10
671.064
 20
21.6834
 10
671.064
 20
21.7
 10
671.064
 20
24.5994
 10
671.064
 20
24.6104
 10
671.05
 20
24.6421
 10
671.029
 20
24.6379
 10
671.022
 20
24.6145
 10
671.054
 20
24.5994
 10
671.064
 20
24.5994
 10
673.9640000000001
 20
24.5994
 10
673.982
 20
24.5994
 10
674.035
 20
24.6297
 10
674.063
 20
24.6834
  0
LWPOLYLINE
  5
98
100
AcDbEntity
  8
0
  6
ByLayer
 62
    0
370
   -1
100
AcDbPolyline
 90
  151
 70
    0
 43
0
 10
712.452
 20
27.6999
 10
712.452
 20
24.6999
 10
712.452
 20
24.6834
 10
712.484
 20
24.6297
 10
712.537
 20
24.5994
 10
712.5549999999999
 20
24.5994
 10
718.5549999999999
 20
24.5994
 10
718.5700000000001
 20
24.5994
 10
718.626
 20
24.6297
 10
718.654
 20
24.6834
 10
718.654
 20
24.6999
 10
718.654
 20
27.5994
 10
718.654
 20
27.6104
 10
718.64
 20
27.6421
 10
718.615
 20
27.638
 10
718.612
 20
27.6145
 10
718.644
 20
27.5994
 10
718.654
 20
27.5994
 10
749.145
 20
27.5994
 10
749.155
 20
27.5994
 10
749.187
 20
27.6145
 10
749.1799999999999
 20
27.638
 10
749.159
 20
27.6421
 10
749.145
 20
27.6104
 10
749.145
 20
27.5994
 10
749.145
 20
23.2006
 10
749.145
 20
23.0973
 10
749.198
 20
22.7873
 10
749.321
 20
22.462
 10
749.356
 20
22.4
 10
749.3920000000001
 20
22.3394
 10
749.61
 20
22.0693
 10
749.8819999999999
 20
21.8502
 10
749.942
 20
21.8143
 10
750.006
 20
21.7799
 10
750.33
 20
21.6545
 10
750.641
 20
21.5994
 10
750.7430000000001
 20
21.5994
 10
753.745
 20
21.5994
 10
753.847
 20
21.5994
 10
754.158
 20
21.6545
 10
754.482
 20
21.7799
 10
754.542
 20
21.8143
 10
754.606
 20
21.8502
 10
754.874
 20
22.0693
 10
755.093
 20
22.3394
 10
755.128
 20
22.4
 10
755.163
 20
22.462
 10
755.29
 20
22.7873
 10
755.343
 20
23.0973
 10
755.343
 20
23.2006
 10
755.343
 20
26.2006
 10
755.343
 20
26.2185
 10
755.3150000000001
 20
26.2709
 10
755.258
 20
26.2999
 10
755.244
 20
26.2999
 10
753.8440000000001
 20
26.2999
 10
753.833
 20
26.2999
 10
753.801
 20
26.2861
 10
753.8049999999999
 20
26.2626
 10
753.83
 20
26.2585
 10
753.8440000000001
 20
26.2902
 10
753.8440000000001
 20
26.2999
 10
753.8440000000001
 20
27.6999
 10
753.8440000000001
 20
27.6834
 10
753.816
 20
27.6297
 10
753.759
 20
27.5994
 10
753.745
 20
27.5994
 10
753.847
 20
27.5994
 10
754.158
 20
27.6545
 10
754.482
 20
27.7799
 10
754.542
 20
27.8143
 10
754.606
 20
27.8501
 10
754.874
 20
28.0693
 10
755.093
 20
28.3393
 10
755.128
 20
28.4
 10
755.163
 20
28.4606
 10
755.29
 20
28.7859
 10
755.343
 20
29.0973
 10
755.343
 20
29.2006
 10
755.343
 20
29.2185
 10
755.3150000000001
 20
29.2709
 10
755.258
 20
29.2999
 10
755.244
 20
29.2999
 10
675.866
 20
29.2999
 10
675.848
 20
29.2999
 10
675.795
 20
29.2709
 10
675.763
 20
29.2185
 10
675.763
 20
29.2006
 10
675.763
 20
29.0973
 10
675.8200000000001
 20
28.7859
 10
675.943
 20
28.4606
 10
675.979
 20
28.4
 10
676.014
 20
28.3393
 10
676.2329999999999
 20
28.0693
 10
676.504
 20
27.8501
 10
676.564
 20
27.8143
 10
676.624
 20
27.7799
 10
676.949
 20
27.6545
 10
677.259
 20
27.5994
 10
677.365
 20
27.5994
 10
677.347
 20
27.5994
 10
677.295
 20
27.6297
 10
677.263
 20
27.6834
 10
677.263
 20
27.6999
 10
677.263
 20
26.2999
 10
677.263
 20
26.2902
 10
677.277
 20
26.2585
 10
677.302
 20
26.2626
 10
677.3049999999999
 20
26.2861
 10
677.273
 20
26.2999
 10
677.263
 20
26.2999
 10
675.866
 20
26.2999
 10
675.848
 20
26.2999
 10
675.795
 20
26.2709
 10
675.763
 20
26.2185
 10
675.763
 20
26.2006
 10
675.763
 20
23.2006
 10
675.763
 20
23.0973
 10
675.8200000000001
 20
22.7873
 10
675.943
 20
22.462
 10
675.979
 20
22.4
 10
676.014
 20
22.3394
 10
676.2329999999999
 20
22.0693
 10
676.504
 20
21.8502
 10
676.564
 20
21.8143
 10
676.624
 20
21.7799
 10
676.949
 20
21.6545
 10
677.259
 20
21.5994
 10
677.365
 20
21.5994
 10
680.364
 20
21.5994
 10
680.47
 20
21.5994
 10
680.78
 20
21.6545
 10
681.105
 20
21.7799
 10
681.164
 20
21.8143
 10
681.228
 20
21.8502
 10
681.496
 20
22.0693
 10
681.715
 20
22.3394
 10
681.75
 20
22.4
 10
681.785
 20
22.462
 10
681.909
 20
22.7873
 10
681.965
 20
23.0973
 10
681.965
 20
23.2006
 10
681.965
 20
27.5994
 10
681.965
 20
27.6104
 10
681.951
 20
27.6421
 10
681.927
 20
27.638
 10
681.923
 20
27.6145
 10
681.955
 20
27.5994
 10
681.965
 20
27.5994
 10
712.5549999999999
 20
27.5994
  0
LWPOLYLINE
  5
99
100
AcDbEntity
  8
0
  6
ByLayer
 62
    0
370
   -1
100
AcDbPolyline
 90
  151
 70
    0
 43
0
 10
712.452
 20
36.8998
 10
712.452
 20
33.8998
 10
712.452
 20
33.8832
 10
712.484
 20
33.8294
 10
712.537
 20
33.8005
 10
712.5549999999999
 20
33.8005
 10
718.5549999999999
 20
33.8005
 10
718.5700000000001
 20
33.8005
 10
718.626
 20
33.8294
 10
718.654
 20
33.8832
 10
718.654
 20
33.8998
 10
718.654
 20
36.8004
 10
718.654
 20
36.8117
 10
718.64
 20
36.8434
 10
718.615
 20
36.8378
 10
718.612
 20
36.8155
 10
718.644
 20
36.8004
 10
718.654
 20
36.8004
 10
749.145
 20
36.8004
 10
749.155
 20
36.8004
 10
749.187
 20
36.8155
 10
749.1799999999999
 20
36.8378
 10
749.159
 20
36.8434
 10
749.145
 20
36.8117
 10
749.145
 20
36.8004
 10
749.145
 20
32.4005
 10
749.145
 20
32.2971
 10
749.198
 20
31.987
 10
749.321
 20
31.6618
 10
749.356
 20
31.5998
 10
749.3920000000001
 20
31.5391
 10
749.61
 20
31.2691
 10
749.8819999999999
 20
31.0499
 10
749.942
 20
31.0141
 10
750.006
 20
30.9797
 10
750.33
 20
30.8556
 10
750.641
 20
30.8005
 10
750.7430000000001
 20
30.8005
 10
753.745
 20
30.8005
 10
753.847
 20
30.8005
 10
754.158
 20
30.8556
 10
754.482
 20
30.9797
 10
754.542
 20
31.0141
 10
754.606
 20
31.0499
 10
754.874
 20
31.2691
 10
755.093
 20
31.5391
 10
755.128
 20
31.5998
 10
755.163
 20
31.6618
 10
755.29
 20
31.987
 10
755.343
 20
32.2971
 10
755.343
 20
32.4005
 10
755.343
 20
35.4005
 10
755.343
 20
35.4182
 10
755.3150000000001
 20
35.4707
 10
755.258
 20
35.4997
 10
755.244
 20
35.4997
 10
753.8440000000001
 20
35.4997
 10
753.833
 20
35.4997
 10
753.801
 20
35.4859
 10
753.8049999999999
 20
35.4623
 10
753.83
 20
35.4584
 10
753.8440000000001
 20
35.4901
 10
753.8440000000001
 20
35.4997
 10
753.8440000000001
 20
36.8998
 10
753.8440000000001
 20
36.8833
 10
753.816
 20
36.8293
 10
753.759
 20
36.8004
 10
753.745
 20
36.8004
 10
753.847
 20
36.8004
 10
754.158
 20
36.8558
 10
754.482
 20
36.9796
 10
754.542
 20
37.0141
 10
754.606
 20
37.0498
 10
754.874
 20
37.2692
 10
755.093
 20
37.5391
 10
755.128
 20
37.5998
 10
755.163
 20
37.6619
 10
755.29
 20
37.9871
 10
755.343
 20
38.2972
 10
755.343
 20
38.4006
 10
755.343
 20
38.4182
 10
755.3150000000001
 20
38.4708
 10
755.258
 20
38.4997
 10
755.244
 20
38.4997
 10
675.866
 20
38.4997
 10
675.848
 20
38.4997
 10
675.795
 20
38.4708
 10
675.763
 20
38.4182
 10
675.763
 20
38.4006
 10
675.763
 20
38.2972
 10
675.8200000000001
 20
37.9871
 10
675.943
 20
37.6619
 10
675.979
 20
37.5998
 10
676.014
 20
37.5391
 10
676.2329999999999
 20
37.2692
 10
676.504
 20
37.0498
 10
676.564
 20
37.0141
 10
676.624
 20
36.9796
 10
676.949
 20
36.8558
 10
677.259
 20
36.8004
 10
677.365
 20
36.8004
 10
677.347
 20
36.8004
 10
677.295
 20
36.8293
 10
677.263
 20
36.8833
 10
677.263
 20
36.8998
 10
677.263
 20
35.4997
 10
677.263
 20
35.4901
 10
677.277
 20
35.4584
 10
677.302
 20
35.4623
 10
677.3049999999999
 20
35.4859
 10
677.273
 20
35.4997
 10
677.263
 20
35.4997
 10
675.866
 20
35.4997
 10
675.848
 20
35.4997
 10
675.795
 20
35.4707
 10
675.763
 20
35.4182
 10
675.763
 20
35.4005
 10
675.763
 20
32.4005
 10
675.763
 20
32.2971
 10
675.8200000000001
 20
31.987
 10
675.943
 20
31.6618
 10
675.979
 20
31.5998
 10
676.014
 20
31.5391
 10
676.2329999999999
 20
31.2691
 10
676.504
 20
31.0499
 10
676.564
 20
31.0141
 10
676.624
 20
30.9797
 10
676.949
 20
30.8556
 10
677.259
 20
30.8005
 10
677.365
 20
30.8005
 10
680.364
 20
30.8005
 10
680.47
 20
30.8005
 10
680.78
 20
30.8556
 10
681.105
 20
30.9797
 10
681.164
 20
31.0141
 10
681.228
 20
31.0499
 10
681.496
 20
31.2691
 10
681.715
 20
31.5391
 10
681.75
 20
31.5998
 10
681.785
 20
31.6618
 10
681.909
 20
31.987
 10
681.965
 20
32.2971
 10
681.965
 20
32.4005
 10
681.965
 20
36.8004
 10
681.965
 20
36.8117
 10
681.951
 20
36.8434
 10
681.927
 20
36.8378
 10
681.923
 20
36.8155
 10
681.955
 20
36.8004
 10
681.965
 20
36.8004
 10
712.5549999999999
 20
36.8004
  0
LWPOLYLINE
  5
9A
100
AcDbEntity
  8
0
  6
ByLayer
 62
    5
370
   -1
100
AcDbPolyline
 90
   29
 70
    1
 43
0
 10
684.766
 20
43.1243
 10
680.364
 20
43.1243
 10
680.353
 20
43.1243
 10
680.321
 20
43.1105
 10
680.325
 20
43.0872
 10
680.35
 20
43.083
 10
680.364
 20
43.1147
 10
680.364
 20
43.1243
 10
680.364
 20
46.0745
 10
680.364
 20
46.0858
 10
680.35
 20
46.1176
 10
680.325
 20
46.1133
 10
680.321
 20
46.0897
 10
680.353
 20
46.0745
 10
680.364
 20
46.0745
 10
689.1660000000001
 20
46.0745
 10
689.176
 20
46.0745
 10
689.208
 20
46.0897
 10
689.201
 20
46.1133
 10
689.1799999999999
 20
46.1176
 10
689.1660000000001
 20
46.0858
 10
689.1660000000001
 20
46.0745
 10
689.1660000000001
 20
43.1243
 10
689.1660000000001
 20
43.1147
 10
689.1799999999999
 20
43.083
 10
689.201
 20
43.0872
 10
689.208
 20
43.1105
 10
689.176
 20
43.1243
 10
689.1660000000001
 20
43.1243
  0
LWPOLYLINE
  5
9B
100
AcDbEntity
  8
0
  6
ByLayer
 62
    5
370
   -1
100
AcDbPolyline
 90
   29
 70
    1
 43
0
 10
758.144
 20
43.1243
 10
753.745
 20
43.1243
 10
753.734
 20
43.1243
 10
753.703
 20
43.1105
 10
753.706
 20
43.0872
 10
753.727
 20
43.083
 10
753.745
 20
43.1147
 10
753.745
 20
43.1243
 10
753.745
 20
46.0745
 10
753.745
 20
46.0858
 10
753.727
 20
46.1176
 10
753.706
 20
46.1133
 10
753.703
 20
46.0897
 10
753.734
 20
46.0745
 10
753.745
 20
46.0745
 10
762.543
 20
46.0745
 10
762.554
 20
46.0745
 10
762.586
 20
46.0897
 10
762.582
 20
46.1133
 10
762.557
 20
46.1176
 10
762.543
 20
46.0858
 10
762.543
 20
46.0745
 10
762.543
 20
43.1243
 10
762.543
 20
43.1147
 10
762.557
 20
43.083
 10
762.582
 20
43.0872
 10
762.586
 20
43.1105
 10
762.554
 20
43.1243
 10
762.543
 20
43.1243
  0
LWPOLYLINE
  5
9C
100
AcDbEntity
  8
0
  6
ByLayer
 62
    5
370
   -1
100
AcDbPolyline
 90
   29
 70
    1
 43
0
 10
721.455
 20
43.2001
 10
718.5549999999999
 20
43.2001
 10
718.545
 20
43.2001
 10
718.513
 20
43.1863
 10
718.5170000000001
 20
43.1631
 10
718.538
 20
43.1588
 10
718.5549999999999
 20
43.1906
 10
718.5549999999999
 20
43.2001
 10
718.5549999999999
 20
46.0005
 10
718.5549999999999
 20
46.0114
 10
718.538
 20
46.0431
 10
718.5170000000001
 20
46.0375
 10
718.513
 20
46.0156
 10
718.545
 20
46.0005
 10
718.5549999999999
 20
46.0005
 10
724.355
 20
46.0005
 10
724.366
 20
46.0005
 10
724.397
 20
46.0156
 10
724.39
 20
46.0375
 10
724.369
 20
46.0431
 10
724.355
 20
46.0114
 10
724.355
 20
46.0005
 10
724.355
 20
43.2001
 10
724.355
 20
43.1906
 10
724.369
 20
43.1588
 10
724.39
 20
43.1631
 10
724.397
 20
43.1863
 10
724.366
 20
43.2001
 10
724.355
 20
43.2001
  0
LWPOLYLINE
  5
9D
100
AcDbEntity
  8
0
  6
ByLayer
 62
    0
370
   -1
100
AcDbPolyline
 90
   68
 70
    1
 43
0
 10
675.763
 20
40.0995
 10
767.144
 20
40.0995
 10
767.1609999999999
 20
40.0995
 10
767.2140000000001
 20
40.1299
 10
767.242
 20
40.1835
 10
767.242
 20
40.2001
 10
767.242
 20
43.2001
 10
767.242
 20
43.2181
 10
767.2140000000001
 20
43.2703
 10
767.1609999999999
 20
43.2992
 10
767.144
 20
43.2992
 10
764.244
 20
43.2992
 10
764.2329999999999
 20
43.2992
 10
764.201
 20
43.2855
 10
764.205
 20
43.2622
 10
764.23
 20
43.258
 10
764.244
 20
43.2897
 10
764.244
 20
43.2992
 10
764.244
 20
46.0996
 10
764.244
 20
46.1105
 10
764.23
 20
46.1423
 10
764.205
 20
46.138
 10
764.201
 20
46.1148
 10
764.2329999999999
 20
46.0996
 10
764.244
 20
46.0996
 10
767.144
 20
46.0996
 10
767.1609999999999
 20
46.0996
 10
767.2140000000001
 20
46.1299
 10
767.242
 20
46.1836
 10
767.242
 20
46.2001
 10
767.242
 20
49.2002
 10
767.242
 20
49.2181
 10
767.2140000000001
 20
49.2704
 10
767.1609999999999
 20
49.2993
 10
767.144
 20
49.2993
 10
675.763
 20
49.2993
 10
675.746
 20
49.2993
 10
675.693
 20
49.2704
 10
675.665
 20
49.2181
 10
675.665
 20
49.2002
 10
675.665
 20
46.2001
 10
675.665
 20
46.1836
 10
675.693
 20
46.1299
 10
675.746
 20
46.0996
 10
675.763
 20
46.0996
 10
678.663
 20
46.0996
 10
678.674
 20
46.0996
 10
678.706
 20
46.1148
 10
678.702
 20
46.138
 10
678.677
 20
46.1423
 10
678.663
 20
46.1105
 10
678.663
 20
46.0996
 10
678.663
 20
43.2992
 10
678.663
 20
43.2897
 10
678.677
 20
43.258
 10
678.702
 20
43.2622
 10
678.706
 20
43.2855
 10
678.674
 20
43.2992
 10
678.663
 20
43.2992
 10
675.763
 20
43.2992
 10
675.746
 20
43.2992
 10
675.693
 20
43.2703
 10
675.665
 20
43.2181
 10
675.665
 20
43.2001
 10
675.665
 20
40.2001
 10
675.665
 20
40.1835
 10
675.693
 20
40.1299
 10
675.746
 20
40.0995
  0
LWPOLYLINE
  5
9E
100
AcDbEntity
  8
0
  6
ByLayer
 62
    5
370
   -1
100
AcDbPolyline
 90
   29
 70
    1
 43
0
 10
684.766
 20
53.8247
 10
680.364
 20
53.8247
 10
680.353
 20
53.8247
 10
680.321
 20
53.811
 10
680.325
 20
53.7877
 10
680.35
 20
53.7834
 10
680.364
 20
53.8152
 10
680.364
 20
53.8247
 10
680.364
 20
56.7754
 10
680.364
 20
56.7863
 10
680.35
 20
56.818
 10
680.325
 20
56.8124
 10
680.321
 20
56.7902
 10
680.353
 20
56.7754
 10
680.364
 20
56.7754
 10
689.1660000000001
 20
56.7754
 10
689.176
 20
56.7754
 10
689.208
 20
56.7902
 10
689.201
 20
56.8124
 10
689.1799999999999
 20
56.818
 10
689.1660000000001
 20
56.7863
 10
689.1660000000001
 20
56.7754
 10
689.1660000000001
 20
53.8247
 10
689.1660000000001
 20
53.8152
 10
689.1799999999999
 20
53.7834
 10
689.201
 20
53.7877
 10
689.208
 20
53.811
 10
689.176
 20
53.8247
 10
689.1660000000001
 20
53.8247
  0
LWPOLYLINE
  5
9F
100
AcDbEntity
  8
0
  6
ByLayer
 62
    5
370
   -1
100
AcDbPolyline
 90
   29
 70
    1
 43
0
 10
758.144
 20
53.8247
 10
753.745
 20
53.8247
 10
753.734
 20
53.8247
 10
753.703
 20
53.811
 10
753.706
 20
53.7877
 10
753.727
 20
53.7834
 10
753.745
 20
53.8152
 10
753.745
 20
53.8247
 10
753.745
 20
56.7754
 10
753.745
 20
56.7863
 10
753.727
 20
56.818
 10
753.706
 20
56.8124
 10
753.703
 20
56.7902
 10
753.734
 20
56.7754
 10
753.745
 20
56.7754
 10
762.543
 20
56.7754
 10
762.554
 20
56.7754
 10
762.586
 20
56.7902
 10
762.582
 20
56.8124
 10
762.557
 20
56.818
 10
762.543
 20
56.7863
 10
762.543
 20
56.7754
 10
762.543
 20
53.8247
 10
762.543
 20
53.8152
 10
762.557
 20
53.7834
 10
762.582
 20
53.7877
 10
762.586
 20
53.811
 10
762.554
 20
53.8247
 10
762.543
 20
53.8247
  0
LWPOLYLINE
  5
A0
100
AcDbEntity
  8
0
  6
ByLayer
 62
    5
370
   -1
100
AcDbPolyline
 90
   29
 70
    1
 43
0
 10
721.455
 20
53.8992
 10
718.5549999999999
 20
53.8992
 10
718.545
 20
53.8992
 10
718.513
 20
53.8854
 10
718.5170000000001
 20
53.8621
 10
718.538
 20
53.8579
 10
718.5549999999999
 20
53.8896
 10
718.5549999999999
 20
53.8992
 10
718.5549999999999
 20
56.6995
 10
718.5549999999999
 20
56.7104
 10
718.538
 20
56.7422
 10
718.5170000000001
 20
56.738
 10
718.513
 20
56.7147
 10
718.545
 20
56.6995
 10
718.5549999999999
 20
56.6995
 10
724.355
 20
56.6995
 10
724.366
 20
56.6995
 10
724.397
 20
56.7147
 10
724.39
 20
56.738
 10
724.369
 20
56.7422
 10
724.355
 20
56.7104
 10
724.355
 20
56.6995
 10
724.355
 20
53.8992
 10
724.355
 20
53.8896
 10
724.369
 20
53.8579
 10
724.39
 20
53.8621
 10
724.397
 20
53.8854
 10
724.366
 20
53.8992
 10
724.355
 20
53.8992
  0
LWPOLYLINE
  5
A1
100
AcDbEntity
  8
0
  6
ByLayer
 62
    0
370
   -1
100
AcDbPolyline
 90
   68
 70
    1
 43
0
 10
675.763
 20
50.8
 10
767.144
 20
50.8
 10
767.1609999999999
 20
50.8
 10
767.2140000000001
 20
50.8303
 10
767.242
 20
50.8825
 10
767.242
 20
50.8991
 10
767.242
 20
53.8992
 10
767.242
 20
53.9171
 10
767.2140000000001
 20
53.9708
 10
767.1609999999999
 20
53.9997
 10
767.144
 20
53.9997
 10
764.244
 20
53.9997
 10
764.2329999999999
 20
53.9997
 10
764.201
 20
53.9859
 10
764.205
 20
53.9627
 10
764.23
 20
53.9584
 10
764.244
 20
53.9902
 10
764.244
 20
53.9997
 10
764.244
 20
56.8
 10
764.244
 20
56.811
 10
764.23
 20
56.8427
 10
764.205
 20
56.8371
 10
764.201
 20
56.8152
 10
764.2329999999999
 20
56.8
 10
764.244
 20
56.8
 10
767.144
 20
56.8
 10
767.1609999999999
 20
56.8
 10
767.2140000000001
 20
56.8304
 10
767.242
 20
56.8826
 10
767.242
 20
56.8992
 10
767.242
 20
59.9006
 10
767.242
 20
59.9186
 10
767.2140000000001
 20
59.9708
 10
767.1609999999999
 20
59.9997
 10
767.144
 20
59.9997
 10
675.763
 20
59.9997
 10
675.746
 20
59.9997
 10
675.693
 20
59.9708
 10
675.665
 20
59.9186
 10
675.665
 20
59.9006
 10
675.665
 20
56.8992
 10
675.665
 20
56.8826
 10
675.693
 20
56.8304
 10
675.746
 20
56.8
 10
675.763
 20
56.8
 10
678.663
 20
56.8
 10
678.674
 20
56.8
 10
678.706
 20
56.8152
 10
678.702
 20
56.8371
 10
678.677
 20
56.8427
 10
678.663
 20
56.811
 10
678.663
 20
56.8
 10
678.663
 20
53.9997
 10
678.663
 20
53.9902
 10
678.677
 20
53.9584
 10
678.702
 20
53.9627
 10
678.706
 20
53.9859
 10
678.674
 20
53.9997
 10
678.663
 20
53.9997
 10
675.763
 20
53.9997
 10
675.746
 20
53.9997
 10
675.693
 20
53.9708
 10
675.665
 20
53.9171
 10
675.665
 20
53.8992
 10
675.665
 20
50.8991
 10
675.665
 20
50.8825
 10
675.693
 20
50.8303
 10
675.746
 20
50.8
  0
LWPOLYLINE
  5
A2
100
AcDbEntity
  8
0
  6
ByLayer
 62
    0
370
   -1
100
AcDbPolyline
 90
  118
 70
    1
 43
0
 10
675.763
 20
65.0998
 10
678.663
 20
65.0998
 10
678.674
 20
65.0998
 10
678.706
 20
65.11499999999999
 10
678.702
 20
65.1387
 10
678.677
 20
65.1425
 10
678.663
 20
65.1108
 10
678.663
 20
65.0998
 10
678.663
 20
64.5996
 10
678.663
 20
64.583
 10
678.6950000000001
 20
64.5294
 10
678.748
 20
64.5005
 10
678.766
 20
64.5005
 10
684.664
 20
64.5005
 10
684.675
 20
64.5005
 10
684.706
 20
64.51560000000001
 10
684.703
 20
64.53749999999999
 10
684.678
 20
64.5432
 10
684.664
 20
64.51139999999999
 10
684.664
 20
64.5005
 10
684.664
 20
61.5996
 10
684.664
 20
61.583
 10
684.692
 20
61.5294
 10
684.749
 20
61.5005
 10
684.766
 20
61.5005
 10
687.765
 20
61.5005
 10
687.783
 20
61.5005
 10
687.836
 20
61.5294
 10
687.867
 20
61.583
 10
687.867
 20
61.5996
 10
687.867
 20
64.5005
 10
687.867
 20
64.51139999999999
 10
687.85
 20
64.5432
 10
687.828
 20
64.53749999999999
 10
687.821
 20
64.51560000000001
 10
687.853
 20
64.5005
 10
687.867
 20
64.5005
 10
696.764
 20
64.5005
 10
696.782
 20
64.5005
 10
696.835
 20
64.5294
 10
696.8630000000001
 20
64.583
 10
696.8630000000001
 20
64.5996
 10
696.8630000000001
 20
67.5005
 10
696.8630000000001
 20
67.51139999999999
 10
696.849
 20
67.5432
 10
696.828
 20
67.53749999999999
 10
696.821
 20
67.5157
 10
696.853
 20
67.5005
 10
696.8630000000001
 20
67.5005
 10
699.766
 20
67.5005
 10
699.7809999999999
 20
67.5005
 10
699.837
 20
67.5294
 10
699.865
 20
67.5831
 10
699.865
 20
67.5996
 10
699.865
 20
70.5997
 10
699.865
 20
70.6176
 10
699.837
 20
70.6713
 10
699.7809999999999
 20
70.7002
 10
699.766
 20
70.7002
 10
693.766
 20
70.7002
 10
693.748
 20
70.7002
 10
693.6950000000001
 20
70.6713
 10
693.667
 20
70.6176
 10
693.667
 20
70.5997
 10
693.667
 20
69.2079
 10
693.667
 20
69.19670000000001
 10
693.681
 20
69.16240000000001
 10
693.706
 20
69.1653
 10
693.7089999999999
 20
69.19
 10
693.678
 20
69.2079
 10
693.667
 20
69.2079
 10
679.1079999999999
 20
70.22499999999999
 10
679.0940000000001
 20
70.2261
 10
679.034
 20
70.1985
 10
679.002
 20
70.14490000000001
 10
679.002
 20
70.1255
 10
679.002
 20
68.62479999999999
 10
679.002
 20
68.6082
 10
679.027
 20
68.5574
 10
679.08
 20
68.5271
 10
679.0940000000001
 20
68.5257
 10
693.759
 20
67.5005
 10
693.752
 20
67.50190000000001
 10
693.706
 20
67.51990000000001
 10
693.702
 20
67.5224
 10
693.699
 20
67.5266
 10
693.67
 20
67.5693
 10
693.667
 20
67.5735
 10
693.667
 20
67.5792
 10
693.667
 20
67.63
 10
693.67
 20
67.63420000000001
 10
693.674
 20
67.6395
 10
693.702
 20
67.6797
 10
693.706
 20
67.68219999999999
 10
693.713
 20
67.685
 10
693.752
 20
67.7002
 10
693.766
 20
67.7002
 10
678.864
 20
67.7002
 10
678.854
 20
67.7002
 10
678.822
 20
67.68640000000001
 10
678.826
 20
67.6631
 10
678.85
 20
67.6589
 10
678.864
 20
67.6906
 10
678.864
 20
67.7002
 10
678.864
 20
70.5997
 10
678.864
 20
70.6176
 10
678.836
 20
70.6713
 10
678.783
 20
70.7002
 10
678.766
 20
70.7002
 10
675.763
 20
70.7002
 10
675.746
 20
70.7002
 10
675.693
 20
70.6713
 10
675.665
 20
70.6176
 10
675.665
 20
70.5997
 10
675.665
 20
65.2004
 10
675.665
 20
65.18380000000001
 10
675.693
 20
65.1302
 10
675.746
 20
65.0998
  0
LWPOLYLINE
  5
A3
100
AcDbEntity
  8
0
  6
ByLayer
 62
    0
370
   -1
100
AcDbPolyline
 90
  118
 70
    1
 43
0
 10
675.763
 20
75.80029999999999
 10
678.663
 20
75.80029999999999
 10
678.674
 20
75.80029999999999
 10
678.706
 20
75.8155
 10
678.702
 20
75.8377
 10
678.677
 20
75.843
 10
678.663
 20
75.8112
 10
678.663
 20
75.80029999999999
 10
678.663
 20
75.3001
 10
678.663
 20
75.2835
 10
678.6950000000001
 20
75.2299
 10
678.748
 20
75.1995
 10
678.766
 20
75.1995
 10
684.664
 20
75.1995
 10
684.675
 20
75.1995
 10
684.706
 20
75.21469999999999
 10
684.703
 20
75.238
 10
684.678
 20
75.2422
 10
684.664
 20
75.2105
 10
684.664
 20
75.1995
 10
684.664
 20
72.3
 10
684.664
 20
72.2835
 10
684.692
 20
72.2298
 10
684.749
 20
72.1995
 10
684.766
 20
72.1995
 10
687.765
 20
72.1995
 10
687.783
 20
72.1995
 10
687.836
 20
72.2298
 10
687.867
 20
72.2835
 10
687.867
 20
72.3
 10
687.867
 20
75.1995
 10
687.867
 20
75.2105
 10
687.85
 20
75.2422
 10
687.828
 20
75.238
 10
687.821
 20
75.21469999999999
 10
687.853
 20
75.1995
 10
687.867
 20
75.1995
 10
696.764
 20
75.1995
 10
696.782
 20
75.1995
 10
696.835
 20
75.2299
 10
696.8630000000001
 20
75.2835
 10
696.8630000000001
 20
75.3001
 10
696.8630000000001
 20
78.1995
 10
696.8630000000001
 20
78.2105
 10
696.849
 20
78.2422
 10
696.828
 20
78.238
 10
696.821
 20
78.21469999999999
 10
696.853
 20
78.1995
 10
696.8630000000001
 20
78.1995
 10
699.766
 20
78.1995
 10
699.7809999999999
 20
78.1995
 10
699.837
 20
78.2299
 10
699.865
 20
78.2835
 10
699.865
 20
78.3001
 10
699.865
 20
81.3001
 10
699.865
 20
81.3181
 10
699.837
 20
81.3703
 10
699.7809999999999
 20
81.39919999999999
 10
699.766
 20
81.39919999999999
 10
693.766
 20
81.39919999999999
 10
693.748
 20
81.39919999999999
 10
693.6950000000001
 20
81.3703
 10
693.667
 20
81.3181
 10
693.667
 20
81.3001
 10
693.667
 20
79.907
 10
693.667
 20
79.8961
 10
693.681
 20
79.86150000000001
 10
693.706
 20
79.8643
 10
693.7089999999999
 20
79.889
 10
693.678
 20
79.907
 10
693.667
 20
79.907
 10
679.1079999999999
 20
80.9255
 10
679.0940000000001
 20
80.9265
 10
679.034
 20
80.899
 10
679.002
 20
80.84399999999999
 10
679.002
 20
80.8246
 10
679.002
 20
79.3253
 10
679.002
 20
79.309
 10
679.027
 20
79.25790000000001
 10
679.08
 20
79.22750000000001
 10
679.0940000000001
 20
79.2261
 10
693.759
 20
78.20099999999999
 10
693.752
 20
78.2024
 10
693.706
 20
78.2204
 10
693.702
 20
78.22280000000001
 10
693.699
 20
78.22709999999999
 10
693.67
 20
78.2697
 10
693.667
 20
78.274
 10
693.667
 20
78.2796
 10
693.667
 20
78.32899999999999
 10
693.67
 20
78.33320000000001
 10
693.674
 20
78.3389
 10
693.702
 20
78.3788
 10
693.706
 20
78.38160000000001
 10
693.713
 20
78.38549999999999
 10
693.752
 20
78.39919999999999
 10
693.766
 20
78.39919999999999
 10
678.864
 20
78.39919999999999
 10
678.854
 20
78.39919999999999
 10
678.822
 20
78.38549999999999
 10
678.826
 20
78.3622
 10
678.85
 20
78.3579
 10
678.864
 20
78.3897
 10
678.864
 20
78.39919999999999
 10
678.864
 20
81.3001
 10
678.864
 20
81.3181
 10
678.836
 20
81.3703
 10
678.783
 20
81.39919999999999
 10
678.766
 20
81.39919999999999
 10
675.763
 20
81.39919999999999
 10
675.746
 20
81.39919999999999
 10
675.693
 20
81.3703
 10
675.665
 20
81.3181
 10
675.665
 20
81.3001
 10
675.665
 20
75.8994
 10
675.665
 20
75.8832
 10
675.693
 20
75.8292
 10
675.746
 20
75.80029999999999
  0
LWPOLYLINE
  5
A4
100
AcDbEntity
  8
0
  6
ByLayer
 62
    0
370
   -1
100
AcDbPolyline
 90
   74
 70
    1
 43
0
 10
677.263
 20
82.90000000000001
 10
680.117
 20
82.90000000000001
 10
680.131
 20
82.90000000000001
 10
680.187
 20
82.9303
 10
680.216
 20
82.98390000000001
 10
680.216
 20
83.0005
 10
680.216
 20
90.5496
 10
680.216
 20
90.5605
 10
680.201
 20
90.59229999999999
 10
680.177
 20
90.58799999999999
 10
680.173
 20
90.56480000000001
 10
680.205
 20
90.5496
 10
680.216
 20
90.5496
 10
683.316
 20
90.5496
 10
683.323
 20
90.5496
 10
683.355
 20
90.56480000000001
 10
683.352
 20
90.58799999999999
 10
683.331
 20
90.59229999999999
 10
683.316
 20
90.5605
 10
683.316
 20
90.5496
 10
683.316
 20
83.0005
 10
683.316
 20
82.98390000000001
 10
683.345
 20
82.9303
 10
683.398
 20
82.90000000000001
 10
683.415
 20
82.90000000000001
 10
686.266
 20
82.90000000000001
 10
686.28
 20
82.90000000000001
 10
686.336
 20
82.9303
 10
686.364
 20
82.98390000000001
 10
686.364
 20
83.0005
 10
686.364
 20
85.90000000000001
 10
686.364
 20
85.9109
 10
686.35
 20
85.9427
 10
686.326
 20
85.9384
 10
686.322
 20
85.9151
 10
686.354
 20
85.90000000000001
 10
686.364
 20
85.90000000000001
 10
687.765
 20
85.90000000000001
 10
687.783
 20
85.90000000000001
 10
687.836
 20
85.9303
 10
687.867
 20
85.98390000000001
 10
687.867
 20
86.0005
 10
687.867
 20
91.9992
 10
687.867
 20
92.0171
 10
687.8390000000001
 20
92.0669
 10
687.836
 20
92.07080000000001
 10
684.837
 20
95.07080000000001
 10
684.83
 20
95.07640000000001
 10
684.78
 20
95.0997
 10
684.766
 20
95.0997
 10
678.766
 20
95.0997
 10
678.748
 20
95.0997
 10
678.699
 20
95.07640000000001
 10
678.6950000000001
 20
95.07080000000001
 10
675.696
 20
92.07080000000001
 10
675.689
 20
92.0669
 10
675.665
 20
92.0171
 10
675.665
 20
91.9992
 10
675.665
 20
86.0005
 10
675.665
 20
85.98390000000001
 10
675.693
 20
85.9303
 10
675.746
 20
85.90000000000001
 10
675.763
 20
85.90000000000001
 10
677.164
 20
85.90000000000001
 10
677.175
 20
85.90000000000001
 10
677.206
 20
85.9151
 10
677.203
 20
85.9384
 10
677.178
 20
85.9427
 10
677.164
 20
85.9109
 10
677.164
 20
85.90000000000001
 10
677.164
 20
83.0005
 10
677.164
 20
82.98390000000001
 10
677.196
 20
82.9303
 10
677.245
 20
82.90000000000001
  0
LWPOLYLINE
  5
A5
100
AcDbEntity
  8
0
  6
ByLayer
 62
    0
370
   -1
100
AcDbPolyline
 90
   74
 70
    1
 43
0
 10
690.965
 20
82.90000000000001
 10
693.8150000000001
 20
82.90000000000001
 10
693.833
 20
82.90000000000001
 10
693.886
 20
82.9303
 10
693.914
 20
82.98390000000001
 10
693.914
 20
83.0005
 10
693.914
 20
90.5496
 10
693.914
 20
90.5605
 10
693.9
 20
90.59229999999999
 10
693.875
 20
90.58799999999999
 10
693.872
 20
90.56480000000001
 10
693.903
 20
90.5496
 10
693.914
 20
90.5496
 10
697.015
 20
90.5496
 10
697.025
 20
90.5496
 10
697.057
 20
90.56480000000001
 10
697.054
 20
90.58799999999999
 10
697.029
 20
90.59229999999999
 10
697.015
 20
90.5605
 10
697.015
 20
90.5496
 10
697.015
 20
83.0005
 10
697.015
 20
82.98390000000001
 10
697.047
 20
82.9303
 10
697.096
 20
82.90000000000001
 10
697.114
 20
82.90000000000001
 10
699.9640000000001
 20
82.90000000000001
 10
699.982
 20
82.90000000000001
 10
700.035
 20
82.9303
 10
700.066
 20
82.98390000000001
 10
700.066
 20
83.0005
 10
700.066
 20
85.90000000000001
 10
700.066
 20
85.9109
 10
700.049
 20
85.9427
 10
700.028
 20
85.9384
 10
700.024
 20
85.9151
 10
700.056
 20
85.90000000000001
 10
700.066
 20
85.90000000000001
 10
701.467
 20
85.90000000000001
 10
701.481
 20
85.90000000000001
 10
701.537
 20
85.9303
 10
701.566
 20
85.98390000000001
 10
701.566
 20
86.0005
 10
701.566
 20
91.9992
 10
701.566
 20
92.0171
 10
701.5410000000001
 20
92.0669
 10
701.537
 20
92.07080000000001
 10
698.535
 20
95.07080000000001
 10
698.532
 20
95.07640000000001
 10
698.482
 20
95.0997
 10
698.465
 20
95.0997
 10
692.4640000000001
 20
95.0997
 10
692.446
 20
95.0997
 10
692.397
 20
95.07640000000001
 10
692.393
 20
95.07080000000001
 10
689.395
 20
92.07080000000001
 10
689.388
 20
92.0669
 10
689.367
 20
92.0171
 10
689.367
 20
91.9992
 10
689.367
 20
86.0005
 10
689.367
 20
85.98390000000001
 10
689.395
 20
85.9303
 10
689.448
 20
85.90000000000001
 10
689.465
 20
85.90000000000001
 10
690.866
 20
85.90000000000001
 10
690.876
 20
85.90000000000001
 10
690.908
 20
85.9151
 10
690.901
 20
85.9384
 10
690.88
 20
85.9427
 10
690.866
 20
85.9109
 10
690.866
 20
85.90000000000001
 10
690.866
 20
83.0005
 10
690.866
 20
82.98390000000001
 10
690.894
 20
82.9303
 10
690.947
 20
82.90000000000001
  0
LWPOLYLINE
  5
A6
100
AcDbEntity
  8
0
  6
ByLayer
 62
    0
370
   -1
100
AcDbPolyline
 90
   74
 70
    1
 43
0
 10
677.263
 20
96.60039999999999
 10
680.117
 20
96.60039999999999
 10
680.131
 20
96.60039999999999
 10
680.187
 20
96.6294
 10
680.216
 20
96.6833
 10
680.216
 20
96.6996
 10
680.216
 20
104.25
 10
680.216
 20
104.261
 10
680.201
 20
104.293
 10
680.177
 20
104.289
 10
680.173
 20
104.265
 10
680.205
 20
104.25
 10
680.216
 20
104.25
 10
683.316
 20
104.25
 10
683.323
 20
104.25
 10
683.355
 20
104.265
 10
683.352
 20
104.289
 10
683.331
 20
104.293
 10
683.316
 20
104.261
 10
683.316
 20
104.25
 10
683.316
 20
96.6996
 10
683.316
 20
96.6833
 10
683.345
 20
96.6294
 10
683.398
 20
96.60039999999999
 10
683.415
 20
96.60039999999999
 10
686.266
 20
96.60039999999999
 10
686.28
 20
96.60039999999999
 10
686.336
 20
96.6294
 10
686.364
 20
96.6833
 10
686.364
 20
96.6996
 10
686.364
 20
99.6005
 10
686.364
 20
99.6114
 10
686.35
 20
99.6431
 10
686.326
 20
99.6378
 10
686.322
 20
99.6156
 10
686.354
 20
99.6005
 10
686.364
 20
99.6005
 10
687.765
 20
99.6005
 10
687.783
 20
99.6005
 10
687.836
 20
99.6294
 10
687.867
 20
99.68300000000001
 10
687.867
 20
99.6996
 10
687.867
 20
105.7
 10
687.867
 20
105.718
 10
687.8390000000001
 20
105.766
 10
687.836
 20
105.77
 10
684.837
 20
108.77
 10
684.83
 20
108.775
 10
684.78
 20
108.8
 10
684.766
 20
108.8
 10
678.766
 20
108.8
 10
678.748
 20
108.8
 10
678.699
 20
108.775
 10
678.6950000000001
 20
108.77
 10
675.696
 20
105.77
 10
675.689
 20
105.766
 10
675.665
 20
105.716
 10
675.665
 20
105.7
 10
675.665
 20
99.6996
 10
675.665
 20
99.68300000000001
 10
675.693
 20
99.6294
 10
675.746
 20
99.6005
 10
675.763
 20
99.6005
 10
677.164
 20
99.6005
 10
677.175
 20
99.6005
 10
677.206
 20
99.6156
 10
677.203
 20
99.6378
 10
677.178
 20
99.6431
 10
677.164
 20
99.6114
 10
677.164
 20
99.6005
 10
677.164
 20
96.6996
 10
677.164
 20
96.6833
 10
677.196
 20
96.6294
 10
677.245
 20
96.60039999999999
  0
LWPOLYLINE
  5
A7
100
AcDbEntity
  8
0
  6
ByLayer
 62
    0
370
   -1
100
AcDbPolyline
 90
   74
 70
    1
 43
0
 10
690.965
 20
96.60039999999999
 10
693.8150000000001
 20
96.60039999999999
 10
693.833
 20
96.60039999999999
 10
693.886
 20
96.6294
 10
693.914
 20
96.6833
 10
693.914
 20
96.6996
 10
693.914
 20
104.25
 10
693.914
 20
104.261
 10
693.9
 20
104.293
 10
693.875
 20
104.289
 10
693.872
 20
104.265
 10
693.903
 20
104.25
 10
693.914
 20
104.25
 10
697.015
 20
104.25
 10
697.025
 20
104.25
 10
697.057
 20
104.265
 10
697.054
 20
104.289
 10
697.029
 20
104.293
 10
697.015
 20
104.261
 10
697.015
 20
104.25
 10
697.015
 20
96.6996
 10
697.015
 20
96.6833
 10
697.047
 20
96.6294
 10
697.096
 20
96.60039999999999
 10
697.114
 20
96.60039999999999
 10
699.9640000000001
 20
96.60039999999999
 10
699.982
 20
96.60039999999999
 10
700.035
 20
96.6294
 10
700.066
 20
96.6833
 10
700.066
 20
96.6996
 10
700.066
 20
99.6005
 10
700.066
 20
99.6114
 10
700.049
 20
99.6431
 10
700.028
 20
99.6378
 10
700.024
 20
99.6156
 10
700.056
 20
99.6005
 10
700.066
 20
99.6005
 10
701.467
 20
99.6005
 10
701.481
 20
99.6005
 10
701.537
 20
99.6294
 10
701.566
 20
99.68300000000001
 10
701.566
 20
99.6996
 10
701.566
 20
105.7
 10
701.566
 20
105.718
 10
701.5410000000001
 20
105.766
 10
701.537
 20
105.77
 10
698.535
 20
108.77
 10
698.532
 20
108.775
 10
698.482
 20
108.8
 10
698.465
 20
108.8
 10
692.4640000000001
 20
108.8
 10
692.446
 20
108.8
 10
692.397
 20
108.775
 10
692.393
 20
108.77
 10
689.395
 20
105.77
 10
689.388
 20
105.766
 10
689.367
 20
105.716
 10
689.367
 20
105.7
 10
689.367
 20
99.6996
 10
689.367
 20
99.68300000000001
 10
689.395
 20
99.6294
 10
689.448
 20
99.6005
 10
689.465
 20
99.6005
 10
690.866
 20
99.6005
 10
690.876
 20
99.6005
 10
690.908
 20
99.6156
 10
690.901
 20
99.6378
 10
690.88
 20
99.6431
 10
690.866
 20
99.6114
 10
690.866
 20
99.6005
 10
690.866
 20
96.6996
 10
690.866
 20
96.6833
 10
690.894
 20
96.6294
 10
690.947
 20
96.60039999999999
  0
LWPOLYLINE
  5
A8
100
AcDbEntity
  8
0
  6
ByLayer
 62
  256
370
   -1
100
AcDbPolyline
 90
    4
 70
    1
 43
0
 10
590
 20
50
 10
598
 20
50
 10
598
 20
40
 10
590
 20
40
  0
LWPOLYLINE
  5
A9
100
AcDbEntity
  8
0
  6
ByLayer
 62
  256
370
   -1
100
AcDbPolyline
 90
    4
 70
    1
 43
0
 10
385
 20
40
 10
385
 20
110
 10
410
 20
110
 10
410
 20
40
  0
CIRCLE
  5
AA
100
AcDbEntity
  8
0
  6
ByLayer
 62
  256
370
   -1
100
AcDbCircle
 10
455
 20
60
 40
2.5
  0
CIRCLE
  5
AB
100
AcDbEntity
  8
0
  6
ByLayer
 62
  256
370
   -1
100
AcDbCircle
 10
445
 20
60
 40
2.5
  0
CIRCLE
  5
AC
100
AcDbEntity
  8
0
  6
ByLayer
 62
  256
370
   -1
100
AcDbCircle
 10
445
 20
40
 40
2.5
  0
CIRCLE
  5
AD
100
AcDbEntity
  8
0
  6
ByLayer
 62
  256
370
   -1
100
AcDbCircle
 10
435
 20
40
 40
2.5
  0
CIRCLE
  5
AE
100
AcDbEntity
  8
0
  6
ByLayer
 62
  256
370
   -1
100
AcDbCircle
 10
455
 20
40
 40
0
  0
CIRCLE
  5
AF
100
AcDbEntity
  8
0
  6
ByLayer
 62
  256
370
   -1
100
AcDbCircle
 10
455
 20
40
 40
2.5
  0
CIRCLE
  5
B0
100
AcDbEntity
  8
0
  6
ByLayer
 62
  256
370
   -1
100
AcDbCircle
 10
435
 20
60
 40
2.399999999999999
  0
ENDSEC
  0
SECTION
  2
OBJECTS
  0
DICTIONARY
  5
C
330
0
100
AcDbDictionary
281
    1
  3
ACAD_GROUP
350
D
  0
DICTIONARY
  5
D
330
C
100
AcDbDictionary
281
    1
  0
PLOTSETTINGS
  5
B1
100
AcDbPlotSettings
  6
1x1
 40
0
 41
0
 42
0
 43
0
  0
ENDSEC
  0
EOF
